SplineFontDB: 3.0
FontName: Exo-ExtraLight
FullName: Exo ExtraLight
FamilyName: Exo
Weight: ExtraLight
Copyright: Copyright (c) 2011 Natanael Gama (exo@ndiscovered.com), with Reserved Font Name "Exo"
Version: 1.00
ItalicAngle: 0
UnderlinePosition: -50
UnderlineWidth: 50
Ascent: 800
Descent: 200
sfntRevision: 0x00010000
LayerCount: 2
Layer: 0 0 "Back"  1
Layer: 1 0 "Fore"  0
XUID: [1021 762 1116966003 13613249]
FSType: 8
OS2Version: 0
OS2_WeightWidthSlopeOnly: 0
OS2_UseTypoMetrics: 1
CreationTime: 1317846267
ModificationTime: 1325018898
PfmFamily: 33
TTFWeight: 200
TTFWidth: 5
LineGap: 90
VLineGap: 0
OS2TypoAscent: 0
OS2TypoAOffset: 1
OS2TypoDescent: 0
OS2TypoDOffset: 1
OS2TypoLinegap: 90
OS2WinAscent: 0
OS2WinAOffset: 1
OS2WinDescent: 0
OS2WinDOffset: 1
HheadAscent: 0
HheadAOffset: 1
HheadDescent: 0
HheadDOffset: 1
OS2Vendor: 'PfEd'
Lookup: 4 0 0 "'ordn' Ordinals lookup 21"  {"'ordn' Ordinals lookup 21-1"  } ['ordn' ('DFLT' <'dflt' > 'grek' <'dflt' > 'latn' <'dflt' > ) ]
Lookup: 1 0 0 "'smcp' Lowercase to Small Capitals lookup 16"  {"'smcp' Lowercase to Small Capitals lookup 16-1" ("smcp" ) } ['smcp' ('DFLT' <'dflt' > 'grek' <'dflt' > 'latn' <'FRA ' 'dflt' > ) ]
Lookup: 1 0 0 "'c2sc' Capitals to Small Capitals in Latin lookup 17"  {"'c2sc' Capitals to Small Capitals in Latin lookup 17 subtable" ("smcp" ) } ['c2sc' ('latn' <'dflt' > ) ]
Lookup: 4 0 0 "'dlig' Discretionary Ligatures lookup 14"  {"'dlig' Discretionary Ligatures lookup 14-1"  } ['dlig' ('DFLT' <'dflt' > 'grek' <'dflt' > 'latn' <'dflt' > ) ]
Lookup: 4 0 1 "'liga' Standard Ligatures lookup 15"  {"'liga' Standard Ligatures lookup 15-1"  } ['liga' ('DFLT' <'dflt' > 'grek' <'dflt' > 'latn' <'FRA ' 'dflt' > ) ]
Lookup: 1 0 0 "'frac' Diagonal Fractions lookup 13"  {"'frac' Diagonal Fractions lookup 13-1"  } ['frac' ('DFLT' <'dflt' > 'grek' <'dflt' > 'latn' <'FRA ' 'dflt' > ) ]

StartChar: a
Encoding: 97 97 0
Width: 519
VWidth: 0
Flags: HW
LayerCount: 2
Fore
SplineSet
49 126 m 10
 49 187 l 2
 49 270 100 320 182 320 c 2
 182 320 417 319 417 320 c 0
 417 320 418 386 417 387 c 2
 417 453 388 501 304 502 c 0
 232 503 159 495 66 483 c 9
 66 510 l 17
 128 526 205 540 305 541 c 1
 388 542 458 497 458 387 c 2
 458 0 l 9
 430 0 l 25
 417 64 l 17
 415 64 278 -6 182 -6 c 27
 109 -6 49 41 49 126 c 10
90 131 m 2
 90 59 138 36 182 35 c 0
 262 34 417 92 417 92 c 9
 417 291 l 17
 182 279 l 1
 114 276 90 236 90 185 c 2
 90 131 l 2
EndSplineSet
Substitution2: "'sups' Superscript lookup 2 subtable" a.superior
AlternateSubs2: "'salt' Access All Alternates in Latin lookup 4-1" a.salt
Substitution2: "'smcp' Lowercase to Small Capitals lookup 16-1" a.smcp
EndChar

StartChar: z
Encoding: 122 122 1
Width: 468
VWidth: 0
Flags: HW
LayerCount: 2
Fore
SplineSet
37 490 m 17
 37 531 l 25
 433 531 l 25
 433 490 l 25
 105 42 l 17
 433 42 l 17
 434 41 433 1 433 1 c 25
 52 1 l 25
 52 42 l 25
 380 490 l 17
 37 490 l 17
EndSplineSet
Substitution2: "'sups' Superscript lookup 2 subtable" z.superior
Substitution2: "'smcp' Lowercase to Small Capitals lookup 16-1" z.smcp
EndChar

StartChar: e
Encoding: 101 101 2
Width: 525
VWidth: 0
Flags: W
HStem: -5 41<157.004 434.957> 242 40<103 416.689> 494 41<156.722 392.066>
VStem: 62 41<99.4766 242 282 433.453> 435 41<299.098 450.334>
LayerCount: 2
Fore
SplineSet
62 268 m 0
 62 503 121 535 274 535 c 3
 396 535 476 523 476 347 c 0
 476 269 429 242 340 242 c 2
 103 242 l 1
 103 66 152 36 236 36 c 3
 328 36 391 42 466 53 c 1
 466 23 l 17
 385 0 319 -6 236 -5 c 0
 100 -4 62 68 62 268 c 0
103 282 m 1
 340 282 l 2
 392 282 435 290 435 347 c 0
 435 482 389 494 274 494 c 3
 144 494 103 474 103 282 c 1
EndSplineSet
Substitution2: "'sups' Superscript lookup 2 subtable" e.superior
Substitution2: "'smcp' Lowercase to Small Capitals lookup 16-1" e.smcp
EndChar

StartChar: o
Encoding: 111 111 3
Width: 571
VWidth: 0
Flags: W
HStem: -5 41<173.542 397.252> 495 41<174.072 394.969>
VStem: 62 41<113.181 411.036> 469 41<116.291 409.559>
LayerCount: 2
Fore
SplineSet
62 258 m 3
 62 475 121 536 285 536 c 3
 460 536 510 453 510 258 c 3
 510 63 457 -5 285 -5 c 3
 108 -5 62 68 62 258 c 3
103 258 m 3
 103 59 166 36 285 36 c 3
 406 36 469 65 469 258 c 3
 469 466 405 495 285 495 c 3
 168 495 103 476 103 258 c 3
EndSplineSet
Substitution2: "'sups' Superscript lookup 2 subtable" o.superior
Substitution2: "'smcp' Lowercase to Small Capitals lookup 16-1" o.smcp
EndChar

StartChar: c
Encoding: 99 99 5
Width: 500
VWidth: 0
Flags: HW
LayerCount: 2
Fore
SplineSet
62 266 m 0
 62 498 134 536 236 536 c 3
 288 536 379 524 444 510 c 1
 444 482 l 1
 444 482 325 495 236 495 c 3
 156 495 103 469 103 262 c 3
 103 74 155 36 236 36 c 3
 328 36 452 54 452 54 c 1
 452 24 l 17
 371 1 319 -4 236 -5 c 0
 137 -5 62 33 62 266 c 0
EndSplineSet
Substitution2: "'sups' Superscript lookup 2 subtable" c.superior
Substitution2: "'smcp' Lowercase to Small Capitals lookup 16-1" c.smcp
EndChar

StartChar: d
Encoding: 100 100 6
Width: 552
VWidth: 0
Flags: HW
LayerCount: 2
Fore
SplineSet
62 263 m 0
 62 399 92 539 243 539 c 3
 288 539 376 525 440 499 c 1
 440 785 l 1
 479 785 l 1
 479 0 l 1
 452 0 l 1
 439 59 l 17
 413 37 311 -6 243 -6 c 3
 98 -6 62 141 62 263 c 0
103 263 m 0
 103 99 165 35 243 35 c 3
 322 35 386 62 439 87 c 1
 439 469 l 1
 370 487 320 498 243 498 c 3
 166 498 103 456 103 263 c 0
EndSplineSet
Substitution2: "'sups' Superscript lookup 2 subtable" d.superior
AlternateSubs2: "'salt' Access All Alternates in Latin lookup 4-1" d.salt
Substitution2: "'smcp' Lowercase to Small Capitals lookup 16-1" d.smcp
EndChar

StartChar: A
Encoding: 65 65 7
Width: 662
VWidth: 0
Flags: W
HStem: 0 21G<56 111.119 582.051 636> 0 21G<56 111.119 582.051 636> 236 41<203 492> 712 20G<320.568 382.131>
DStem2: 56 0 104 0 0.348315 0.937378<16.7191 267.199 310.856 738.295> 375 732 351 678 0.335847 -0.941916<42.8032 467.866 511.522 761.354>
LayerCount: 2
Fore
SplineSet
56 0 m 1xb0
 328 732 l 1
 375 732 l 1
 636 0 l 1
 589 0 l 1
 507 236 l 1
 188 236 l 1
 104 0 l 1
 56 0 l 1xb0
203 277 m 1
 492 277 l 1
 351 678 l 1
 203 277 l 1
EndSplineSet
Substitution2: "'c2sc' Capitals to Small Capitals in Latin lookup 17 subtable" a.smcp
EndChar

StartChar: p
Encoding: 112 112 8
Width: 552
VWidth: 0
Flags: HW
LayerCount: 2
Fore
SplineSet
74 -269 m 1
 74 531 l 1
 100 531 l 1
 114 472 l 17
 140 494 242 537 310 537 c 3
 455 537 491 390 491 268 c 0
 491 132 461 -8 310 -8 c 3
 265 -8 178 6 114 32 c 1
 114 -269 l 1
 74 -269 l 1
114 62 m 1
 183 44 233 33 310 33 c 3
 387 33 450 77 450 268 c 0
 450 427 388 496 310 496 c 3
 231 496 167 469 114 444 c 1
 114 62 l 1
EndSplineSet
Substitution2: "'sups' Superscript lookup 2 subtable" p.superior
AlternateSubs2: "'salt' Access All Alternates in Latin lookup 4-1" p.salt
Substitution2: "'smcp' Lowercase to Small Capitals lookup 16-1" p.smcp
EndChar

StartChar: b
Encoding: 98 98 9
Width: 552
VWidth: 0
Flags: W
HStem: -6 41<209.41 374.756> 498 41<174.559 382.614>
VStem: 74 40<78.763 473.875 499 785> 74 26<0 29.5> 450 41<129.924 411.068>
LayerCount: 2
Fore
SplineSet
74 0 m 1xd8
 74 785 l 1
 113 785 l 1
 113 499 l 1
 177 525 265 539 310 539 c 3
 461 539 491 399 491 263 c 0
 491 141 455 -6 310 -6 c 3
 242 -6 140 37 114 59 c 9xe8
 100 0 l 1
 74 0 l 1xd8
114 87 m 1
 167 62 231 35 310 35 c 3
 388 35 450 104 450 263 c 0
 450 454 387 498 310 498 c 3
 233 498 183 487 114 469 c 1
 114 87 l 1
EndSplineSet
Substitution2: "'sups' Superscript lookup 2 subtable" b.superior
AlternateSubs2: "'salt' Access All Alternates in Latin lookup 4-1" b.salt
Substitution2: "'smcp' Lowercase to Small Capitals lookup 16-1" b.smcp
EndChar

StartChar: q
Encoding: 113 113 10
Width: 556
VWidth: 0
Flags: HW
LayerCount: 2
Fore
SplineSet
62 268 m 3
 62 436 121 537 246 537 c 1
 352 537 436 528 484 521 c 1
 484 -270 l 17
 443 -270 l 9
 443 29 l 1
 379 3 291 -10 246 -10 c 3
 93 -10 62 110 62 268 c 3
103 268 m 3
 103 132 125 31 246 31 c 3
 320 31 360 39 443 60 c 1
 443 496 l 2
 246 496 l 2
 130 496 103 380 103 268 c 3
EndSplineSet
Substitution2: "'sups' Superscript lookup 2 subtable" q.superior
Substitution2: "'smcp' Lowercase to Small Capitals lookup 16-1" q.smcp
EndChar

StartChar: n
Encoding: 110 110 11
Width: 549
VWidth: 0
Flags: HW
LayerCount: 2
Fore
SplineSet
74 0 m 1
 74 531 l 1
 101 531 l 1
 115 469 l 1
 174 506 243 540 324 540 c 3
 430 540 488 458 488 370 c 2
 488 0 l 9
 447 0 l 17
 447 370 l 2
 447 445 400 499 324 499 c 3
 239 499 190 478 115 439 c 1
 115 0 l 1
 74 0 l 1
EndSplineSet
Substitution2: "'sups' Superscript lookup 2 subtable" n.superior
AlternateSubs2: "'salt' Access All Alternates in Latin lookup 4-1" n.salt
Substitution2: "'smcp' Lowercase to Small Capitals lookup 16-1" n.smcp
EndChar

StartChar: i
Encoding: 105 105 12
Width: 179
VWidth: 0
Flags: W
HStem: 0 21G<68 109> 0 21G<68 109> 511 20G<68 109> 605 91<62 117>
VStem: 62 55<605 696> 68 41<0 531>
LayerCount: 2
Fore
SplineSet
62 620 m 2x38
 62 680 l 2
 62 690 67 696 78 696 c 2
 102 696 l 2
 112 696 117 689 117 680 c 2
 117 620 l 2
 117 610 111 605 102 605 c 2
 78 605 l 2
 69 605 62 611 62 620 c 2x38
68 0 m 1xb4
 68 531 l 1
 109 531 l 1
 109 0 l 1
 68 0 l 1xb4
EndSplineSet
Substitution2: "'sups' Superscript lookup 2 subtable" i.superior
Substitution2: "'smcp' Lowercase to Small Capitals lookup 16-1" i.smcp
EndChar

StartChar: h
Encoding: 104 104 13
Width: 549
VWidth: 0
Flags: W
HStem: 0 21G<74 115 447 488> 0 21G<74 115 447 488> 499 41<215.133 395.33> 764 20G<74 115>
VStem: 74 41<0 449.492 469 784> 447 41<0 444.8>
LayerCount: 2
Fore
SplineSet
74 0 m 1xbc
 74 784 l 1
 115 784 l 1
 115 469 l 1
 174 506 243 540 324 540 c 3
 430 540 488 458 488 370 c 2
 488 0 l 9
 447 0 l 17
 447 370 l 2
 447 448 400 499 324 499 c 3
 239 499 190 478 115 439 c 1
 115 0 l 1
 74 0 l 1xbc
EndSplineSet
Substitution2: "'sups' Superscript lookup 2 subtable" h.superior
Substitution2: "'smcp' Lowercase to Small Capitals lookup 16-1" h.smcp
EndChar

StartChar: u
Encoding: 117 117 14
Width: 549
VWidth: 0
Flags: HW
HStem: -8 41<155.757 334.89> 1 21G<444.618 476.08> 1 21G<444.618 476.08> 512 20G<61.88 102.88 435.08 476.08>
VStem: 62 41<86.86 531.66> 435 41<81.8219 531.66> 449 27<0.66 31.4838>
LayerCount: 2
Fore
SplineSet
62 162 m 2x9c
 62 532 l 9
 103 532 l 17
 103 162 l 2
 103 87 150 33 226 33 c 3
 311 33 360 53 435 92 c 1
 435 532 l 1
 476 532 l 1x9c
 476 1 l 1
 449 1 l 1x5a
 435 63 l 1
 376 26 307 -8 226 -8 c 3
 120 -8 62 74 62 162 c 2x9c
EndSplineSet
Substitution2: "'sups' Superscript lookup 2 subtable" u.superior
AlternateSubs2: "'salt' Access All Alternates in Latin lookup 4-1" u.salt
Substitution2: "'smcp' Lowercase to Small Capitals lookup 16-1" u.smcp
EndChar

StartChar: r
Encoding: 114 114 15
Width: 424
VWidth: 0
Flags: HW
HStem: 0 21G<73.86 114.86> 0 21G<73.86 114.86> 496 41<220.241 399.182>
VStem: 74 41<0 438.903> 74 26<500.545 531>
LayerCount: 2
Fore
SplineSet
74 0 m 1xb0
 74 531 l 1
 100 531 l 1xa8
 115 464 l 1
 176 499 239 537 326 537 c 27
 355 537 383 536 400 529 c 1
 400 489 l 1
 380 493 355 496 326 496 c 27
 240 496 192 467 115 430 c 1
 115 0 l 1
 74 0 l 1xb0
EndSplineSet
Substitution2: "'sups' Superscript lookup 2 subtable" r.superior
AlternateSubs2: "'salt' Access All Alternates in Latin lookup 4-1" r.salt
Substitution2: "'smcp' Lowercase to Small Capitals lookup 16-1" r.smcp
EndChar

StartChar: m
Encoding: 109 109 16
Width: 919
VWidth: 0
Flags: HW
LayerCount: 2
Fore
SplineSet
74 0 m 1
 74 531 l 1
 101 531 l 1
 115 468 l 1
 174 505 242 539 322 539 c 1
 389 539 441 506 466 458 c 1
 518 498 612 539 695 539 c 1
 796 539 859 462 859 369 c 2
 859 0 l 1
 818 0 l 1
 818 369 l 2
 818 441 771 498 695 498 c 1
 613 498 544 473 475 433 c 1
 482 417 486 387 486 369 c 2
 486 0 l 1
 445 0 l 1
 445 369 l 2
 445 441 398 498 322 498 c 1
 238 498 190 478 115 439 c 1
 115 0 l 1
 74 0 l 1
EndSplineSet
Substitution2: "'sups' Superscript lookup 2 subtable" m.superior
AlternateSubs2: "'salt' Access All Alternates in Latin lookup 4-1" m.salt
Substitution2: "'smcp' Lowercase to Small Capitals lookup 16-1" m.smcp
EndChar

StartChar: f
Encoding: 102 102 17
Width: 389
VWidth: 0
Flags: W
HStem: 0 21G<115 156> 0 21G<115 156> 490 41<156 324> 490 29<25 77.5> 745 26<277.295 365> 746 40<177.871 363.103>
VStem: 115 41<0 490 531 725.207>
LayerCount: 2
Fore
SplineSet
25 490 m 1x92
 25 519 l 1x92
 115 531 l 1
 115 630 l 2
 115 684 118 786 218 786 c 0x26
 254 786 325 783 365 771 c 1
 365 745 l 1x0a
 229 746 l 2
 162 746 156 698 156 630 c 2
 156 531 l 1
 324 531 l 1
 324 490 l 1
 156 490 l 9x26
 156 0 l 17
 115 0 l 1
 115 490 l 1
 25 490 l 1x92
EndSplineSet
Substitution2: "'sups' Superscript lookup 2 subtable" f.superior
AlternateSubs2: "'salt' Access All Alternates in Latin lookup 4-1" f.salt
Substitution2: "'smcp' Lowercase to Small Capitals lookup 16-1" f.smcp
EndChar

StartChar: l
Encoding: 108 108 18
Width: 298
VWidth: 0
Flags: W
HStem: 0 27<198.107 274> 763 20G<74 115>
VStem: 74 41<81.3184 783>
LayerCount: 2
Fore
SplineSet
74 189 m 2
 74 783 l 1
 115 783 l 1
 115 189 l 2
 115 56 164 46 195 41 c 2
 195 41 267 27 274 27 c 1
 274 0 l 1
 200 0 l 2
 118 0 74 54 74 189 c 2
EndSplineSet
Substitution2: "'sups' Superscript lookup 2 subtable" l.superior
Substitution2: "'smcp' Lowercase to Small Capitals lookup 16-1" l.smcp
EndChar

StartChar: j
Encoding: 106 106 19
Width: 203
VWidth: 0
Flags: HW
LayerCount: 2
Fore
SplineSet
74 620 m 2
 74 680 l 2
 74 690 79 696 90 696 c 2
 114 696 l 2
 124 696 130 689 130 680 c 2
 130 620 l 2
 130 610 123 605 114 605 c 2
 90 605 l 2
 81 605 74 611 74 620 c 2
82 -270 m 1
 82 531 l 1
 123 531 l 1
 123 -4 l 2
 124 -90 122 -185 106 -270 c 1
 82 -270 l 1
EndSplineSet
Substitution2: "'sups' Superscript lookup 2 subtable" j.superior
Substitution2: "'smcp' Lowercase to Small Capitals lookup 16-1" j.smcp
EndChar

StartChar: t
Encoding: 116 116 20
Width: 359
VWidth: 0
Flags: W
HStem: 0 27<238.107 314> 491 41<155 323> 491 30<25 81.6364>
VStem: 114 41<81.3184 491> 125 30<585.818 680>
LayerCount: 2
Fore
SplineSet
25 491 m 1xb0
 25 521 l 1xb0
 114 532 l 1xd0
 125 680 l 1
 155 680 l 1
 155 532 l 1xc8
 323 532 l 1
 323 491 l 1
 155 491 l 1xd0
 155 189 l 2
 155 56 204 46 235 41 c 2
 235 41 307 27 314 27 c 1
 314 0 l 1
 240 0 l 2
 158 0 114 54 114 189 c 2
 114 491 l 1
 25 491 l 1xb0
EndSplineSet
Substitution2: "'sups' Superscript lookup 2 subtable" t.superior
AlternateSubs2: "'salt' Access All Alternates in Latin lookup 4-1" t.salt
Substitution2: "'smcp' Lowercase to Small Capitals lookup 16-1" t.smcp
EndChar

StartChar: s
Encoding: 115 115 21
Width: 504
VWidth: 0
Flags: HW
HStem: -5 41<120.099 394.459> 8 28<71.24 261.551> 244 41<104.99 390.309> 496 40<112.642 391.327> 496 29<235.649 428.44>
VStem: 49 41<299.441 473.485> 414 41<55.0225 218.378>
LayerCount: 2
Fore
SplineSet
49 361 m 10xa6
 49 407 l 18
 49 489 84 536 187 536 c 3xb6
 239 536 376 530 428 525 c 9
 428 496 l 17x2e
 187 496 l 2
 110 496 90 466 90 407 c 10
 90 361 l 18
 90 286 125 285 187 285 c 2
 325 285 l 2
 405 285 455 240 455 165 c 1
 455 116 l 2
 455 7 389 -5 325 -5 c 3xb6
 276 -5 109 4 71 8 c 9
 71 36 l 17x66
 325 36 l 18
 356 36 414 34 414 116 c 2
 414 165 l 2
 414 209 387 244 325 244 c 10
 187 244 l 2
 93 244 49 258 49 361 c 10xa6
EndSplineSet
Substitution2: "'sups' Superscript lookup 2 subtable" s.superior
Substitution2: "'smcp' Lowercase to Small Capitals lookup 16-1" s.smcp
EndChar

StartChar: k
Encoding: 107 107 22
Width: 498
VWidth: 0
Flags: HW
LayerCount: 2
Fore
SplineSet
74 0 m 1
 74 782 l 1
 115 782 l 1
 115 326 l 1
 168 326 l 1
 414 531 l 1
 474 531 l 1
 208 304 l 1
 473 0 l 1
 419 0 l 1
 168 284 l 1
 115 284 l 1
 115 0 l 1
 74 0 l 1
EndSplineSet
Substitution2: "'sups' Superscript lookup 2 subtable" k.superior
Substitution2: "'smcp' Lowercase to Small Capitals lookup 16-1" k.smcp
EndChar

StartChar: g
Encoding: 103 103 23
Width: 566
VWidth: 0
Flags: W
HStem: -270 40.5<141.734 437.096> 28.42 39.83<110.286 439.739> 165.08 41.17<149.821 397.261> 492.5 40.5<146.99 407.58> 505.14 27.86<486.051 542.04>
VStem: 55.72 41.17<-186.08 5.28424 82.442 151.204 260.973 438.232> 451.54 40.5<261.021 441.351> 472.54 40.5<-192.646 -2.48681>
LayerCount: 2
Fore
SplineSet
58.72 118.35 m 1xf5
 58.72 149.34 82.415 187.32 135.14 191.3 c 1
 71.04 220.64 57.71 286.98 57.71 344 c 0
 57.71 474.35 113.66 533 230.04 533 c 2xf5
 542.04 533 l 1
 542.04 505.14 l 1xed
 440.94 492.5 l 1
 456.63 476.86 492.04 445.14 492.04 344 c 0xf6
 492.04 284 469.04 165.08 327.04 165.08 c 2
 171.04 165.08 l 2
 155.04 165.08 97.88 160.41 97.88 116.99 c 0
 97.88 81.61 138.923 68.25 165.01 68.25 c 2
 373.32 68.25 l 2
 463.893 68.25 513.04 13.92 513.04 -66.4 c 2
 513.04 -122.7 l 2
 513.04 -182.7 494.04 -270 363.04 -270 c 2
 213.04 -270 l 2
 119.04 -270 55.72 -216.65 55.72 -116 c 2
 55.72 -24.97 l 1
 76.96 66.83 l 1
 63.03 79.795 58.72 100.06 58.72 118.35 c 1xf5
96.89 -116 m 2
 96.89 -215.13 174.69 -229.5 213.04 -229.5 c 2
 363.04 -229.5 l 2
 429.41 -229.5 472.54 -201.19 472.54 -122.7 c 2
 472.54 -68.05 l 2
 472.54 -13.01 448.673 28.42 369.03 28.42 c 2
 166.68 28.42 l 2
 120.27 28.42 96.89 50.49 96.89 50.49 c 1
 96.89 -116 l 2
98.21 344 m 0
 98.21 256.81 140.68 206.25 223.04 206.25 c 2
 323.72 206.25 l 2
 422.48 206.25 452.2 278.91 451.54 344 c 0xf6
 450.55 443.48 411.77 492.5 352.2 492.5 c 2
 223.34 492.5 l 2
 122.58 492.5 98.21 427.81 98.21 344 c 0
EndSplineSet
Substitution2: "'sups' Superscript lookup 2 subtable" g.superior
AlternateSubs2: "'salt' Access All Alternates in Latin lookup 4-1" g.salt
Substitution2: "'smcp' Lowercase to Small Capitals lookup 16-1" g.smcp
EndChar

StartChar: v
Encoding: 118 118 24
Width: 525
VWidth: 0
Flags: W
HStem: 0 21G<231.902 290.249> 0 21G<231.902 290.249> 511 20G<25 76.178 448.695 501>
DStem2: 68 531 25 531 0.3753 -0.926903<0 509.931> 261 59 282 0 0.381275 0.924462<0 511.076>
LayerCount: 2
Fore
SplineSet
25 531 m 25xa0
 68 531 l 17
 261 59 l 9
 457 531 l 25
 501 531 l 25
 282 0 l 25
 240 0 l 25
 25 531 l 25xa0
EndSplineSet
Substitution2: "'sups' Superscript lookup 2 subtable" v.superior
Substitution2: "'smcp' Lowercase to Small Capitals lookup 16-1" v.smcp
EndChar

StartChar: w
Encoding: 119 119 25
Width: 785
VWidth: 0
Flags: W
HStem: 0 21G<221.841 281.264 500.339 559.47> 0 21G<221.841 281.264 500.339 559.47> 511 20G<24.62 76.3683 417.083 467.42 709.873 760.54>
DStem2: 68.66 531 24.62 531 0.360064 -0.932927<0 508.136> 251.4 56.86 273.92 0 0.342382 0.939561<0 262.198 318.728 504.709> 400.22 341.86 380.06 289.04 0.408136 -0.912921<39.9924 312.914> 529.42 56.86 551.6 0 0.366158 0.930553<0 510.196>
LayerCount: 2
Fore
SplineSet
24.62 531 m 1xa0
 68.66 531 l 1
 251.4 56.86 l 1
 424.38 531 l 1
 467.42 531 l 1
 400.22 341.86 l 1
 529.42 56.86 l 1
 717.82 531 l 1
 760.54 531 l 1
 551.6 0 l 1
 509.28 0 l 1
 380.06 289.04 l 1
 273.92 0 l 1
 229.56 0 l 1
 24.62 531 l 1xa0
EndSplineSet
Substitution2: "'sups' Superscript lookup 2 subtable" w.superior
Substitution2: "'smcp' Lowercase to Small Capitals lookup 16-1" w.smcp
EndChar

StartChar: y
Encoding: 121 121 26
Width: 537
VWidth: 0
Flags: W
HStem: 0 43<242.843 287> 511 20G<26 76.8434 459.238 510>
DStem2: 70 531 26 531 0.32162 -0.946869<0 508.359> 197 -270 277 -168 0.318357 0.947971<49.9399 284.604 329.824 844.963>
LayerCount: 2
Fore
SplineSet
26 531 m 1
 70 531 l 1
 212 116 l 2
 243 29 302 43 301 43 c 9
 466 531 l 1
 510 531 l 9
 277 -168 l 17
 221 -270 l 1
 197 -270 l 1
 287 0 l 0
 266 1 201 7 169 110 c 2
 26 531 l 1
EndSplineSet
Substitution2: "'sups' Superscript lookup 2 subtable" y.superior
Substitution2: "'smcp' Lowercase to Small Capitals lookup 16-1" y.smcp
EndChar

StartChar: x
Encoding: 120 120 27
Width: 494
VWidth: 0
Flags: W
HStem: 0 21G<29 96.4105 398.502 463> 0 21G<29 96.4105 398.502 463> 511 20G<29 96.3478 398.565 466>
DStem2: 82 531 29 531 0.585992 -0.810317<0 283.062 341.404 624.242> 29 0 82 0 0.585992 0.810317<31.0576 313.309 371.652 655.299>
LayerCount: 2
Fore
SplineSet
29 0 m 1xa0
 221 266 l 1
 29 531 l 1
 82 531 l 1
 247 301 l 1
 413 531 l 1
 466 531 l 1
 273 265 l 1
 463 0 l 1
 413 0 l 1
 247 229 l 1
 82 0 l 1
 29 0 l 1xa0
EndSplineSet
Substitution2: "'sups' Superscript lookup 2 subtable" x.superior
AlternateSubs2: "'salt' Access All Alternates in Latin lookup 4-1" x.salt
Substitution2: "'smcp' Lowercase to Small Capitals lookup 16-1" x.smcp
EndChar

StartChar: V
Encoding: 86 86 28
Width: 662
VWidth: 0
Flags: HW
LayerCount: 2
Fore
SplineSet
56 732 m 1
 100 732 l 1
 340 56 l 1
 591 732 l 1
 636 732 l 1
 363 0 l 1
 316 0 l 1
 56 732 l 1
EndSplineSet
Substitution2: "'c2sc' Capitals to Small Capitals in Latin lookup 17 subtable" v.smcp
EndChar

StartChar: W
Encoding: 87 87 29
Width: 967
VWidth: 0
Flags: HW
LayerCount: 2
Fore
SplineSet
56 732 m 1
 100 732 l 1
 340 60 l 1
 563 732 l 1
 609 732 l 1
 518 454 l 1
 670 58 l 1
 898 732 l 1
 941 732 l 1
 695 0 l 1
 648 0 l 1
 496 389 l 1
 363 0 l 1
 316 0 l 1
 56 732 l 1
EndSplineSet
Substitution2: "'c2sc' Capitals to Small Capitals in Latin lookup 17 subtable" w.smcp
EndChar

StartChar: C
Encoding: 67 67 30
Width: 572
VWidth: 0
Flags: HW
LayerCount: 2
Fore
SplineSet
68 368 m 0
 68 599 109 740 311 740 c 0
 363 740 465 729 535 716 c 1
 535 686 l 17
 534 686 403 699 311 699 c 3
 171 699 109 633 109 366 c 0
 109 160 166 35 312 35 c 3
 417 35 535 45 535 45 c 1
 535 16 l 1
 465 3 363 -6 311 -6 c 0
 126 -6 68 153 68 368 c 0
EndSplineSet
Substitution2: "'c2sc' Capitals to Small Capitals in Latin lookup 17 subtable" c.smcp
EndChar

StartChar: D
Encoding: 68 68 31
Width: 666
VWidth: 0
Flags: W
HStem: 0 42<139 437.731> 691 41<139 449.859>
VStem: 98 41<42 691> 576 41<221.752 528.658>
LayerCount: 2
Fore
SplineSet
98 0 m 1
 98 732 l 2
 358 732 l 0
 584 732 617 513 617 363 c 0
 617 197 546 0 358 0 c 0
 98 0 l 1
139 42 m 1
 358 42 l 2
 513 42 576 214 576 364 c 0
 576 593 495 691 358 691 c 2
 139 691 l 1
 139 42 l 1
EndSplineSet
Substitution2: "'c2sc' Capitals to Small Capitals in Latin lookup 17 subtable" d.smcp
EndChar

StartChar: O
Encoding: 79 79 32
Width: 675
VWidth: 0
Flags: W
HStem: -4 41<220.743 483.018> 696 41<221.339 488.585>
VStem: 80 41<161.747 561.524> 585 41<164.742 563.892>
LayerCount: 2
Fore
SplineSet
80 361 m 3
 80 704 183 737 354 737 c 3
 527 737 626 704 626 361 c 3
 626 38 534 -4 354 -4 c 3
 174 -4 80 28 80 361 c 3
121 361 m 3
 121 77 182 37 354 37 c 3
 520 37 585 81 585 361 c 3
 585 677 506 696 354 696 c 3
 211 696 121 685 121 361 c 3
EndSplineSet
Substitution2: "'c2sc' Capitals to Small Capitals in Latin lookup 17 subtable" o.smcp
EndChar

StartChar: S
Encoding: 83 83 33
Width: 585
VWidth: 0
Flags: HW
LayerCount: 2
Fore
SplineSet
80 494 m 10
 80 560 l 18
 80 705 163 738 275 738 c 0
 328 738 461 724 506 717 c 1
 506 688 l 1
 442 692 275 697 275 697 c 1
 182 701 121 674 121 560 c 10
 121 494 l 18
 121 394 172 380 253 380 c 2
 376 380 l 18
 509 380 536 306 536 224 c 2
 536 156 l 2
 536 14 439 -8 340 -8 c 3
 291 -8 146 2 100 10 c 9
 100 41 l 17
 143 37 247 33 340 33 c 1
 413 33 495 49 495 156 c 2
 495 224 l 2
 495 299 464 338 376 338 c 10
 255 338 l 2
 98 338 80 414 80 494 c 10
EndSplineSet
Substitution2: "'c2sc' Capitals to Small Capitals in Latin lookup 17 subtable" s.smcp
EndChar

StartChar: G
Encoding: 71 71 34
Width: 617
VWidth: 0
Flags: HW
LayerCount: 2
Fore
SplineSet
68 370 m 3
 68 570 92 740 291 740 c 0
 343 740 472 726 542 713 c 1
 542 680 l 1
 536 680 387 699 291 699 c 3
 137 699 109 580 109 368 c 0
 109 129 149 37 296 36 c 0
 373 36 517 84 517 84 c 9
 517 347 l 25
 319 347 l 25
 319 373 l 17
 359 384 409 389 490 389 c 0
 511 389 534 388 558 386 c 9
 558 0 l 17
 530 0 l 0
 519 52 l 1
 486 34 386 -5 296 -5 c 1
 89 -7 68 161 68 370 c 3
EndSplineSet
Substitution2: "'c2sc' Capitals to Small Capitals in Latin lookup 17 subtable" g.smcp
EndChar

StartChar: Q
Encoding: 81 81 35
Width: 675
VWidth: 0
Flags: HW
LayerCount: 2
Fore
SplineSet
80 361 m 3
 80 704 181 737 353 737 c 3
 526 737 626 704 626 361 c 3
 626 38 533 -4 353 -4 c 3
 173 -4 80 28 80 361 c 3
121 361 m 3
 121 77 181 37 353 37 c 3
 519 37 585 81 585 361 c 3
 585 677 505 696 353 696 c 3
 210 696 121 685 121 361 c 3
337 -33 m 9
 364 -33 l 17
 405 -102 479 -101 538 -81 c 1
 538 -124 l 1
 466 -151 356 -129 337 -33 c 9
EndSplineSet
Substitution2: "'c2sc' Capitals to Small Capitals in Latin lookup 17 subtable" q.smcp
EndChar

StartChar: M
Encoding: 77 77 36
Width: 798
VWidth: 0
Flags: W
HStem: 0 21G<68 110.919 374.763 431.117 695.931 739> 0 21G<68 110.919 374.763 431.117 695.931 739> 712 20G<135.115 202.244 598.906 666.049>
DStem2: 68 0 109 0 0.0938463 0.995587<3.8477 673.91> 196 732 173 667 0.297704 -0.954658<55.2056 694.563> 403 69 425 0 0.292473 0.956274<0 637.951> 664 732 629 667 0.101925 -0.994792<61.0941 731.653>
LayerCount: 2
Fore
SplineSet
68 0 m 1xa0
 137 732 l 1
 196 732 l 1
 403 69 l 1
 605 732 l 1
 664 732 l 1
 739 0 l 1
 698 0 l 1
 629 667 l 1
 425 0 l 1
 381 0 l 1
 173 667 l 1
 109 0 l 1
 68 0 l 1xa0
EndSplineSet
AlternateSubs2: "'salt' Access All Alternates in Latin lookup 4-1" M.salt
Substitution2: "'c2sc' Capitals to Small Capitals in Latin lookup 17 subtable" m.smcp
EndChar

StartChar: I
Encoding: 73 73 37
Width: 204
VWidth: 0
Flags: W
HStem: 0 21G<98 139> 0 21G<98 139> 712 20G<98 139>
VStem: 98 41<0 732>
LayerCount: 2
Fore
SplineSet
98 0 m 1xb0
 98 732 l 1
 139 732 l 1
 139 0 l 1
 98 0 l 1xb0
EndSplineSet
Substitution2: "'c2sc' Capitals to Small Capitals in Latin lookup 17 subtable" i.smcp
EndChar

StartChar: J
Encoding: 74 74 38
Width: 352
VWidth: 0
Flags: HW
LayerCount: 2
Fore
SplineSet
43 21 m 1
 47 49 l 1
 130 25 246 3 246 165 c 1
 246 732 l 1
 287 732 l 1
 287 165 l 2
 287 118 282 51 235 18 c 0
 189 -15 95 -13 43 21 c 1
EndSplineSet
Substitution2: "'c2sc' Capitals to Small Capitals in Latin lookup 17 subtable" j.smcp
EndChar

StartChar: H
Encoding: 72 72 39
Width: 655
VWidth: 0
Flags: HW
LayerCount: 2
Fore
SplineSet
98 0 m 1
 98 732 l 1
 139 732 l 1
 139 374 l 1
 549 374 l 1
 549 732 l 1
 590 732 l 1
 590 0 l 1
 549 0 l 1
 549 334 l 1
 139 334 l 1
 139 0 l 1
 98 0 l 1
EndSplineSet
Substitution2: "'c2sc' Capitals to Small Capitals in Latin lookup 17 subtable" h.smcp
EndChar

StartChar: E
Encoding: 69 69 40
Width: 576
VWidth: 0
Flags: HW
HStem: -3 41<162.437 400.411> 9 29<362.009 527.94> 341 43<139.48 487.94> 691 41<163.794 400.911> 691 29<351.509 527.94>
VStem: 98 41<61.9657 341.48 384.18 667.085>
LayerCount: 2
Fore
SplineSet
98 123 m 2xa4
 98 602 l 2
 98 700 159 734 224 732 c 2xb4
 528 720 l 1
 528 691 l 1x2c
 224 691 l 2
 165 691 139 661 139 602 c 2
 139 384 l 1
 488 377 l 1
 488 348 l 1
 139 341 l 1
 139 123 l 2
 139 44 188 38 234 38 c 2xb4
 528 38 l 1
 528 9 l 1x64
 234 -3 l 2
 168 -6 98 10 98 123 c 2xa4
EndSplineSet
Substitution2: "'c2sc' Capitals to Small Capitals in Latin lookup 17 subtable" e.smcp
EndChar

StartChar: L
Encoding: 76 76 41
Width: 558
VWidth: 0
Flags: W
HStem: 0 41<161.965 521> 712 20G<98 139>
VStem: 98 41<62.8451 732>
LayerCount: 2
Fore
SplineSet
98 126 m 2
 98 732 l 1
 139 732 l 1
 139 126 l 2
 139 47 188 41 234 41 c 2
 521 41 l 1
 521 0 l 1
 234 0 l 2
 168 0 98 13 98 126 c 2
EndSplineSet
Substitution2: "'c2sc' Capitals to Small Capitals in Latin lookup 17 subtable" l.smcp
EndChar

StartChar: F
Encoding: 70 70 42
Width: 576
VWidth: 0
Flags: HW
LayerCount: 2
Fore
SplineSet
98 0 m 25
 98 602 l 2
 98 700 159 734 224 732 c 2
 528 720 l 1
 528 691 l 1
 224 691 l 2
 165 691 139 661 139 602 c 2
 139 384 l 1
 488 377 l 1
 488 348 l 1
 139 341 l 1
 139 0 l 25
 98 0 l 25
EndSplineSet
Substitution2: "'c2sc' Capitals to Small Capitals in Latin lookup 17 subtable" f.smcp
EndChar

StartChar: K
Encoding: 75 75 43
Width: 592
VWidth: 0
Flags: HW
LayerCount: 2
Fore
SplineSet
98 0 m 1
 98 732 l 1
 139 732 l 1
 139 388 l 1
 268 388 l 1
 505 732 l 1
 555 732 l 1
 305 367 l 1
 555 0 l 1
 504 0 l 1
 267 346 l 1
 140 346 l 9
 140 0 l 17
 98 0 l 1
EndSplineSet
Substitution2: "'c2sc' Capitals to Small Capitals in Latin lookup 17 subtable" k.smcp
EndChar

StartChar: T
Encoding: 84 84 44
Width: 595
VWidth: 0
Flags: W
HStem: 0 21G<280 321> 0 21G<280 321> 691 41<46 280 321 561>
VStem: 280 41<0 691>
LayerCount: 2
Fore
SplineSet
46 691 m 1xb0
 46 732 l 1
 561 732 l 1
 561 691 l 1
 321 691 l 1
 321 0 l 1
 280 0 l 1
 280 691 l 1
 46 691 l 1xb0
EndSplineSet
Substitution2: "'c2sc' Capitals to Small Capitals in Latin lookup 17 subtable" t.smcp
EndChar

StartChar: P
Encoding: 80 80 45
Width: 582
VWidth: 0
Flags: HW
LayerCount: 2
Fore
SplineSet
74 0 m 1
 74 732 l 1
 358 732 l 2
 437 732 534 707 534 528 c 0
 534 322 432 314 358 314 c 0
 318 314 120 325 115 328 c 1
 115 0 l 1
 74 0 l 1
115 356 m 2
 358 356 l 2
 428 356 493 378 492 528 c 1
 491 674 420 690 358 690 c 2
 115 690 l 1
 115 356 l 2
EndSplineSet
Substitution2: "'c2sc' Capitals to Small Capitals in Latin lookup 17 subtable" p.smcp
EndChar

StartChar: R
Encoding: 82 82 46
Width: 580
VWidth: 0
Flags: HW
HStem: 0 21G<73.86 114.86 492.402 546.22> 0 21G<73.86 114.86 492.402 546.22> 315 43<134.164 343.24 387.6 446.239> 326 32<114.86 313.192> 690 42<114.86 442.678>
VStem: 74 41<0 326.2 357.88 690> 494 42<412.589 633.159>
DStem2: 387.6 315.86 343.24 314.84 0.448775 -0.893645<0 333.84>
LayerCount: 2
Fore
SplineSet
74 0 m 1x9e
 74 732 l 1
 362 732 l 2
 446 732 536 700 536 525 c 0
 536 336 445 319 388 316 c 1
 546 0 l 1
 503 0 l 1
 343 315 l 1xae
 308 316 118 324 115 326 c 1
 115 0 l 1
 74 0 l 1x9e
115 358 m 1x1e
 362 358 l 2
 430 358 494 373 494 525 c 0
 494 671 427 690 362 690 c 2
 115 690 l 1
 115 358 l 1x1e
EndSplineSet
Substitution2: "'c2sc' Capitals to Small Capitals in Latin lookup 17 subtable" r.smcp
EndChar

StartChar: U
Encoding: 85 85 47
Width: 680
VWidth: 0
Flags: HW
LayerCount: 2
Fore
SplineSet
98 320 m 2
 98 732 l 1
 139 732 l 1
 139 320 l 2
 139 35 230 36 360 36 c 3
 476 36 574 47 574 320 c 2
 574 732 l 1
 616 732 l 1
 616 320 l 2
 616 -3 481 -5 360 -5 c 3
 224 -5 98 -10 98 320 c 2
EndSplineSet
Substitution2: "'c2sc' Capitals to Small Capitals in Latin lookup 17 subtable" u.smcp
EndChar

StartChar: B
Encoding: 66 66 48
Width: 597
VWidth: 0
Flags: HW
LayerCount: 2
Fore
SplineSet
98 0 m 1
 98 732 l 1
 361 732 l 2
 508 732 551 645 551 547 c 0
 551 458 501 395 435 383 c 1
 479 373 555 318 555 204 c 0
 555 102 515 0 361 0 c 2
 98 0 l 1
140 42 m 1
 361 42 l 2
 429 42 514 67 514 206 c 0
 514 292 450 363 361 362 c 9
 140 362 l 1
 140 42 l 1
140 404 m 1
 361 404 l 2
 448 404 508 454 510 547 c 0
 513 658 449 691 361 691 c 2
 140 691 l 1
 140 404 l 1
EndSplineSet
Substitution2: "'c2sc' Capitals to Small Capitals in Latin lookup 17 subtable" b.smcp
EndChar

StartChar: N
Encoding: 78 78 49
Width: 670
VWidth: 0
Flags: W
HStem: 0 21G<98 139 551.023 605> 0 21G<98 139 551.023 605> 712 20G<98 153.916 564 605>
VStem: 98 41<0 655> 564 41<77 732>
DStem2: 141 732 139 655 0.544313 -0.838882<63.5053 779.712>
LayerCount: 2
Fore
SplineSet
98 0 m 1xb8
 98 732 l 1
 141 732 l 1
 564 77 l 1
 564 732 l 1
 605 732 l 1
 605 0 l 0
 564 0 l 1
 139 655 l 1
 139 0 l 1
 98 0 l 1xb8
EndSplineSet
AlternateSubs2: "'salt' Access All Alternates in Latin lookup 4-1" N.salt
Substitution2: "'c2sc' Capitals to Small Capitals in Latin lookup 17 subtable" n.smcp
EndChar

StartChar: X
Encoding: 88 88 50
Width: 575
VWidth: 0
Flags: W
HStem: 0 21G<59 118.865 484.073 544> 0 21G<59 118.865 484.073 544> 712 20G<56 115.903 488.915 549>
DStem2: 104 732 56 732 0.515184 -0.857079<0 385.185 448.608 829.334> 59 0 107 0 0.516901 0.856045<24.8113 405.017 468.364 855.095>
LayerCount: 2
Fore
SplineSet
56 732 m 1xa0
 104 732 l 1
 301 401 l 1
 501 732 l 1
 549 732 l 1
 328 366 l 1
 544 0 l 1
 496 0 l 1
 301 327 l 1
 107 0 l 1
 59 0 l 1
 274 366 l 1
 56 732 l 1xa0
EndSplineSet
AlternateSubs2: "'salt' Access All Alternates in Latin lookup 4-1" X.salt
Substitution2: "'c2sc' Capitals to Small Capitals in Latin lookup 17 subtable" x.smcp
EndChar

StartChar: Z
Encoding: 90 90 51
Width: 553
VWidth: 0
Flags: HW
LayerCount: 2
Fore
SplineSet
43 0 m 1
 43 41 l 1
 463 691 l 1
 43 691 l 1
 43 732 l 1
 516 732 l 1
 516 691 l 1
 96 41 l 1
 516 41 l 1
 516 0 l 1
 43 0 l 1
EndSplineSet
Substitution2: "'c2sc' Capitals to Small Capitals in Latin lookup 17 subtable" z.smcp
EndChar

StartChar: Y
Encoding: 89 89 52
Width: 622
VWidth: 0
Flags: HW
HStem: 0 21G<295.16 336.16> 0 21G<295.16 336.16> 712 20G<55.56 111.106 539.265 595.76>
VStem: 295 41<0 260>
DStem2: 100.92 732 55.56 732 0.452646 -0.89169<0 473.156> 315.66 310.38 336.16 260 0.481919 0.876216<0 482.556>
LayerCount: 2
Fore
SplineSet
56 732 m 1xb0
 101 732 l 1
 316 310 l 1
 550 732 l 1
 596 732 l 1
 336 260 l 1
 336 0 l 1
 295 0 l 1
 295 260 l 1
 56 732 l 1xb0
EndSplineSet
Substitution2: "'c2sc' Capitals to Small Capitals in Latin lookup 17 subtable" y.smcp
EndChar

StartChar: AE
Encoding: 198 198 59
Width: 928
VWidth: 0
Flags: HW
LayerCount: 2
Fore
SplineSet
37 0 m 1
 386 595 l 2
 452 709 493 735 594 732 c 1
 880 720 l 1
 880 691 l 1
 594 691 l 2
 501 691 511 655 510 596 c 1
 510 382 l 1
 840 376 l 1
 840 346 l 1
 510 340 l 1
 510 122 l 2
 510 43 559 39 605 39 c 2
 880 39 l 1
 880 9 l 1
 605 -4 l 2
 540 -7 469 8 469 121 c 2
 469 244 l 1
 227 244 l 1
 84 0 l 1
 37 0 l 1
250 284 m 1
 469 284 l 1
 469 655 l 1
 250 284 l 1
EndSplineSet
EndChar

StartChar: Eth
Encoding: 208 208 61
Width: 666
VWidth: 0
Flags: HW
LayerCount: 2
Fore
SplineSet
33 359 m 1
 33 387 l 1
 98 387 l 1
 98 732 l 1
 98 732 332 732 352 732 c 1
 578 732 611 513 611 363 c 0
 611 197 540 0 352 0 c 2
 98 0 l 1
 98 359 l 1
 33 359 l 1
139 42 m 1
 352 42 l 2
 507 42 569 214 569 364 c 0
 569 591 486 689 352 689 c 2
 139 689 l 1
 139 387 l 1
 292 387 l 1
 292 359 l 1
 139 359 l 1
 139 42 l 1
EndSplineSet
Substitution2: "'c2sc' Capitals to Small Capitals in Latin lookup 17 subtable" eth.smcp
EndChar

StartChar: Oslash
Encoding: 216 216 76
Width: 675
VWidth: 0
Flags: HW
LayerCount: 2
Fore
SplineSet
80 361 m 0
 80 704 181 737 353 737 c 0
 433 737 497 730 543 688 c 1
 571 732 l 1
 604 732 l 1
 563 668 l 1
 604 615 626 522 626 361 c 0
 626 38 533 -4 353 -4 c 0
 270 -4 206 3 161 43 c 1
 133 0 l 1
 101 0 l 1
 141 63 l 1
 101 115 80 204 80 361 c 0
121 361 m 0
 121 228 135 149 167 102 c 1
 520 653 l 1
 481 692 425 696 353 696 c 0
 210 696 121 685 121 361 c 0
185 80 m 1
 222 45 275 37 353 37 c 0
 519 37 585 81 585 361 c 0
 585 500 570 582 539 630 c 1
 185 80 l 1
EndSplineSet
Substitution2: "'c2sc' Capitals to Small Capitals in Latin lookup 17 subtable" oslash.smcp
EndChar

StartChar: ae
Encoding: 230 230 88
Width: 882
VWidth: 0
Flags: HW
LayerCount: 2
Fore
SplineSet
49 128 m 2
 49 161 l 2
 49 244 100 294 182 294 c 2
 182 294 417 293 417 294 c 2
 417 294 418 388 417 389 c 1
 417 455 388 503 304 504 c 0
 232 505 160 497 66 485 c 1
 66 512 l 1
 126 529 205 542 305 543 c 0
 369 544 425 516 446 453 c 1
 472 521 535 536 631 536 c 0
 753 536 834 533 834 357 c 0
 834 279 786 251 697 251 c 2
 459 251 l 1
 458 83 463 38 593 37 c 0
 685 36 749 43 824 54 c 1
 824 24 l 1
 743 1 676 -4 593 -4 c 0
 478 -4 454 39 435 66 c 1
 433 66 278 -4 182 -4 c 0
 109 -4 49 43 49 128 c 2
90 133 m 2
 90 61 138 38 182 37 c 0
 262 36 417 99 417 99 c 1
 417 264 l 1
 182 255 l 2
 114 252 90 212 90 161 c 2
 90 133 l 2
459 291 m 1
 697 291 l 2
 754 291 793 300 793 357 c 0
 793 492 751 495 632 495 c 0
 496 495 460 469 459 291 c 1
EndSplineSet
Substitution2: "'smcp' Lowercase to Small Capitals lookup 16-1" ae.smcp
EndChar

StartChar: ccedilla
Encoding: 231 231 89
Width: 500
VWidth: 0
Flags: HW
LayerCount: 2
Fore
SplineSet
62 266 m 0
 62 498 134 537 236 537 c 3
 288 537 379 524 444 510 c 1
 444 482 l 1
 444 482 325 496 236 496 c 3
 156 496 103 469 103 262 c 3
 103 74 155 35 236 35 c 3
 328 35 452 53 452 53 c 1
 452 23 l 17
 371 0 319 -5 236 -6 c 0
 137 -6 62 33 62 266 c 0
164 -154 m 25
 204 -146 l 17
 248 -137 270 -120 269 -36 c 1
 303 -36 l 17
 303 -137 284 -172 202 -172 c 2
 164 -172 l 9
 164 -154 l 25
EndSplineSet
Substitution2: "'smcp' Lowercase to Small Capitals lookup 16-1" ccedilla.smcp
EndChar

StartChar: eth
Encoding: 240 240 98
Width: 539
VWidth: 0
Flags: HW
LayerCount: 2
Fore
SplineSet
49 264 m 0
 49 434 92 531 227 531 c 2
 307 531 l 2
 366 531 413 500 424 482 c 1
 412 536 388 615 331 672 c 1
 176 610 l 1
 164 639 l 1
 303 695 l 1
 258 729 203 747 133 747 c 1
 133 783 l 1
 228 783 294 756 346 711 c 1
 470 760 l 1
 483 731 l 1
 371 687 l 1
 469 577 487 396 487 264 c 0
 487 65 414 0 307 0 c 2
 227 0 l 2
 90 0 49 85 49 264 c 0
90 264 m 0
 90 70 143 43 227 43 c 2
 307 43 l 2
 419 43 446 137 446 264 c 0
 446 388 430 490 307 490 c 2
 227 490 l 2
 146 490 90 453 90 264 c 0
EndSplineSet
Substitution2: "'smcp' Lowercase to Small Capitals lookup 16-1" eth.smcp
EndChar

StartChar: oslash
Encoding: 248 248 105
Width: 571
VWidth: 0
Flags: HW
LayerCount: 2
Fore
SplineSet
62 258 m 0
 62 475 121 536 285 536 c 0
 352 536 402 524 436 497 c 1
 461 531 l 1
 495 531 l 1
 456 479 l 1
 496 434 510 362 510 258 c 0
 510 63 457 -5 285 -5 c 0
 212 -5 162 8 127 36 c 1
 101 0 l 1
 69 0 l 1
 108 54 l 1
 73 96 62 162 62 258 c 0
103 258 m 0
 103 175 113 124 135 91 c 1
 411 464 l 1
 380 490 338 495 285 495 c 0
 168 495 103 475 103 258 c 0
153 70 m 1
 184 42 228 36 285 36 c 0
 406 36 469 63 469 258 c 0
 469 352 456 410 431 445 c 1
 153 70 l 1
EndSplineSet
Substitution2: "'smcp' Lowercase to Small Capitals lookup 16-1" oslash.smcp
EndChar

StartChar: thorn
Encoding: 254 254 106
Width: 559
VWidth: 0
Flags: HW
LayerCount: 2
Fore
SplineSet
86 -270 m 1
 86 782 l 1
 127 782 l 1
 127 471 l 17
 153 490 268 540 336 540 c 3
 472 540 510 403 510 267 c 0
 510 133 490 -10 336 -10 c 3
 291 -10 191 3 127 29 c 1
 127 -270 l 1
 86 -270 l 1
127 59 m 1
 209 36 262 32 336 31 c 1
 428 31 469 97 469 269 c 0
 469 426 415 499 336 499 c 1
 267 498 189 467 127 443 c 1
 127 59 l 1
EndSplineSet
Substitution2: "'smcp' Lowercase to Small Capitals lookup 16-1" thorn.smcp
EndChar

StartChar: Thorn
Encoding: 222 222 113
Width: 555
VWidth: 0
Flags: HW
LayerCount: 2
Fore
SplineSet
74 0 m 1
 74 243 74 486 74 729 c 1
 115 729 l 1
 115 588 l 1
 325 588 l 2
 404 588 501 554 501 375 c 0
 501 171 399 149 325 149 c 0
 281 150 182 151 115 162 c 1
 115 0 l 1
 74 0 l 1
115 190 m 2
 325 190 l 2
 405 190 460 228 460 377 c 1
 459 529 380 546 325 547 c 1
 115 547 l 1
 115 190 l 2
EndSplineSet
Substitution2: "'c2sc' Capitals to Small Capitals in Latin lookup 17 subtable" thorn.smcp
EndChar

StartChar: uni00B5
Encoding: 181 181 114
Width: 611
VWidth: 0
Flags: HW
LayerCount: 2
Fore
SplineSet
111 162 m 1
 111 532 l 1
 152 532 l 1
 152 162 l 2
 152 87 199 33 275 33 c 0
 360 33 409 53 484 92 c 1
 484 532 l 1
 525 532 l 1
 525 1 l 1
 498 1 l 1
 484 63 l 1
 425 26 356 -8 275 -8 c 0
 219 -8 177 16 152 51 c 1
 152 -270 l 1
 111 -270 l 1
 111 162 l 1
EndSplineSet
EndChar

StartChar: germandbls
Encoding: 223 223 115
Width: 567
VWidth: 0
Flags: HW
LayerCount: 2
Fore
SplineSet
74 0 m 1
 74 566 l 2
 74 682 145 777 287 777 c 3
 582 777 523 542 414 466 c 1
 346 413 302 396 302 348 c 1
 302 250 543 328 544 179 c 1
 544 132 l 2
 544 35 470 -8 386 -8 c 3
 318 -8 249 2 213 8 c 9
 213 38 l 17
 252 37 318 33 387 33 c 3
 476 33 502 90 503 132 c 2
 503 179 l 1
 504 288 261 202 261 348 c 3
 261 406 290 426 390 497 c 0
 423 520 453 564 460 608 c 1
 475 696 403 736 287 736 c 3
 184 736 115 680 115 566 c 2
 115 0 l 1
 74 0 l 1
EndSplineSet
Substitution2: "'smcp' Lowercase to Small Capitals lookup 16-1" germandbls.smcp
EndChar

StartChar: asciitilde
Encoding: 126 126 116
Width: 461
VWidth: 0
Flags: HW
LayerCount: 2
Fore
SplineSet
62 572 m 17
 98 603 128 633 172 633 c 3
 213 633 256 573 291 573 c 3
 330 573 364 604 388 622 c 9
 400 603 l 17
 369 573 337 538 291 538 c 3
 248 538 206 598 171 598 c 3
 133 598 108 575 72 553 c 9
 62 572 l 17
EndSplineSet
EndChar

StartChar: asciicircum
Encoding: 94 94 117
Width: 401
VWidth: 0
Flags: HW
LayerCount: 2
Fore
SplineSet
62 531 m 1
 189 661 l 1
 226 661 l 1
 341 531 l 1
 305 531 l 1
 207 631 l 1
 98 531 l 1
 62 531 l 1
189 661 m 1
226 661 m 1
EndSplineSet
EndChar

StartChar: grave
Encoding: 96 96 118
Width: 214
VWidth: 0
Flags: HW
LayerCount: 2
Fore
SplineSet
25 664 m 25
 74 664 l 25
 190 531 l 25
 158 531 l 25
 25 664 l 25
EndSplineSet
Substitution2: "'smcp' Lowercase to Small Capitals lookup 16-1" grave.smcp
EndChar

StartChar: dieresis
Encoding: 168 168 119
Width: 434
VWidth: 0
Flags: HW
LayerCount: 2
Fore
SplineSet
62 582 m 0
 62 598 74 610 90 610 c 0
 106 610 119 598 119 582 c 0
 119 566 106 553 90 553 c 0
 74 553 62 566 62 582 c 0
316 582 m 0
 316 598 329 610 345 610 c 0
 361 610 374 598 374 582 c 0
 374 566 361 553 345 553 c 0
 329 553 316 566 316 582 c 0
EndSplineSet
Substitution2: "'smcp' Lowercase to Small Capitals lookup 16-1" dieresis.smcp
EndChar

StartChar: acute
Encoding: 180 180 120
Width: 214
VWidth: 0
Flags: HW
LayerCount: 2
Fore
SplineSet
25 531 m 25
 141 664 l 25
 190 664 l 25
 57 531 l 25
 25 531 l 25
EndSplineSet
Substitution2: "'smcp' Lowercase to Small Capitals lookup 16-1" acute.smcp
EndChar

StartChar: cedilla
Encoding: 184 184 121
Width: 261
VWidth: 0
Flags: HW
LayerCount: 2
Fore
SplineSet
62 -156 m 25
 101 -147 l 17
 146 -138 167 -121 166 -37 c 1
 200 -37 l 17
 200 -138 181 -173 99 -173 c 2
 62 -173 l 9
 62 -156 l 25
EndSplineSet
EndChar

StartChar: exclam
Encoding: 33 33 122
Width: 263
VWidth: 0
Flags: HW
LayerCount: 2
Fore
SplineSet
101 16 m 2
 101 76 l 2
 101 86 106 92 117 92 c 2
 143 92 l 2
 153 92 159 85 159 76 c 2
 159 16 l 2
 159 6 152 0 143 0 c 2
 117 0 l 2
 108 0 101 7 101 16 c 2
107 731 m 1
 152 731 l 1
 146 196 l 1
 113 196 l 1
 107 731 l 1
EndSplineSet
Substitution2: "'smcp' Lowercase to Small Capitals lookup 16-1" exclam.smcp
EndChar

StartChar: degree
Encoding: 176 176 123
Width: 326
VWidth: 0
Flags: HW
LayerCount: 2
Fore
SplineSet
62 632 m 0
 62 689 108 735 164 735 c 0
 220 735 264 689 264 632 c 0
 264 575 220 530 164 530 c 0
 108 530 62 575 62 632 c 0
87 632 m 27
 87 590 122 556 164 556 c 27
 206 556 239 590 239 632 c 27
 239 674 206 709 164 709 c 27
 122 709 87 674 87 632 c 27
EndSplineSet
Substitution2: "'smcp' Lowercase to Small Capitals lookup 16-1" degree.smcp
EndChar

StartChar: period
Encoding: 46 46 124
Width: 206
VWidth: 0
Flags: HW
LayerCount: 2
Fore
SplineSet
74 16 m 2
 74 76 l 2
 74 86 80 92 91 92 c 2
 116 92 l 2
 127 92 132 86 132 76 c 2
 132 16 l 2
 132 5 125 0 116 0 c 2
 91 0 l 2
 82 0 74 7 74 16 c 2
EndSplineSet
EndChar

StartChar: periodcentered
Encoding: 183 183 125
Width: 266
VWidth: 0
Flags: HW
LayerCount: 2
Fore
SplineSet
105 369 m 2
 105 396 l 2
 105 406 110 412 121 412 c 2
 146 412 l 2
 157 412 163 406 163 396 c 2
 163 369 l 2
 163 358 155 353 146 353 c 2
 121 353 l 2
 112 353 105 360 105 369 c 2
EndSplineSet
Substitution2: "'smcp' Lowercase to Small Capitals lookup 16-1" periodcentered.smcp
EndChar

StartChar: comma
Encoding: 44 44 126
Width: 204
VWidth: 0
Flags: HW
LayerCount: 2
Fore
SplineSet
74 17 m 2
 74 76 l 2
 74 88 80 94 91 94 c 2
 115 94 l 2
 127 94 131 86 131 76 c 2
 131 -28 l 2
 131 -87 77 -75 77 -75 c 1
 77 -60 l 0
 97 -60 99 -48 99 -40 c 2
 99 0 l 1
 91 0 l 2
 82 0 74 6 74 17 c 2
EndSplineSet
EndChar

StartChar: bullet
Encoding: 256 8226 127
Width: 317
VWidth: 0
Flags: HW
LayerCount: 2
Fore
SplineSet
105 358 m 2
 105 404 l 2
 105 425 116 440 138 440 c 2
 179 440 l 2
 204 440 214 426 214 404 c 2
 214 358 l 2
 214 334 199 326 179 326 c 2
 138 326 l 2
 118 326 105 338 105 358 c 2
EndSplineSet
Substitution2: "'smcp' Lowercase to Small Capitals lookup 16-1" bullet.smcp
EndChar

StartChar: quoteleft
Encoding: 257 8216 128
Width: 203
VWidth: 0
Flags: HW
LayerCount: 2
Fore
SplineSet
70 578 m 2
 70 680 l 2
 70 748 130 734 130 734 c 1
 130 718 l 0
 107 719 106 702 106 693 c 2
 106 660 l 1
 115 660 l 2
 125 660 134 653 134 640 c 2
 134 578 l 2
 134 564 128 557 115 557 c 2
 88 557 l 2
 74 557 70 567 70 578 c 2
EndSplineSet
Substitution2: "'smcp' Lowercase to Small Capitals lookup 16-1" quoteleft.smcp
EndChar

StartChar: quoteright
Encoding: 258 8217 129
Width: 203
VWidth: 0
Flags: HW
LayerCount: 2
Fore
SplineSet
70 652 m 2
 70 715 l 2
 70 729 77 735 90 735 c 2
 116 735 l 2
 130 735 135 726 135 715 c 2
 134 612 l 2
 134 544 74 558 74 558 c 1
 74 575 l 0
 97 574 98 590 98 599 c 2
 98 633 l 1
 89 633 l 2
 79 633 70 639 70 652 c 2
EndSplineSet
Substitution2: "'smcp' Lowercase to Small Capitals lookup 16-1" quoteright.smcp
EndChar

StartChar: quotesinglbase
Encoding: 259 8218 130
Width: 203
VWidth: 0
Flags: HW
LayerCount: 2
Fore
SplineSet
70 19 m 2
 70 81 l 2
 70 95 76 102 89 102 c 2
 116 102 l 2
 130 102 134 92 134 81 c 2
 134 -22 l 2
 134 -90 74 -76 74 -76 c 1
 74 -59 l 0
 97 -60 98 -44 98 -35 c 2
 98 0 l 1
 89 0 l 2
 79 0 70 6 70 19 c 2
EndSplineSet
Substitution2: "'smcp' Lowercase to Small Capitals lookup 16-1" quotesinglbase.smcp
EndChar

StartChar: quotedblleft
Encoding: 260 8220 131
Width: 310
VWidth: 0
Flags: HW
LayerCount: 2
Fore
SplineSet
182 578 m 2
 182 680 l 2
 182 748 243 734 243 734 c 1
 243 718 l 0
 220 719 219 702 219 693 c 2
 219 660 l 1
 228 660 l 2
 238 660 247 653 247 640 c 2
 247 578 l 2
 247 564 241 557 228 557 c 2
 202 557 l 2
 188 557 182 567 182 578 c 2
64 578 m 2
 64 680 l 2
 64 748 124 734 124 734 c 1
 124 718 l 0
 101 719 100 702 100 693 c 2
 100 660 l 1
 108 660 l 2
 118 660 128 653 128 640 c 2
 128 578 l 2
 128 564 121 557 108 557 c 2
 82 557 l 2
 68 557 64 567 64 578 c 2
EndSplineSet
Substitution2: "'smcp' Lowercase to Small Capitals lookup 16-1" quotedblleft.smcp
EndChar

StartChar: quotedblright
Encoding: 261 8221 132
Width: 309
VWidth: 0
Flags: HW
LayerCount: 2
Fore
SplineSet
64 652 m 2
 64 715 l 2
 64 729 70 735 83 735 c 2
 109 735 l 2
 123 735 128 726 128 715 c 2
 128 612 l 2
 128 544 68 558 68 558 c 1
 68 575 l 0
 91 574 91 590 91 599 c 2
 91 633 l 1
 83 633 l 2
 73 633 64 639 64 652 c 2
182 652 m 2
 182 715 l 2
 182 729 189 735 202 735 c 2
 229 735 l 2
 243 735 247 726 247 715 c 2
 247 612 l 2
 247 544 186 558 186 558 c 1
 186 575 l 0
 209 574 211 590 211 599 c 2
 211 633 l 1
 202 633 l 2
 192 633 182 639 182 652 c 2
EndSplineSet
Substitution2: "'smcp' Lowercase to Small Capitals lookup 16-1" quotedblright.smcp
EndChar

StartChar: quotedblbase
Encoding: 262 8222 133
Width: 309
VWidth: 0
Flags: HW
LayerCount: 2
Fore
SplineSet
64 20 m 2
 64 82 l 2
 64 96 70 103 83 103 c 2
 109 103 l 2
 123 103 128 93 128 82 c 2
 128 -20 l 2
 128 -88 68 -74 68 -74 c 1
 68 -58 l 0
 91 -59 91 -42 91 -33 c 2
 91 1 l 1
 83 1 l 2
 73 1 64 7 64 20 c 2
182 20 m 2
 182 82 l 2
 182 96 189 103 202 103 c 2
 229 103 l 2
 243 103 247 93 247 82 c 2
 247 -20 l 2
 247 -88 186 -74 186 -74 c 1
 186 -58 l 0
 209 -59 211 -42 211 -33 c 2
 211 1 l 1
 202 1 l 2
 192 1 182 7 182 20 c 2
EndSplineSet
Substitution2: "'smcp' Lowercase to Small Capitals lookup 16-1" quotedblbase.smcp
EndChar

StartChar: colon
Encoding: 58 58 134
Width: 209
VWidth: 0
Flags: HW
LayerCount: 2
Fore
SplineSet
74 16 m 2
 74 76 l 2
 74 86 80 92 91 92 c 2
 116 92 l 2
 127 92 132 86 132 76 c 2
 132 16 l 2
 132 5 125 0 116 0 c 2
 91 0 l 2
 82 0 74 7 74 16 c 2
74 453 m 2
 74 514 l 2
 74 524 80 531 91 531 c 2
 116 531 l 2
 127 531 132 524 132 514 c 2
 132 453 l 2
 132 442 125 438 116 438 c 2
 91 438 l 2
 82 438 74 444 74 453 c 2
EndSplineSet
EndChar

StartChar: semicolon
Encoding: 59 59 135
Width: 206
VWidth: 0
Flags: HW
LayerCount: 2
Fore
SplineSet
74 17 m 2
 74 76 l 2
 74 87 81 94 91 94 c 2
 115 94 l 2
 126 94 131 86 131 76 c 2
 131 -28 l 2
 131 -87 77 -75 77 -75 c 1
 77 -60 l 0
 97 -60 99 -48 99 -40 c 2
 99 0 l 1
 91 0 l 2
 82 0 74 8 74 17 c 2
75 454 m 2
 75 515 l 2
 75 525 80 531 91 531 c 2
 116 531 l 2
 127 531 133 525 133 515 c 2
 133 454 l 2
 133 443 125 439 116 439 c 2
 91 439 l 2
 82 439 75 445 75 454 c 2
EndSplineSet
EndChar

StartChar: quotedbl
Encoding: 34 34 136
Width: 302
VWidth: 0
Flags: HW
LayerCount: 2
Fore
SplineSet
74 665 m 1
 74 732 l 1
 116 732 l 1
 116 665 l 1
 109 531 l 1
 83 531 l 1
 74 665 l 1
186 665 m 1
 186 732 l 1
 228 732 l 1
 228 665 l 1
 221 531 l 1
 195 531 l 1
 186 665 l 1
EndSplineSet
Substitution2: "'smcp' Lowercase to Small Capitals lookup 16-1" quotedbl.smcp
EndChar

StartChar: exclamdown.alt
Encoding: 263 -1 137
Width: 263
VWidth: 0
Flags: HW
LayerCount: 2
Fore
SplineSet
101 655 m 2
 101 715 l 2
 101 725 108 731 117 731 c 2
 143 731 l 2
 152 731 159 724 159 715 c 2
 159 655 l 2
 159 645 154 639 143 639 c 2
 117 639 l 2
 107 639 101 646 101 655 c 2
108 0 m 1
 114 535 l 1
 147 535 l 1
 153 0 l 1
 108 0 l 1
EndSplineSet
EndChar

StartChar: zero
Encoding: 48 48 138
Width: 655
VWidth: 0
Flags: HW
HStem: 0 41<178.012 481.187> 691 41<179.534 483.442>
VStem: 86 41<90.0155 640.875> 529 41<86.4844 643.676>
LayerCount: 2
Fore
SplineSet
86 162 m 10
 86 570 l 2
 86 678 163 732 258 732 c 2
 402 732 l 2
 524 732 570 659 570 570 c 26
 570 162 l 18
 570 43 501 0 402 0 c 2
 258 0 l 2
 167 0 86 42 86 162 c 10
127 162 m 2
 127 78 182 41 258 41 c 10
 402 41 l 18
 492 41 529 88 529 162 c 2
 529 570 l 2
 529 645 491 691 402 691 c 2
 258 691 l 2
 175 691 127 644 127 570 c 2
 127 162 l 2
EndSplineSet
Substitution2: "'dnom' Denominators lookup 0 subtable" zero.denominator
Substitution2: "'sups' Superscript lookup 2 subtable" zerosuperior
Substitution2: "'onum' Oldstyle Figures in Latin lookup 5-1" zero.oldstyle
Substitution2: "'tnum' Tabular Numbers in Latin lookup 7-1" zero.tnum
Substitution2: "'numr' Numerators lookup 9 subtable" zero.numerator
Substitution2: "'zero' Slashed Zero lookup 20-1" uni0338
Substitution2: "'sinf' Scientific Inferiors lookup 3-1" zeroinferior
Substitution2: "'frac' Diagonal Fractions lookup 13-1" zero.numerator
Substitution2: "'smcp' Lowercase to Small Capitals lookup 16-1" zero.smcp
EndChar

StartChar: one
Encoding: 49 49 139
Width: 356
VWidth: 0
Flags: HW
HStem: 0 21G<217.24 258.24> 0 21G<217.24 258.24> 712 20G<177.711 258.24>
VStem: 217 41<0 685.62>
LayerCount: 2
Fore
SplineSet
49 620 m 1xb0
 49 647 l 1
 217 732 l 1
 258 732 l 1
 258 0 l 1
 217 0 l 1
 217 686 l 1
 49 620 l 1xb0
EndSplineSet
Substitution2: "'dnom' Denominators lookup 0 subtable" one.denominator
Substitution2: "'sups' Superscript lookup 2 subtable" onesuperior
Substitution2: "'onum' Oldstyle Figures in Latin lookup 5-1" one.oldstyle
Substitution2: "'tnum' Tabular Numbers in Latin lookup 7-1" one.tnum
Substitution2: "'numr' Numerators lookup 9 subtable" one.numerator
Substitution2: "'sinf' Scientific Inferiors lookup 3-1" oneinferior
Substitution2: "'frac' Diagonal Fractions lookup 13-1" one.numerator
Substitution2: "'smcp' Lowercase to Small Capitals lookup 16-1" one.smcp
EndChar

StartChar: two
Encoding: 50 50 140
Width: 597
VWidth: 0
Flags: HW
HStem: 0 41<130.6 536.44> 700 42<126.915 421.973> 700 29<49.24 243.597>
VStem: 494 42<459.078 629.244>
LayerCount: 2
Fore
SplineSet
49 700 m 2xb0
 49 729 l 1xb0
 152 742 262 742 333 742 c 3
 479 742 536 649 536 532 c 3
 536 346 189 83 131 41 c 9
 536 41 l 25
 536 0 l 25
 56 0 l 25
 56 38 l 17
 158 115 494 367 494 533 c 3
 494 650 435 700 332 700 c 2xd0
 49 700 l 2xb0
EndSplineSet
Substitution2: "'dnom' Denominators lookup 0 subtable" two.denominator
Substitution2: "'sups' Superscript lookup 2 subtable" twosuperior
Substitution2: "'onum' Oldstyle Figures in Latin lookup 5-1" two.oldstyle
Substitution2: "'tnum' Tabular Numbers in Latin lookup 7-1" two.tnum
Substitution2: "'numr' Numerators lookup 9 subtable" two.numerator
Substitution2: "'sinf' Scientific Inferiors lookup 3-1" twoinferior
Substitution2: "'frac' Diagonal Fractions lookup 13-1" two.numerator
Substitution2: "'smcp' Lowercase to Small Capitals lookup 16-1" two.smcp
EndChar

StartChar: three
Encoding: 51 51 141
Width: 597
VWidth: 0
Flags: HW
HStem: -7 42<123.153 415.648> 10 25<44.26 131.8> 343 43<115.55 403.948> 350 29<104.6 317.51> 693 41<130.654 410.456> 693 25<36.6 117.35>
VStem: 465 41<84.9036 283.914 437.027 640.574>
LayerCount: 2
Fore
SplineSet
37 693 m 1x06
 37 718 l 1x06
 107 736 218 736 335 734 c 0
 451 732 506 661 506 569 c 2
 506 500 l 2
 506 406 438 372 405 365 c 1
 440 353 506 314 506 220 c 1
 506 161 l 2
 506 52 450 -7 328 -7 c 0x8a
 214 -7 99 -6 43 10 c 1
 44 35 l 1x42
 325 35 l 2
 395 35 463 55 463 161 c 2
 463 220 l 2
 463 313 384 341 328 343 c 2xa2
 105 350 l 2
 105 379 l 1x12
 328 386 l 1
 403 388 465 423 465 500 c 2
 465 569 l 2
 465 656 403 693 331 693 c 2x2a
 37 693 l 1x06
EndSplineSet
Substitution2: "'dnom' Denominators lookup 0 subtable" three.denominator
Substitution2: "'sups' Superscript lookup 2 subtable" threesuperior
Substitution2: "'onum' Oldstyle Figures in Latin lookup 5-1" three.oldstyle
Substitution2: "'tnum' Tabular Numbers in Latin lookup 7-1" three.tnum
Substitution2: "'numr' Numerators lookup 9 subtable" three.numerator
Substitution2: "'sinf' Scientific Inferiors lookup 3-1" threeinferior
Substitution2: "'frac' Diagonal Fractions lookup 13-1" three.numerator
Substitution2: "'smcp' Lowercase to Small Capitals lookup 16-1" three.smcp
EndChar

StartChar: four
Encoding: 52 52 142
Width: 584
VWidth: 0
Flags: HW
HStem: 204 42<82.86 428.9 469.9 518.139> 217 29<511.661 559.9> 712 20G<323.895 384.12>
VStem: 429 41<2 203.5 245.86 499.372> 448 22<519.628 547>
DStem2: 24.62 232.58 82.86 245.86 0.529538 0.848286<42.1055 588.74>
LayerCount: 2
Fore
SplineSet
25 233 m 1xb0
 336 732 l 1
 384 732 l 1
 83 246 l 1xb0
 429 246 l 1
 429 472 l 1x70
 448 547 l 1
 470 547 l 1x68
 470 246 l 1xb0
 560 246 l 1
 560 217 l 1x70
 470 204 l 1
 470 2 l 1
 429 2 l 1
 429 204 l 1
 44 204 l 1
 25 233 l 1xb0
EndSplineSet
Substitution2: "'dnom' Denominators lookup 0 subtable" four.denominator
Substitution2: "'sups' Superscript lookup 2 subtable" foursuperior
Substitution2: "'onum' Oldstyle Figures in Latin lookup 5-1" four.oldstyle
Substitution2: "'tnum' Tabular Numbers in Latin lookup 7-1" four.tnum
Substitution2: "'numr' Numerators lookup 9 subtable" four.numerator
Substitution2: "'sinf' Scientific Inferiors lookup 3-1" fourinferior
Substitution2: "'frac' Diagonal Fractions lookup 13-1" four.numerator
Substitution2: "'smcp' Lowercase to Small Capitals lookup 16-1" four.smcp
EndChar

StartChar: five
Encoding: 53 53 143
Width: 633
VWidth: 0
Flags: HW
HStem: -4 43<189.381 466.588> 11 28<93.82 271.683> 395 41<183.448 473.123> 691 41<155.46 539.82>
VStem: 95 38<287.1 344.112 382.34 401.561> 117 38<590.441 691> 520 41<94.7936 348.015>
LayerCount: 2
Fore
SplineSet
94 11 m 1x76
 94 39 l 1x76
 398 39 l 2
 468 39 520 87 520 168 c 2
 520 268 l 2
 520 312 510 395 397 395 c 2
 244 395 l 2
 191 395 133 349 133 287 c 1
 95 287 l 1xba
 117 732 l 17
 540 732 l 1
 540 691 l 1
 155 691 l 25
 140 382 l 1
 150 398 189 435 247 436 c 1
 314 438 367 436 398 436 c 0
 516 436 561 367 561 270 c 2
 561 166 l 2
 561 29 460 -4 398 -4 c 3xb6
 274 -4 187 -3 94 11 c 1x76
EndSplineSet
Substitution2: "'dnom' Denominators lookup 0 subtable" five.denominator
Substitution2: "'sups' Superscript lookup 2 subtable" fivesuperior
Substitution2: "'onum' Oldstyle Figures in Latin lookup 5-1" five.oldstyle
Substitution2: "'tnum' Tabular Numbers in Latin lookup 7-1" five.tnum
Substitution2: "'numr' Numerators lookup 9 subtable" five.numerator
Substitution2: "'sinf' Scientific Inferiors lookup 3-1" fiveinferior
Substitution2: "'frac' Diagonal Fractions lookup 13-1" five.numerator
Substitution2: "'smcp' Lowercase to Small Capitals lookup 16-1" five.smcp
EndChar

StartChar: six
Encoding: 54 54 144
Width: 631
VWidth: 0
Flags: HW
HStem: -1 41<205.882 479.728> 371 42<189.789 483.304> 371 27<121.18 313.246> 697 41<203.344 457.119> 697 29<343.009 534.38>
VStem: 80 41<185.02 371.16 398.42 562.422> 518 40<77.8061 335.632>
LayerCount: 2
Fore
SplineSet
80 384 m 0xc6
 80 644 163 738 252 738 c 0xd6
 353 738 461 735 534 726 c 1
 534 697 l 1x8e
 259 697 l 2
 144 697 122 500 121 398 c 1xb6
 206 408 323 413 397 413 c 0
 532 413 558 347 558 266 c 2
 558 148 l 2
 558 36 491 -1 397 -1 c 2
 268 -1 l 2
 159 -1 80 77 80 384 c 0xc6
121 371 m 1xa6
 121 236 136 40 268 40 c 2
 397 40 l 2
 455 40 518 56 518 149 c 2
 518 266 l 2
 518 356 463 371 397 371 c 2xc6
 121 371 l 1xa6
EndSplineSet
Substitution2: "'dnom' Denominators lookup 0 subtable" six.denominator
Substitution2: "'sups' Superscript lookup 2 subtable" sixsuperior
Substitution2: "'onum' Oldstyle Figures in Latin lookup 5-1" six.oldstyle
Substitution2: "'tnum' Tabular Numbers in Latin lookup 7-1" six.tnum
Substitution2: "'numr' Numerators lookup 9 subtable" six.numerator
Substitution2: "'sinf' Scientific Inferiors lookup 3-1" sixinferior
Substitution2: "'frac' Diagonal Fractions lookup 13-1" six.numerator
Substitution2: "'smcp' Lowercase to Small Capitals lookup 16-1" six.smcp
EndChar

StartChar: seven
Encoding: 55 55 145
Width: 538
VWidth: 0
Flags: HW
HStem: 0 21G<205.9 261.357> 0 21G<205.9 261.357> 691 41<36.6 450.7>
DStem2: 205.9 0 254.3 0 0.332754 0.943014<16.1053 733.081>
LayerCount: 2
Fore
SplineSet
37 691 m 1xa0
 37 732 l 1
 482 732 l 1
 501 700 l 1
 254 0 l 1
 206 0 l 1
 451 691 l 1
 37 691 l 1xa0
EndSplineSet
Substitution2: "'dnom' Denominators lookup 0 subtable" seven.denominator
Substitution2: "'sups' Superscript lookup 2 subtable" sevensuperior
Substitution2: "'onum' Oldstyle Figures in Latin lookup 5-1" seven.oldstyle
Substitution2: "'tnum' Tabular Numbers in Latin lookup 7-1" seven.tnum
Substitution2: "'numr' Numerators lookup 9 subtable" seven.numerator
Substitution2: "'sinf' Scientific Inferiors lookup 3-1" seveninferior
Substitution2: "'frac' Diagonal Fractions lookup 13-1" seven.numerator
Substitution2: "'smcp' Lowercase to Small Capitals lookup 16-1" seven.smcp
EndChar

StartChar: percent
Encoding: 37 37 146
Width: 954
VWidth: 0
Flags: HW
LayerCount: 2
Fore
SplineSet
52 474 m 2
 52 607 l 2
 52 692 80 732 181 732 c 2
 282 732 l 2
 380 732 409 692 409 607 c 2
 409 474 l 18
 409 389 381 349 280 349 c 2
 179 349 l 2
 81 349 52 389 52 474 c 2
84 474 m 2
 84 401 112 381 179 381 c 2
 280 381 l 2
 351 381 377 400 377 474 c 10
 377 607 l 2
 377 675 355 700 282 700 c 2
 181 700 l 2
 109 700 84 681 84 607 c 2
 84 474 l 2
237 0 m 1
 675 732 l 1
 713 732 l 1
 275 0 l 1
 237 0 l 1
546 128 m 2
 546 261 l 2
 546 346 574 386 675 386 c 2
 776 386 l 2
 874 386 903 346 903 261 c 2
 903 128 l 18
 903 43 875 3 774 3 c 2
 673 3 l 2
 575 3 546 43 546 128 c 2
578 128 m 2
 578 55 606 35 673 35 c 2
 774 35 l 2
 845 35 871 54 871 128 c 10
 871 261 l 2
 871 329 849 354 776 354 c 2
 675 354 l 2
 603 354 578 335 578 261 c 2
 578 128 l 2
EndSplineSet
Substitution2: "'smcp' Lowercase to Small Capitals lookup 16-1" percent.smcp
EndChar

StartChar: nine
Encoding: 57 57 147
Width: 631
VWidth: 0
Flags: HW
HStem: -4 41<173.916 428.896> 8 29<97.86 288.725> 321 42<148.936 442.451> 335 27<318.994 511.06> 694 41<152.512 426.358>
VStem: 74 40<398.068 655.894> 511 41<171.278 335.28 362.54 548.68>
LayerCount: 2
Fore
SplineSet
74 468 m 2x2e
 74 586 l 2
 74 698 141 735 235 735 c 2
 364 735 l 2
 473 735 552 657 552 350 c 0
 552 90 469 -4 380 -4 c 0xae
 279 -4 168 -3 98 8 c 1
 98 37 l 1x4e
 374 37 l 2
 489 37 510 233 511 335 c 1x9e
 426 325 309 321 235 321 c 0
 100 321 74 387 74 468 c 2x2e
114 468 m 2
 114 378 169 363 235 363 c 2x2e
 511 363 l 1x1e
 511 498 496 694 364 694 c 2
 235 694 l 2
 177 694 114 678 114 585 c 2
 114 468 l 2
EndSplineSet
Substitution2: "'dnom' Denominators lookup 0 subtable" nine.denominator
Substitution2: "'sups' Superscript lookup 2 subtable" ninesuperior
Substitution2: "'onum' Oldstyle Figures in Latin lookup 5-1" nine.oldstyle
Substitution2: "'tnum' Tabular Numbers in Latin lookup 7-1" nine.tnum
Substitution2: "'numr' Numerators lookup 9 subtable" nine.numerator
Substitution2: "'sinf' Scientific Inferiors lookup 3-1" nineinferior
Substitution2: "'frac' Diagonal Fractions lookup 13-1" nine.numerator
Substitution2: "'smcp' Lowercase to Small Capitals lookup 16-1" nine.smcp
EndChar

StartChar: eight
Encoding: 56 56 148
Width: 647
VWidth: 0
Flags: HW
HStem: 0 41<182.768 466.324> 354 40<175.56 473.053> 696 41<179.163 472.235>
VStem: 92 41<84.0615 310.881 428.896 650.552> 515 41<87.2146 320.162 435.606 650.97>
LayerCount: 2
Fore
SplineSet
92 154 m 2
 92 253 l 2
 92 328 148 360 187 364 c 1
 108 381 92 446 92 499 c 2
 92 564 l 2
 92 698 165 737 268 737 c 2
 394 737 l 2
 501 737 556 687 556 564 c 2
 556 499 l 2
 556 456 531 389 470 381 c 1
 535 364 556 308 556 252 c 2
 556 154 l 2
 556 24 457 0 393 0 c 2
 268 0 l 2
 96 0 92 113 92 154 c 2
133 151 m 2
 133 73 187 41 268 41 c 2
 393 41 l 2
 448 41 515 70 515 151 c 2
 515 256 l 2
 515 345 444 354 396 354 c 2
 257 354 l 2
 211 354 133 331 133 256 c 2
 133 151 l 2
133 494 m 2
 133 405 202 394 257 394 c 2
 396 394 l 2
 485 394 515 451 515 494 c 2
 515 562 l 2
 515 660 475 696 394 696 c 2
 268 696 l 2
 174 696 133 661 133 562 c 2
 133 494 l 2
EndSplineSet
Substitution2: "'dnom' Denominators lookup 0 subtable" eight.denominator
Substitution2: "'sups' Superscript lookup 2 subtable" eightsuperior
Substitution2: "'onum' Oldstyle Figures in Latin lookup 5-1" eight.oldstyle
Substitution2: "'tnum' Tabular Numbers in Latin lookup 7-1" eight.tnum
Substitution2: "'numr' Numerators lookup 9 subtable" eight.numerator
Substitution2: "'sinf' Scientific Inferiors lookup 3-1" eightinferior
Substitution2: "'frac' Diagonal Fractions lookup 13-1" eight.numerator
Substitution2: "'smcp' Lowercase to Small Capitals lookup 16-1" eight.smcp
EndChar

StartChar: quotesingle
Encoding: 39 39 149
Width: 137
VWidth: 0
Flags: HW
LayerCount: 2
Fore
SplineSet
48 665 m 1
 48 732 l 1
 90 732 l 1
 90 665 l 1
 83 531 l 1
 56 531 l 1
 48 665 l 1
EndSplineSet
Substitution2: "'smcp' Lowercase to Small Capitals lookup 16-1" quotesingle.smcp
EndChar

StartChar: onesuperior
Encoding: 185 185 150
Width: 260
VWidth: 117
Flags: HW
LayerCount: 2
Fore
SplineSet
20 771 m 1
 20 794 l 1
 148 849 l 1
 181 849 l 1
 181 373 l 1
 148 373 l 1
 148 814 l 1
 20 771 l 1
EndSplineSet
EndChar

StartChar: twosuperior
Encoding: 178 178 151
Width: 402
VWidth: 117
Flags: HW
LayerCount: 2
Fore
SplineSet
39 822 m 2
 37 822 38 846 39 845 c 1
 105 853 150 855 222 855 c 3
 320 855 352 797 352 719 c 3
 352 596 141 438 102 406 c 9
 351 406 l 25
 351 373 l 25
 42 373 l 25
 42 402 l 17
 109 456 317 608 317 716 c 3
 317 780 297 822 214 822 c 2
 39 822 l 2
EndSplineSet
EndChar

StartChar: threesuperior
Encoding: 179 179 152
Width: 426
VWidth: 117
Flags: HW
LayerCount: 2
Fore
SplineSet
37 817 m 1
 37 839 l 1
 87 852 156 850 232 850 c 0
 319 850 353 798 353 738 c 2
 353 703 l 2
 353 649 306 618 282 613 c 1
 305 605 353 574 353 516 c 2
 353 488 l 2
 353 417 326 369 227 369 c 0
 153 369 88 369 41 382 c 1
 41 402 l 1
 219 402 l 2
 291 402 320 423 320 492 c 2
 320 515 l 2
 320 572 269 597 223 598 c 2
 81 602 l 2
 81 625 l 1
 223 630 l 2
 279 632 321 659 321 706 c 2
 321 737 l 2
 321 801 276 817 228 817 c 2
 37 817 l 1
EndSplineSet
EndChar

StartChar: ordmasculine
Encoding: 186 186 153
Width: 384
VWidth: 0
Flags: HW
LayerCount: 2
Fore
SplineSet
37 550 m 0
 37 692 66 737 193 737 c 3
 320 737 347 692 347 550 c 0
 347 422 320 373 193 373 c 3
 66 373 37 422 37 550 c 0
48 284 m 1
 48 312 l 1
 337 312 l 1
 337 284 l 1
 48 284 l 1
68 550 m 0
 68 428 100 405 193 405 c 3
 283 405 314 421 315 550 c 0
 316 682 290 705 193 705 c 3
 100 705 68 690 68 550 c 0
EndSplineSet
Ligature2: "'ordn' Ordinals lookup 21-1" o
Substitution2: "'smcp' Lowercase to Small Capitals lookup 16-1" ordmasculine.smcp
EndChar

StartChar: ordfeminine
Encoding: 170 170 154
Width: 361
VWidth: 0
Flags: HW
HStem: 283 28<36.6 324.76> 374 32<89.6015 209.855> 571 28<94.8187 291.12> 709 30<81.0478 261.984>
VStem: 37 32<425.261 549.891> 291 32<441.55 577.1 598.629 680.535> 303 20<378 408.901>
LayerCount: 2
Fore
SplineSet
37 283 m 1xf8
 37 311 l 1
 325 311 l 1
 325 283 l 1
 37 283 l 1xf8
37 463 m 10
 37 509 l 2
 37 563 75 599 137 599 c 2
 137 599 291 598 291 599 c 0
 291 599 292 630 291 631 c 2
 291 684 261 709 199 709 c 0
 145 709 111 705 49 696 c 9
 49 717 l 17
 93 728 132 738 207 739 c 0
 270 740 323 709 323 636 c 2xfc
 323 378 l 9
 303 378 l 25xfa
 291 427 l 17
 289 427 201 374 137 374 c 27
 85 374 37 405 37 463 c 10
69 469 m 2
 69 423 101 406 143 406 c 0
 203 406 291 448 291 448 c 9
 291 577 l 17
 143 571 l 1
 107 570 69 556 69 503 c 2
 69 469 l 2
EndSplineSet
Ligature2: "'ordn' Ordinals lookup 21-1" a
Substitution2: "'smcp' Lowercase to Small Capitals lookup 16-1" ordfeminine.smcp
EndChar

StartChar: slash
Encoding: 47 47 155
Width: 369
VWidth: 0
Flags: HW
LayerCount: 2
Fore
SplineSet
25 -72 m 1
 306 770 l 1
 345 770 l 1
 64 -72 l 1
 25 -72 l 1
EndSplineSet
Substitution2: "'numr' Numerators lookup 9 subtable" fraction
Substitution2: "'frac' Diagonal Fractions lookup 12-1" fraction
EndChar

StartChar: backslash
Encoding: 92 92 156
Width: 369
VWidth: 0
Flags: HW
LayerCount: 2
Fore
SplineSet
25 770 m 1
 64 770 l 1
 345 -72 l 1
 306 -72 l 1
 25 770 l 1
EndSplineSet
EndChar

StartChar: bar
Encoding: 124 124 157
Width: 250
VWidth: 0
Flags: HW
LayerCount: 2
Fore
SplineSet
106 -72 m 1
 106 770 l 1
 147 770 l 1
 147 -72 l 1
 106 -72 l 1
EndSplineSet
EndChar

StartChar: underscore
Encoding: 95 95 158
Width: 663
VWidth: 0
Flags: HW
LayerCount: 2
Fore
SplineSet
25 -1 m 1
 25 40 l 1
 639 40 l 1
 639 -1 l 1
 25 -1 l 1
EndSplineSet
EndChar

StartChar: hyphen
Encoding: 45 45 159
Width: 343
VWidth: 0
Flags: HW
LayerCount: 2
Fore
SplineSet
25 270 m 1
 25 310 l 1
 319 310 l 1
 319 270 l 1
 25 270 l 1
EndSplineSet
Substitution2: "'case' Case-Sensitive Forms lookup 1-1" hyphen.alt
Substitution2: "'c2sc' Capitals to Small Capitals in Latin lookup 17 subtable" hyphen.smcp
Substitution2: "'smcp' Lowercase to Small Capitals lookup 16-1" hyphen.smcp
EndChar

StartChar: numbersign
Encoding: 35 35 160
Width: 665
VWidth: 0
Flags: HW
LayerCount: 2
Fore
SplineSet
25 244 m 1
 29 269 l 1
 201 269 l 1
 231 461 l 1
 59 461 l 1
 64 486 l 1
 235 486 l 1
 274 732 l 1
 300 732 l 1
 260 486 l 1
 440 486 l 1
 478 732 l 1
 504 732 l 1
 465 486 l 1
 642 486 l 1
 638 461 l 1
 460 461 l 1
 430 268 l 1
 607 268 l 1
 603 243 l 1
 426 243 l 1
 388 0 l 1
 362 0 l 1
 401 243 l 1
 221 244 l 1
 183 0 l 1
 158 0 l 1
 196 244 l 1
 25 244 l 1
226 269 m 1
 405 268 l 1
 435 461 l 1
 256 461 l 1
 226 269 l 1
EndSplineSet
Substitution2: "'smcp' Lowercase to Small Capitals lookup 16-1" numbersign.smcp
EndChar

StartChar: dollar
Encoding: 36 36 161
Width: 581
VWidth: 0
Flags: HW
LayerCount: 2
Fore
SplineSet
68 494 m 2
 68 560 l 1
 69 708 153 740 270 738 c 1
 270 824 l 1
 301 824 l 1
 301 736 l 1
 360 732 444 722 484 717 c 1
 484 689 l 1
 425 692 262 697 262 697 c 2
 169 701 109 675 109 560 c 2
 109 494 l 1
 109 401 165 380 241 380 c 2
 354 380 l 2
 489 380 514 306 514 224 c 2
 514 156 l 2
 514 11 409 -11 301 -8 c 1
 301 -89 l 1
 270 -89 l 1
 270 -6 l 1
 209 -2 121 4 87 10 c 1
 87 39 l 1
 130 36 224 33 317 33 c 0
 395 33 473 51 473 156 c 2
 473 224 l 2
 473 299 442 338 354 338 c 2
 242 338 l 2
 90 338 68 420 68 494 c 2
EndSplineSet
Substitution2: "'smcp' Lowercase to Small Capitals lookup 16-1" dollar.smcp
EndChar

StartChar: zerosuperior
Encoding: 264 8304 162
Width: 495
VWidth: 117
Flags: HW
LayerCount: 2
Fore
SplineSet
74 482 m 2
 74 737 l 2
 74 821 120 847 191 847 c 2
 308 847 l 2
 391 847 421 804 421 737 c 10
 421 482 l 2
 421 386 372 372 308 372 c 2
 191 372 l 2
 132 372 74 382 74 482 c 2
107 486 m 2
 107 420 133 405 195 405 c 10
 304 405 l 18
 377 405 388 430 388 486 c 2
 388 733 l 2
 388 786 369 814 304 814 c 2
 195 814 l 2
 129 814 107 791 107 733 c 2
 107 486 l 2
EndSplineSet
EndChar

StartChar: foursuperior
Encoding: 265 8308 163
Width: 411
VWidth: 117
Flags: HW
LayerCount: 2
Fore
SplineSet
20 538 m 1
 216 847 l 1
 253 847 l 1
 70 558 l 1
 302 558 l 1
 302 679 l 1
 318 727 l 1
 335 727 l 1
 335 558 l 1
 394 558 l 1
 394 535 l 1
 335 523 l 1
 335 373 l 1
 302 373 l 1
 302 523 l 1
 30 523 l 1
 20 538 l 1
EndSplineSet
EndChar

StartChar: fivesuperior
Encoding: 266 8309 164
Width: 440
VWidth: 116
Flags: HW
LayerCount: 2
Fore
SplineSet
68 377 m 1
 68 402 l 1
 279 402 l 2
 331 402 359 430 359 486 c 2
 359 542 l 2
 359 582 354 620 281 620 c 0
 169 620 l 2
 130 620 98 591 97 555 c 1
 68 555 l 1
 83 847 l 25
 378 847 l 1
 378 814 l 1
 113 814 l 25
 102 614 l 1
 131 664 218 653 283 653 c 0
 360 653 392 617 392 546 c 2
 392 482 l 2
 392 400 346 368 283 368 c 0
 202 368 121 368 68 377 c 1
EndSplineSet
EndChar

StartChar: sixsuperior
Encoding: 267 8310 165
Width: 461
VWidth: 116
Flags: HW
LayerCount: 2
Fore
SplineSet
67 622 m 0
 69 819 125 849 189 852 c 1
 256 855 348 851 395 844 c 1
 395 819 l 1
 191 819 l 2
 116 819 101 727 100 627 c 1
 155 633 258 637 306 637 c 0
 394 637 411 601 411 550 c 2
 411 477 l 2
 411 405 367 372 306 372 c 2
 199 372 l 2
 127 372 65 409 67 622 c 0
100 604 m 1
 100 477 129 405 198 405 c 2
 304 405 l 2
 354 405 378 431 378 480 c 2
 378 548 l 2
 378 598 350 604 304 604 c 2
 100 604 l 1
EndSplineSet
EndChar

StartChar: sevensuperior
Encoding: 268 8311 166
Width: 374
VWidth: 117
Flags: HW
LayerCount: 2
Fore
SplineSet
18 816 m 1
 18 849 l 1
 343 849 l 1
 355 829 l 1
 172 373 l 1
 137 373 l 1
 314 816 l 1
 18 816 l 1
EndSplineSet
EndChar

StartChar: eightsuperior
Encoding: 269 8312 167
Width: 495
VWidth: 117
Flags: HW
LayerCount: 2
Fore
SplineSet
81 475 m 2
 81 533 l 2
 81 581 121 605 148 608 c 1
 97 619 81 661 81 695 c 2
 81 735 l 2
 81 827 130 852 197 852 c 2
 307 852 l 2
 377 852 415 821 415 735 c 2
 415 695 l 2
 415 668 400 623 352 617 c 1
 386 611 415 572 415 533 c 2
 415 475 l 2
 415 391 365 371 310 371 c 2
 190 371 l 2
 98 371 81 421 81 475 c 2
114 479 m 2
 114 425 134 404 194 404 c 2
 306 404 l 2
 354 404 382 423 382 479 c 2
 382 529 l 2
 382 577 343 596 314 596 c 2
 192 596 l 2
 146 596 114 571 114 530 c 2
 114 479 l 2
114 699 m 2
 114 649 149 629 186 629 c 2
 310 629 l 2
 352 629 382 658 382 699 c 2
 382 731 l 2
 382 803 354 819 298 819 c 2
 201 819 l 2
 141 819 114 799 114 731 c 2
 114 699 l 2
EndSplineSet
EndChar

StartChar: ninesuperior
Encoding: 270 8313 168
Width: 461
VWidth: 117
Flags: HW
LayerCount: 2
Fore
SplineSet
56 675 m 2
 56 748 l 2
 56 820 100 853 161 853 c 2
 268 853 l 2
 340 853 402 816 400 603 c 0
 398 406 343 376 278 373 c 0
 211 370 123 372 72 381 c 1
 72 406 l 1
 275 406 l 2
 351 406 366 498 367 598 c 1
 312 592 209 589 161 589 c 0
 73 589 56 624 56 675 c 2
89 677 m 2
 89 627 117 621 163 621 c 2
 367 621 l 1
 367 748 339 820 270 820 c 2
 163 820 l 2
 113 820 89 794 89 745 c 2
 89 677 l 2
EndSplineSet
EndChar

StartChar: zeroinferior
Encoding: 271 8320 169
Width: 495
VWidth: 0
Flags: HW
LayerCount: 2
Fore
SplineSet
74 -90 m 2
 74 165 l 2
 74 249 120 275 191 275 c 2
 308 275 l 2
 391 275 421 232 421 165 c 10
 421 -90 l 2
 421 -186 372 -200 308 -200 c 2
 191 -200 l 2
 132 -200 74 -190 74 -90 c 2
107 -86 m 2
 107 -152 133 -167 195 -167 c 10
 304 -167 l 18
 377 -167 388 -142 388 -86 c 2
 388 161 l 2
 388 214 369 242 304 242 c 2
 195 242 l 2
 129 242 107 219 107 161 c 2
 107 -86 l 2
EndSplineSet
EndChar

StartChar: oneinferior
Encoding: 272 8321 170
Width: 260
VWidth: 0
Flags: HW
LayerCount: 2
Fore
SplineSet
20 199 m 1
 20 222 l 1
 148 277 l 1
 181 277 l 1
 181 -199 l 1
 148 -199 l 1
 148 242 l 1
 20 199 l 1
EndSplineSet
EndChar

StartChar: twoinferior
Encoding: 273 8322 171
Width: 402
VWidth: 0
Flags: HW
LayerCount: 2
Fore
SplineSet
39 250 m 2
 37 250 38 274 39 273 c 1
 105 281 150 283 222 283 c 3
 320 283 352 225 352 147 c 3
 352 24 141 -134 102 -166 c 9
 351 -166 l 25
 351 -199 l 25
 42 -199 l 25
 42 -170 l 17
 109 -116 317 36 317 144 c 3
 317 208 297 250 214 250 c 2
 39 250 l 2
EndSplineSet
EndChar

StartChar: threeinferior
Encoding: 274 8323 172
Width: 426
VWidth: 0
Flags: HW
LayerCount: 2
Fore
SplineSet
37 245 m 1
 37 267 l 1
 87 280 156 278 232 278 c 0
 319 278 353 226 353 166 c 2
 353 131 l 2
 353 77 306 46 282 41 c 1
 305 33 353 2 353 -56 c 2
 353 -84 l 2
 353 -155 326 -203 227 -203 c 0
 153 -203 88 -203 41 -190 c 1
 41 -170 l 1
 219 -170 l 2
 291 -170 320 -149 320 -80 c 2
 320 -57 l 2
 320 0 269 25 223 26 c 2
 81 30 l 2
 81 53 l 1
 223 58 l 2
 279 60 321 87 321 134 c 2
 321 165 l 2
 321 229 276 245 228 245 c 2
 37 245 l 1
EndSplineSet
EndChar

StartChar: fourinferior
Encoding: 275 8324 173
Width: 411
VWidth: 0
Flags: HW
LayerCount: 2
Fore
SplineSet
20 -34 m 1
 216 275 l 1
 253 275 l 1
 70 -14 l 1
 302 -14 l 1
 302 107 l 1
 318 155 l 1
 335 155 l 1
 335 -14 l 1
 394 -14 l 1
 394 -37 l 1
 335 -49 l 1
 335 -199 l 1
 302 -199 l 1
 302 -49 l 1
 30 -49 l 1
 20 -34 l 1
EndSplineSet
EndChar

StartChar: fiveinferior
Encoding: 276 8325 174
Width: 440
VWidth: 0
Flags: HW
LayerCount: 2
Fore
SplineSet
68 -17 m 1
 83 275 l 25
 378 275 l 1
 378 242 l 1
 113 242 l 25
 102 42 l 1
 131 92 218 81 283 81 c 0
 360 81 392 45 392 -26 c 2
 392 -90 l 2
 392 -172 346 -204 283 -204 c 0
 202 -204 121 -204 68 -195 c 1
 68 -170 l 1
 279 -170 l 2
 331 -170 359 -142 359 -86 c 2
 359 -30 l 2
 359 10 354 48 281 48 c 0
 169 48 l 2
 130 48 98 19 97 -17 c 1
 68 -17 l 1
EndSplineSet
EndChar

StartChar: sixinferior
Encoding: 277 8326 175
Width: 461
VWidth: 0
Flags: HW
LayerCount: 2
Fore
SplineSet
67 50 m 0
 69 247 125 277 189 280 c 0
 256 283 346 280 395 272 c 1
 395 247 l 1
 191 247 l 2
 116 247 101 155 100 55 c 1
 155 61 258 65 306 65 c 0
 394 65 411 29 411 -22 c 2
 411 -95 l 2
 411 -167 367 -200 306 -200 c 2
 199 -200 l 2
 127 -200 65 -163 67 50 c 0
100 32 m 1
 100 -95 129 -167 198 -167 c 2
 304 -167 l 2
 354 -167 378 -141 378 -92 c 2
 378 -24 l 2
 378 26 350 32 304 32 c 2
 100 32 l 1
EndSplineSet
EndChar

StartChar: seveninferior
Encoding: 278 8327 176
Width: 374
VWidth: 0
Flags: HW
LayerCount: 2
Fore
SplineSet
18 244 m 1
 18 277 l 1
 343 277 l 1
 355 257 l 1
 172 -199 l 1
 137 -199 l 1
 314 244 l 1
 18 244 l 1
EndSplineSet
EndChar

StartChar: eightinferior
Encoding: 279 8328 177
Width: 495
VWidth: 0
Flags: HW
LayerCount: 2
Fore
SplineSet
81 -39 m 2
 81 9 121 33 148 36 c 1
 97 47 81 89 81 123 c 2
 81 163 l 2
 81 255 130 280 197 280 c 2
 307 280 l 2
 377 280 415 249 415 163 c 2
 415 123 l 2
 415 96 400 51 352 45 c 1
 386 39 415 0 415 -39 c 2
 415 -97 l 2
 415 -181 365 -201 310 -201 c 2
 190 -201 l 2
 98 -201 81 -151 81 -97 c 2
 81 -39 l 2
114 -42 m 2
 114 -93 l 2
 114 -147 134 -168 194 -168 c 2
 306 -168 l 2
 354 -168 382 -149 382 -93 c 2
 382 -43 l 2
 382 5 343 24 314 24 c 2
 192 24 l 2
 146 24 114 -1 114 -42 c 2
114 127 m 2
 114 77 149 57 186 57 c 2
 310 57 l 2
 352 57 382 86 382 127 c 2
 382 159 l 2
 382 231 354 247 298 247 c 2
 201 247 l 2
 141 247 114 227 114 159 c 2
 114 127 l 2
EndSplineSet
EndChar

StartChar: nineinferior
Encoding: 280 8329 178
Width: 461
VWidth: 0
Flags: HW
LayerCount: 2
Fore
SplineSet
56 103 m 2
 56 176 l 2
 56 248 100 281 161 281 c 2
 268 281 l 2
 340 281 402 244 400 31 c 0
 398 -166 343 -196 278 -199 c 0
 211 -202 122 -199 72 -191 c 1
 72 -166 l 1
 275 -166 l 2
 351 -166 366 -74 367 26 c 1
 312 20 209 17 161 17 c 0
 73 17 56 52 56 103 c 2
89 105 m 2
 89 55 117 49 163 49 c 2
 367 49 l 1
 367 176 339 248 270 248 c 2
 163 248 l 2
 113 248 89 222 89 173 c 2
 89 105 l 2
EndSplineSet
EndChar

StartChar: zero.oldstyle
Encoding: 281 -1 179
Width: 655
VWidth: 0
Flags: HW
HStem: 0 41<178.012 481.187> 590 41<179.534 483.442>
VStem: 86 41<90.0155 539.875> 529 41<86.4844 543.424>
LayerCount: 2
Fore
SplineSet
86 162 m 10
 86 469 l 2
 86 577 163 631 258 631 c 2
 402 631 l 2
 524 631 570 560 570 469 c 26
 570 162 l 18
 570 43 501 0 402 0 c 2
 258 0 l 2
 167 0 86 42 86 162 c 10
127 162 m 2
 127 78 182 41 258 41 c 10
 402 41 l 18
 492 41 529 88 529 162 c 2
 529 469 l 2
 529 544 491 590 402 590 c 2
 258 590 l 2
 175 590 127 543 127 469 c 2
 127 162 l 2
EndSplineSet
Substitution2: "'tnum' Tabular Numbers in Latin lookup 7-1" zero.tosf
Substitution2: "'lnum' Lining Figures lookup 19-1" zero
EndChar

StartChar: one.oldstyle
Encoding: 282 -1 180
Width: 350
VWidth: 0
Flags: HW
HStem: 0 21G<204.6 245.6> 0 21G<204.6 245.6>
VStem: 205 41<0 585.62>
LayerCount: 2
Fore
SplineSet
37 520 m 1xa0
 37 547 l 1
 205 632 l 1
 246 632 l 1
 246 0 l 1
 205 0 l 1
 205 586 l 1
 37 520 l 1xa0
EndSplineSet
Substitution2: "'tnum' Tabular Numbers in Latin lookup 7-1" one.tosf
Substitution2: "'lnum' Lining Figures lookup 19-1" one
EndChar

StartChar: two.oldstyle
Encoding: 283 -1 181
Width: 597
VWidth: 0
Flags: HW
HStem: 0 41<141.26 530.78> 598 40<126.344 427.114> 598 27<50.24 191.737>
VStem: 494 36<390.202 531.193>
LayerCount: 2
Fore
SplineSet
50 598 m 2xb0
 50 625 l 1xb0
 117 635 218 643 333 638 c 1
 473 638 536 564 536 451 c 3
 536 284 200 71 141 41 c 9
 530 41 l 25
 530 0 l 25
 56 0 l 25
 56 38 l 17
 160 94 494 301 494 453 c 3
 494 558 428 599 325 598 c 1xd0
 50 598 l 2xb0
EndSplineSet
Substitution2: "'tnum' Tabular Numbers in Latin lookup 7-1" two.tosf
Substitution2: "'lnum' Lining Figures lookup 19-1" two
EndChar

StartChar: three.oldstyle
Encoding: 284 -1 182
Width: 622
VWidth: 0
Flags: HW
HStem: -106 42<143.831 440.045> -89 25<68.22 156.633> 244 43<140.765 427.908> 251 29<129.88 341.535> 594 41<155.934 435.26> 594 25<61.88 142.63>
VStem: 489 42<-13.3031 187.525 338.067 541.614>
LayerCount: 2
Fore
SplineSet
62 594 m 1x06
 62 619 l 1x06
 132 637 243 637 360 635 c 0
 476 633 531 562 531 470 c 2
 531 401 l 2
 531 307 462 273 429 266 c 1
 464 254 531 215 531 121 c 1
 531 62 l 2
 531 -47 474 -106 352 -106 c 0x8a
 238 -106 124 -105 68 -89 c 1
 68 -64 l 1x42
 350 -64 l 2
 420 -64 487 -42 487 62 c 2
 487 121 l 2
 487 214 408 242 352 244 c 2xa2
 130 251 l 2
 130 280 l 1x12
 352 287 l 1
 427 289 489 324 489 401 c 2
 489 470 l 2
 489 557 428 594 356 594 c 2x2a
 62 594 l 1x06
EndSplineSet
Substitution2: "'tnum' Tabular Numbers in Latin lookup 7-1" three.tosf
Substitution2: "'lnum' Lining Figures lookup 19-1" three
EndChar

StartChar: four.oldstyle
Encoding: 285 -1 183
Width: 584
VWidth: 0
Flags: HW
HStem: 103 42<82.86 428.9 469.9 518.139> 116 29<511.661 559.9>
VStem: 429 41<-98.66 102.84 145.2 398.712> 448 22<418.968 446.34>
DStem2: 24.62 131.92 82.86 145.2 0.529538 0.848286<42.1055 588.74>
LayerCount: 2
Fore
SplineSet
25 132 m 1xa0
 336 631 l 1
 384 631 l 1
 83 145 l 1xa0
 429 145 l 1
 429 371 l 1x60
 448 446 l 1
 470 446 l 1x50
 470 145 l 1xa0
 560 145 l 1
 560 116 l 1x60
 470 103 l 1
 470 -99 l 1
 429 -99 l 1
 429 103 l 1
 44 103 l 1
 25 132 l 1xa0
EndSplineSet
Substitution2: "'tnum' Tabular Numbers in Latin lookup 7-1" four.tosf
Substitution2: "'lnum' Lining Figures lookup 19-1" four
EndChar

StartChar: five.oldstyle
Encoding: 286 -1 184
Width: 654
VWidth: 0
Flags: HW
HStem: -105 43<189.381 466.588> -90 28<93.82 271.683> 294 41<183.448 473.123> 590 41<155.46 539.82>
VStem: 95 38<186.44 243.452 281.68 300.901> 117 38<489.781 590.34> 520 41<-5.86638 247.355>
LayerCount: 2
Fore
SplineSet
94 -62 m 1x76
 398 -62 l 2
 468 -62 520 -14 520 67 c 2
 520 167 l 2
 520 211 510 294 397 294 c 2
 244 294 l 2
 191 294 133 248 133 186 c 1
 95 186 l 1xba
 117 631 l 17
 540 631 l 1
 540 590 l 1
 155 590 l 25
 140 282 l 1
 150 298 189 334 247 335 c 0
 314 337 367 335 398 335 c 0
 516 335 561 266 561 169 c 2
 561 65 l 2
 561 -72 460 -105 398 -105 c 3xb6
 274 -105 187 -104 94 -90 c 1
 94 -62 l 1x76
EndSplineSet
Substitution2: "'tnum' Tabular Numbers in Latin lookup 7-1" five.tosf
Substitution2: "'lnum' Lining Figures lookup 19-1" five
EndChar

StartChar: six.oldstyle
Encoding: 287 -1 185
Width: 631
VWidth: 0
Flags: HW
HStem: -1 41<205.882 479.728> 371 42<189.789 483.304> 371 27<121.18 313.246> 697 41<203.344 457.119> 697 29<343.009 534.38>
VStem: 80 41<185.02 371.16 398.42 562.422> 518 40<77.8061 335.632>
LayerCount: 2
Fore
SplineSet
80 384 m 0xc6
 80 644 163 738 252 738 c 0xd6
 353 738 461 735 534 726 c 1
 534 697 l 1x8e
 259 697 l 2
 144 697 122 500 121 398 c 1xb6
 206 408 323 413 397 413 c 0
 532 413 558 347 558 266 c 2
 558 148 l 2
 558 36 491 -1 397 -1 c 2
 268 -1 l 2
 159 -1 80 77 80 384 c 0xc6
121 371 m 1xa6
 121 236 136 40 268 40 c 2
 397 40 l 2
 455 40 518 56 518 149 c 2
 518 266 l 2
 518 356 463 371 397 371 c 2xc6
 121 371 l 1xa6
EndSplineSet
Substitution2: "'tnum' Tabular Numbers in Latin lookup 7-1" six.tosf
Substitution2: "'lnum' Lining Figures lookup 19-1" six
EndChar

StartChar: seven.oldstyle
Encoding: 288 -1 186
Width: 538
VWidth: 0
Flags: HW
HStem: 590 41<36.6 450.7>
DStem2: 205.9 -100.66 254.3 -100.66 0.332754 0.943014<16.1053 733.081>
LayerCount: 2
Fore
SplineSet
37 590 m 1
 37 631 l 1
 482 631 l 1
 501 600 l 1
 254 -101 l 1
 206 -101 l 1
 451 590 l 1
 37 590 l 1
EndSplineSet
Substitution2: "'tnum' Tabular Numbers in Latin lookup 7-1" seven.tosf
Substitution2: "'lnum' Lining Figures lookup 19-1" seven
EndChar

StartChar: eight.oldstyle
Encoding: 289 -1 187
Width: 647
VWidth: 0
Flags: HW
HStem: 0 41<182.768 466.324> 354 40<175.56 473.053> 696 41<179.163 472.235>
VStem: 92 41<84.0615 310.881 428.896 650.552> 515 41<87.2146 320.162 435.606 650.97>
LayerCount: 2
Fore
SplineSet
92 154 m 2
 92 253 l 2
 92 328 148 360 187 364 c 1
 108 381 92 446 92 499 c 2
 92 564 l 2
 92 698 165 737 268 737 c 2
 394 737 l 2
 501 737 556 687 556 564 c 2
 556 499 l 2
 556 456 531 389 470 381 c 1
 535 364 556 308 556 252 c 2
 556 154 l 2
 556 24 457 0 393 0 c 2
 268 0 l 2
 96 0 92 113 92 154 c 2
133 151 m 2
 133 73 187 41 268 41 c 2
 393 41 l 2
 448 41 515 70 515 151 c 2
 515 256 l 2
 515 345 444 354 396 354 c 2
 257 354 l 2
 211 354 133 331 133 256 c 2
 133 151 l 2
133 494 m 2
 133 405 202 394 257 394 c 2
 396 394 l 2
 485 394 515 451 515 494 c 2
 515 562 l 2
 515 660 475 696 394 696 c 2
 268 696 l 2
 174 696 133 661 133 562 c 2
 133 494 l 2
EndSplineSet
Substitution2: "'tnum' Tabular Numbers in Latin lookup 7-1" eight.tosf
Substitution2: "'lnum' Lining Figures lookup 19-1" eight
EndChar

StartChar: nine.oldstyle
Encoding: 290 -1 188
Width: 631
VWidth: 0
Flags: HW
HStem: -107 41<175.422 428.896> -95 29<97.86 289.357> 218 42<148.936 442.451> 233 27<318.994 511.06> 591 41<152.512 426.358>
VStem: 74 40<295.368 553.194> 511 41<68.5779 232.58 259.84 445.98>
LayerCount: 2
Fore
SplineSet
74 365 m 2x2e
 74 483 l 2
 74 595 141 632 235 632 c 2
 364 632 l 2
 473 632 552 554 552 247 c 0
 552 -13 469 -107 380 -107 c 0xae
 279 -107 171 -106 98 -95 c 1
 98 -66 l 1x4e
 374 -66 l 2
 489 -66 510 131 511 233 c 1x9e
 426 223 309 218 235 218 c 0
 100 218 74 284 74 365 c 2x2e
114 365 m 2
 114 275 169 260 235 260 c 2x2e
 511 260 l 1x1e
 511 395 496 591 364 591 c 2
 235 591 l 2
 177 591 114 575 114 482 c 2
 114 365 l 2
EndSplineSet
Substitution2: "'tnum' Tabular Numbers in Latin lookup 7-1" nine.tosf
Substitution2: "'lnum' Lining Figures lookup 19-1" nine
EndChar

StartChar: ampersand
Encoding: 38 38 189
Width: 647
VWidth: 0
Flags: HW
LayerCount: 2
Fore
SplineSet
87 82 m 1
 10 180 36 292 123 366 c 2
 209 439 l 1
 146 524 l 2
 67 631 142 713 215 727 c 0
 293 740 410 729 482 719 c 1
 482 693 l 1
 279 693 l 2
 188 693 108 643 186 538 c 2
 456 171 l 1
 597 310 l 1
 610 297 l 1
 548 203 l 1
 482 139 l 1
 584 0 l 1
 534 0 l 1
 452 111 l 1
 380 44 l 2
 300 -31 165 -22 87 82 c 1
121 106 m 0
 176 34 280 8 349 72 c 2
 426 144 l 1
 232 404 l 1
 154 339 l 18
 67 267 62 184 121 106 c 0
EndSplineSet
AlternateSubs2: "'salt' Access All Alternates in Latin lookup 4-1" ampersand.salt
Substitution2: "'smcp' Lowercase to Small Capitals lookup 16-1" ampersand.smcp
EndChar

StartChar: asterisk
Encoding: 42 42 190
Width: 459
VWidth: 0
Flags: HW
LayerCount: 2
Fore
SplineSet
62 583 m 1
 62 606 l 1
 203 618 l 1
 205 578 l 1
 62 583 l 1
138 411 m 1
 168 545 l 1
 209 537 l 1
 159 404 l 1
 138 411 l 1
196 721 m 1
 218 729 l 1
 287 608 l 1
 248 590 l 1
 196 721 l 1
228 489 m 1
 250 525 l 1
 366 439 l 1
 353 421 l 1
 228 489 l 1
272 558 m 1
 387 639 l 1
 399 619 l 1
 300 527 l 1
 272 558 l 1
EndSplineSet
Substitution2: "'smcp' Lowercase to Small Capitals lookup 16-1" asterisk.smcp
EndChar

StartChar: Euro
Encoding: 291 8364 191
Width: 600
VWidth: 0
Flags: HW
LayerCount: 2
Fore
SplineSet
25 266 m 1
 25 291 l 1
 113 296 l 1
 113 423 l 1
 25 428 l 1
 25 451 l 1
 113 457 l 1
 113 529 103 740 347 740 c 3
 399 740 502 730 572 717 c 1
 572 687 l 2
 572 687 430 700 347 699 c 1
 173 698 153 587 154 457 c 1
 421 452 l 1
 421 428 l 1
 154 423 l 1
 154 296 l 1
 421 291 l 1
 421 266 l 1
 421 266 151 263 154 261 c 1
 152 126 226 37 347 35 c 1
 452 33 576 49 576 49 c 1
 576 20 l 1
 495 0 431 -6 347 -6 c 3
 270 -6 113 35 113 261 c 1
 25 266 l 1
EndSplineSet
Substitution2: "'smcp' Lowercase to Small Capitals lookup 16-1" Euro.smcp
EndChar

StartChar: parenleft
Encoding: 40 40 192
Width: 321
VWidth: 60
Flags: HW
LayerCount: 2
Fore
SplineSet
92 326 m 0
 92 600 251 860 251 860 c 1
 297 860 l 1
 297 860 133 598 133 326 c 3
 133 26 297 -210 297 -210 c 1
 251 -210 l 1
 251 -210 92 10 92 326 c 0
EndSplineSet
Substitution2: "'case' Case-Sensitive Forms lookup 1-1" parenleft.alt
Substitution2: "'c2sc' Capitals to Small Capitals in Latin lookup 17 subtable" parenleft.smcp
Substitution2: "'smcp' Lowercase to Small Capitals lookup 16-1" parenleft.smcp
EndChar

StartChar: parenright
Encoding: 41 41 193
Width: 321
VWidth: 60
Flags: HW
LayerCount: 2
Fore
SplineSet
25 -210 m 1
 25 -210 188 26 188 326 c 3
 188 598 25 860 25 860 c 1
 70 860 l 1
 70 860 229 600 229 326 c 0
 229 10 70 -210 70 -210 c 1
 25 -210 l 1
EndSplineSet
Substitution2: "'case' Case-Sensitive Forms lookup 1-1" parenright.alt
Substitution2: "'c2sc' Capitals to Small Capitals in Latin lookup 17 subtable" parenright.smcp
Substitution2: "'smcp' Lowercase to Small Capitals lookup 16-1" parenright.smcp
EndChar

StartChar: plus
Encoding: 43 43 194
Width: 519
VWidth: 0
Flags: HW
LayerCount: 2
Fore
SplineSet
62 336 m 1
 62 376 l 1
 238 376 l 1
 238 554 l 1
 279 554 l 1
 279 376 l 1
 458 376 l 1
 458 336 l 1
 279 336 l 1
 279 158 l 1
 238 158 l 1
 238 336 l 1
 62 336 l 1
EndSplineSet
EndChar

StartChar: endash
Encoding: 292 8211 195
Width: 522
VWidth: 0
Flags: HW
LayerCount: 2
Fore
SplineSet
25 266 m 1
 25 308 l 1
 498 308 l 1
 498 266 l 1
 25 266 l 1
EndSplineSet
Substitution2: "'case' Case-Sensitive Forms lookup 1-1" endash.alt
Substitution2: "'c2sc' Capitals to Small Capitals in Latin lookup 17 subtable" endash.smcp
Substitution2: "'smcp' Lowercase to Small Capitals lookup 16-1" endash.smcp
EndChar

StartChar: emdash
Encoding: 293 8212 196
Width: 745
VWidth: 0
Flags: HW
LayerCount: 2
Fore
SplineSet
25 268 m 1
 25 310 l 1
 721 310 l 1
 721 268 l 1
 25 268 l 1
EndSplineSet
Substitution2: "'case' Case-Sensitive Forms lookup 1-1" emdash.alt
Substitution2: "'c2sc' Capitals to Small Capitals in Latin lookup 17 subtable" emdash.smcp
Substitution2: "'smcp' Lowercase to Small Capitals lookup 16-1" emdash.smcp
EndChar

StartChar: less
Encoding: 60 60 197
Width: 478
VWidth: 0
Flags: HW
LayerCount: 2
Fore
SplineSet
62 334 m 1
 62 375 l 1
 416 557 l 1
 416 512 l 1
 115 355 l 1
 416 187 l 1
 416 141 l 1
 62 334 l 1
EndSplineSet
EndChar

StartChar: equal
Encoding: 61 61 198
Width: 476
VWidth: 0
Flags: HW
LayerCount: 2
Fore
SplineSet
25 212 m 1
 25 253 l 1
 452 253 l 1
 452 212 l 1
 25 212 l 1
25 454 m 1
 25 495 l 1
 452 495 l 1
 452 454 l 1
 25 454 l 1
EndSplineSet
EndChar

StartChar: greater
Encoding: 62 62 199
Width: 478
VWidth: 0
Flags: HW
LayerCount: 2
Fore
SplineSet
62 141 m 1
 62 187 l 1
 363 355 l 1
 62 512 l 1
 62 557 l 1
 416 375 l 1
 416 334 l 1
 62 141 l 1
EndSplineSet
EndChar

StartChar: multiply
Encoding: 215 215 200
Width: 444
VWidth: 0
Flags: HW
LayerCount: 2
Fore
SplineSet
69 230 m 1
 195 356 l 1
 69 481 l 1
 98 511 l 1
 224 385 l 1
 350 511 l 1
 379 482 l 1
 253 356 l 1
 378 230 l 1
 349 201 l 1
 224 327 l 1
 98 201 l 1
 69 230 l 1
EndSplineSet
EndChar

StartChar: divide
Encoding: 247 247 201
Width: 539
VWidth: 0
Flags: HW
LayerCount: 2
Fore
SplineSet
62 332 m 1
 62 374 l 1
 478 374 l 1
 478 332 l 1
 62 332 l 1
245 164 m 2
 245 210 l 2
 245 220 250 226 261 226 c 2
 285 226 l 2
 295 226 301 219 301 210 c 2
 301 164 l 2
 301 154 294 148 285 148 c 2
 261 148 l 2
 252 148 245 155 245 164 c 2
245 487 m 2
 245 533 l 2
 245 543 250 550 261 550 c 2
 285 550 l 2
 295 550 301 542 301 533 c 2
 301 487 l 2
 301 477 294 471 285 471 c 2
 261 471 l 2
 252 471 245 478 245 487 c 2
EndSplineSet
EndChar

StartChar: question
Encoding: 63 63 202
Width: 535
VWidth: 0
Flags: HW
LayerCount: 2
Fore
SplineSet
25 698 m 2
 25 726 l 1
 111 736 193 741 287 739 c 1
 442 741 486 665 486 554 c 2
 486 453 l 2
 486 318 397 277 227 297 c 1
 227 195 l 1
 184 195 l 1
 184 331 l 1
 303 331 l 0
 388 332 445 364 445 453 c 2
 445 554 l 2
 445 660 397 698 282 698 c 2
 25 698 l 2
177 16 m 2
 177 76 l 2
 177 86 182 92 193 92 c 2
 219 92 l 2
 229 92 234 85 234 76 c 2
 234 16 l 2
 234 6 228 0 219 0 c 2
 193 0 l 2
 184 0 177 7 177 16 c 2
EndSplineSet
Substitution2: "'smcp' Lowercase to Small Capitals lookup 16-1" question.smcp
EndChar

StartChar: bracketleft
Encoding: 91 91 203
Width: 324
VWidth: 60
Flags: HW
LayerCount: 2
Fore
SplineSet
105 -38 m 2
 105 670 l 2
 105 730 120 842 241 842 c 2
 301 842 l 1
 301 801 l 1
 241 801 l 2
 185 801 146 760 146 670 c 2
 146 -38 l 2
 146 -111 173 -169 241 -169 c 2
 301 -169 l 1
 301 -210 l 1
 241 -210 l 2
 120 -210 105 -98 105 -38 c 2
EndSplineSet
EndChar

StartChar: bracketright
Encoding: 93 93 204
Width: 324
VWidth: 60
Flags: HW
LayerCount: 2
Fore
SplineSet
25 -169 m 1
 85 -169 l 2
 153 -169 180 -111 180 -38 c 2
 180 670 l 2
 180 760 141 801 85 801 c 2
 25 801 l 1
 25 842 l 1
 85 842 l 2
 206 842 221 730 221 670 c 2
 221 -38 l 2
 221 -98 206 -210 85 -210 c 2
 25 -210 l 1
 25 -169 l 1
EndSplineSet
EndChar

StartChar: braceleft
Encoding: 123 123 205
Width: 309
VWidth: 60
Flags: HW
LayerCount: 2
Fore
SplineSet
25 313 m 1
 25 354 l 1
 58 357 115 364 115 420 c 2
 115 656 l 2
 115 752 152 842 285 842 c 1
 285 801 l 1
 205 801 156 767 156 656 c 2
 156 420 l 2
 156 372 119 341 74 334 c 1
 119 328 155 293 155 251 c 2
 155 -38 l 2
 155 -135 201 -170 285 -169 c 1
 285 -210 l 1
 136 -210 114 -116 114 -38 c 2
 114 247 l 2
 114 293 65 316 25 313 c 1
EndSplineSet
EndChar

StartChar: braceright
Encoding: 125 125 206
Width: 309
VWidth: 60
Flags: HW
LayerCount: 2
Fore
SplineSet
25 -169 m 1
 109 -170 155 -135 155 -38 c 2
 155 251 l 2
 155 293 191 328 236 334 c 1
 191 341 154 372 154 420 c 2
 154 656 l 2
 154 767 105 801 25 801 c 1
 25 842 l 1
 158 842 195 752 195 656 c 2
 195 420 l 2
 195 364 252 357 285 354 c 1
 285 313 l 1
 245 316 196 293 196 247 c 2
 196 -38 l 2
 196 -116 174 -210 25 -210 c 1
 25 -169 l 1
EndSplineSet
EndChar

StartChar: at
Encoding: 64 64 207
Width: 858
VWidth: 0
Flags: HW
LayerCount: 2
Fore
SplineSet
80 0 m 2
 80 348 l 2
 80 384 82 512 248 512 c 10
 453 512 l 18
 524 512 606 482 606 372 c 2
 606 0 l 9
 577 0 l 25
 567 64 l 17
 565 64 449 -9 358 -9 c 1
 284 -11 229 40 230 108 c 10
 230 161 l 2
 230 241 276 294 359 294 c 8
 440 294 566 293 566 294 c 0
 566 294 567 369 566 370 c 2
 566 443 521 471 450 471 c 2
 248 471 l 2
 175 471 121 443 121 348 c 2
 121 0 l 2
 121 -108 190 -136 248 -136 c 10
 577 -136 l 2
 673 -136 713 -90 713 0 c 2
 713 512 l 2
 713 600 666 659 577 659 c 2
 183 659 l 9
 183 684 l 17
 231 694 345 701 471 700 c 0
 577 700 l 2
 683 698 754 637 754 512 c 10
 754 0 l 2
 754 -98 715 -178 577 -178 c 2
 248 -178 l 2
 146 -178 80 -116 80 0 c 2
271 114 m 2
 271 67 309 32 365 32 c 1
 424 31 516 68 566 92 c 9
 566 267 l 17
 364 255 l 2
 324 252 271 236 271 159 c 2
 270 158 270 115 271 114 c 2
EndSplineSet
Substitution2: "'case' Case-Sensitive Forms lookup 1-1" at.alt
Substitution2: "'smcp' Lowercase to Small Capitals lookup 16-1" at.smcp
EndChar

StartChar: breve
Encoding: 294 728 208
Width: 351
VWidth: 0
Flags: HW
LayerCount: 2
Fore
SplineSet
62 644 m 1
 87 644 l 1
 87 593 129 554 176 555 c 0
 228 556 267 591 267 644 c 1
 292 644 l 1
 292 568 231 530 176 530 c 0
 121 530 62 572 62 644 c 1
EndSplineSet
EndChar

StartChar: ogonek
Encoding: 295 731 209
Width: 246
VWidth: 0
Flags: HW
LayerCount: 2
Fore
SplineSet
142 0 m 1
 163 0 l 1
 62 -53 72 -152 185 -151 c 9
 185 -181 l 16
 70 -197 -7 -65 142 0 c 1
EndSplineSet
EndChar

StartChar: caron
Encoding: 296 711 210
Width: 401
VWidth: 0
Flags: HW
LayerCount: 2
Fore
SplineSet
62 661 m 1
 97 661 l 1
 199 561 l 1
 305 661 l 1
 341 661 l 1
 218 531 l 1
 180 531 l 1
 62 661 l 1
180 531 m 1
218 531 m 1
EndSplineSet
Substitution2: "'smcp' Lowercase to Small Capitals lookup 16-1" caron.smcp
EndChar

StartChar: hungarumlaut
Encoding: 297 733 211
Width: 356
VWidth: 0
Flags: HW
LayerCount: 2
Fore
SplineSet
25 531 m 25
 141 664 l 25
 190 664 l 25
 57 531 l 25
 25 531 l 25
162 531 m 25
 278 664 l 25
 328 664 l 25
 195 531 l 25
 162 531 l 25
EndSplineSet
EndChar

StartChar: dotaccent
Encoding: 298 729 212
Width: 179
VWidth: 0
Flags: HW
LayerCount: 2
Fore
SplineSet
58 571 m 2
 58 630 l 2
 58 640 63 646 74 646 c 2
 98 646 l 2
 108 646 114 639 114 630 c 2
 114 571 l 2
 114 561 107 555 98 555 c 2
 74 555 l 2
 65 555 58 562 58 571 c 2
EndSplineSet
EndChar

StartChar: Lcaron
Encoding: 300 317 214
Width: 558
VWidth: 0
Flags: HW
LayerCount: 2
Fore
SplineSet
98 126 m 2
 98 732 l 1
 139 732 l 1
 139 126 l 2
 139 47 188 41 234 41 c 2
 521 41 l 1
 521 0 l 1
 234 0 l 2
 168 0 98 13 98 126 c 2
222 705 m 1
 222 772 l 1
 263 772 l 1
 263 705 l 1
 256 571 l 1
 230 571 l 1
 222 705 l 1
EndSplineSet
Substitution2: "'c2sc' Capitals to Small Capitals in Latin lookup 17 subtable" lcaron.smcp
EndChar

StartChar: lcaron
Encoding: 309 318 223
Width: 298
VWidth: 0
Flags: HW
LayerCount: 2
Fore
SplineSet
74 189 m 2
 74 783 l 1
 115 783 l 1
 115 189 l 2
 115 70 145 50 195 41 c 2
 195 41 267 27 274 27 c 1
 274 0 l 1
 197 0 l 2
 114 0 74 48 74 189 c 2
207 715 m 1
 207 782 l 1
 248 782 l 1
 248 715 l 1
 241 581 l 1
 215 581 l 1
 207 715 l 1
EndSplineSet
Substitution2: "'smcp' Lowercase to Small Capitals lookup 16-1" lcaron.smcp
EndChar

StartChar: tcaron
Encoding: 313 357 227
Width: 347
VWidth: 0
Flags: HW
LayerCount: 2
Fore
SplineSet
25 491 m 1
 25 521 l 1
 114 532 l 1
 125 680 l 1
 155 680 l 1
 155 532 l 1
 323 532 l 1
 323 491 l 1
 155 491 l 1
 155 190 l 2
 155 57 198 49 235 42 c 2
 235 42 307 28 314 28 c 1
 314 1 l 1
 236 1 l 2
 160 1 114 49 114 190 c 2
 114 491 l 1
 25 491 l 1
230 754 m 1
 256 799 l 1
 272 776 l 1
 269 686 l 1
 247 598 l 1
 235 643 l 1
 230 754 l 1
EndSplineSet
AlternateSubs2: "'salt' Access All Alternates in Latin lookup 4-1" tcaron.salt
Substitution2: "'smcp' Lowercase to Small Capitals lookup 16-1" tcaron.smcp
EndChar

StartChar: dcaron
Encoding: 339 271 253
Width: 552
VWidth: 0
Flags: HW
LayerCount: 2
Fore
SplineSet
62 263 m 0
 62 399 92 539 243 539 c 3
 288 539 376 525 440 499 c 1
 440 785 l 1
 479 785 l 1
 479 0 l 1
 452 0 l 1
 439 59 l 17
 413 37 311 -6 243 -6 c 3
 98 -6 62 141 62 263 c 0
103 263 m 0
 103 99 165 35 243 35 c 3
 322 35 386 62 439 87 c 1
 439 469 l 1
 370 487 320 498 243 498 c 3
 166 498 103 456 103 263 c 0
537 737 m 1
 563 781 l 1
 579 759 l 1
 575 669 l 1
 553 580 l 1
 542 626 l 1
 537 737 l 1
EndSplineSet
AlternateSubs2: "'salt' Access All Alternates in Latin lookup 4-1" dcaron.salt
Substitution2: "'smcp' Lowercase to Small Capitals lookup 16-1" dcaron.smcp
EndChar

StartChar: Lslash
Encoding: 347 321 261
Width: 557
VWidth: 0
Flags: HW
LayerCount: 2
Fore
SplineSet
16 346 m 1
 16 381 l 1
 98 417 l 1
 98 732 l 1
 139 732 l 1
 139 434 l 1
 266 489 l 1
 266 456 l 1
 139 401 l 1
 139 126 l 2
 139 47 188 41 234 41 c 2
 521 41 l 1
 521 0 l 1
 234 0 l 2
 168 0 98 13 98 126 c 2
 98 382 l 1
 16 346 l 1
EndSplineSet
Substitution2: "'c2sc' Capitals to Small Capitals in Latin lookup 17 subtable" lslash.smcp
EndChar

StartChar: uni00AD
Encoding: 173 173 262
Width: 363
VWidth: 0
Flags: HW
LayerCount: 2
Fore
SplineSet
25 270 m 1
 25 310 l 1
 339 310 l 1
 339 270 l 1
 25 270 l 1
EndSplineSet
Substitution2: "'case' Case-Sensitive Forms lookup 1-1" uni00AD.alt
Substitution2: "'c2sc' Capitals to Small Capitals in Latin lookup 17 subtable" uni00AD.smcp
Substitution2: "'smcp' Lowercase to Small Capitals lookup 16-1" uni00AD.smcp
EndChar

StartChar: lslash
Encoding: 348 322 263
Width: 308
VWidth: 0
Flags: HW
LayerCount: 2
Fore
SplineSet
11 389 m 1
 11 423 l 1
 84 459 l 1
 84 783 l 1
 125 783 l 1
 125 478 l 1
 261 545 l 1
 260 511 l 1
 125 444 l 1
 125 189 l 2
 125 70 158 49 205 41 c 2
 205 41 277 27 284 27 c 1
 284 0 l 1
 207 0 l 2
 130 0 84 48 84 189 c 2
 84 425 l 1
 11 389 l 1
EndSplineSet
Substitution2: "'smcp' Lowercase to Small Capitals lookup 16-1" lslash.smcp
EndChar

StartChar: dcroat
Encoding: 350 273 265
Width: 552
VWidth: 0
Flags: HW
LayerCount: 2
Fore
SplineSet
62 263 m 0
 62 399 92 539 243 539 c 0
 288 539 376 525 440 499 c 1
 440 632 l 1
 312 632 l 1
 312 660 l 1
 440 660 l 1
 440 785 l 1
 479 785 l 1
 479 660 l 1
 559 660 l 1
 559 632 l 1
 479 632 l 1
 479 0 l 1
 453 0 l 1
 439 59 l 1
 413 37 311 -6 243 -6 c 0
 98 -6 62 141 62 263 c 0
103 263 m 0
 103 104 165 35 243 35 c 0
 322 35 386 62 439 87 c 1
 439 469 l 1
 370 487 320 498 243 498 c 0
 166 498 103 454 103 263 c 0
EndSplineSet
AlternateSubs2: "'salt' Access All Alternates in Latin lookup 4-1" dcroat.salt
Substitution2: "'smcp' Lowercase to Small Capitals lookup 16-1" dcroat.smcp
EndChar

StartChar: questiondown.alt
Encoding: 351 -1 266
Width: 535
VWidth: 0
Flags: HW
LayerCount: 2
Fore
SplineSet
49 178 m 2
 49 280 l 2
 49 415 138 456 308 436 c 1
 308 437 309 536 308 538 c 1
 351 538 l 1
 351 402 l 1
 331 402 252 403 232 402 c 0
 147 401 90 369 90 280 c 2
 90 178 l 2
 90 72 138 35 253 35 c 2
 510 35 l 2
 510 7 l 1
 424 -3 342 -8 248 -6 c 1
 93 -8 49 67 49 178 c 2
302 656 m 2
 302 717 l 2
 302 727 308 732 317 732 c 2
 343 732 l 2
 352 732 359 726 359 717 c 2
 359 656 l 2
 359 646 354 640 343 640 c 2
 317 640 l 2
 307 640 302 647 302 656 c 2
EndSplineSet
EndChar

StartChar: at.alt
Encoding: 352 -1 267
Width: 859
VWidth: 0
Flags: HW
LayerCount: 2
Fore
SplineSet
80 441 m 2
 80 477 83 605 249 605 c 10
 454 605 l 18
 525 605 607 575 607 465 c 2
 607 93 l 9
 577 93 l 25
 568 157 l 17
 566 157 450 84 359 84 c 1
 285 82 230 133 231 201 c 10
 231 254 l 2
 231 334 277 387 360 387 c 8
 441 387 566 386 566 387 c 0
 566 387 567 462 566 463 c 2
 566 536 522 564 451 564 c 2
 249 564 l 2
 176 564 122 536 122 441 c 2
 122 93 l 2
 122 -15 191 -43 249 -43 c 10
 578 -43 l 2
 674 -43 714 3 714 93 c 2
 714 605 l 2
 714 693 667 752 578 752 c 2
 184 752 l 9
 184 777 l 17
 232 787 346 794 472 793 c 0
 578 792 l 2
 684 790 755 730 755 605 c 10
 755 93 l 2
 755 -5 716 -85 578 -85 c 2
 249 -85 l 2
 147 -85 81 -23 81 93 c 2
 80 441 l 2
272 207 m 2
 272 160 310 125 366 125 c 1
 425 124 516 160 566 184 c 9
 566 360 l 17
 365 348 l 2
 325 345 272 329 272 252 c 2
 272 251 271 208 272 207 c 2
EndSplineSet
EndChar

StartChar: questiondown
Encoding: 191 191 268
Width: 534
VWidth: 0
Flags: HW
LayerCount: 2
Fore
SplineSet
49 19 m 1
 48 148 137 194 307 174 c 1
 307 175 308 274 307 276 c 1
 350 276 l 1
 350 140 l 1
 330 140 252 141 232 140 c 0
 147 139 95 101 94 17 c 1
 94 17 94 -77 94 -84 c 1
 94 -181 138 -228 252 -227 c 1
 510 -227 l 2
 509 -227 511 -255 510 -255 c 1
 424 -265 342 -270 248 -268 c 1
 87 -270 49 -189 49 -83 c 2
 49 19 l 1
300 395 m 1
 300 454 l 2
 300 464 307 470 316 470 c 1
 340 470 l 1
 349 470 356 464 356 455 c 2
 356 395 l 2
 356 385 351 379 341 379 c 1
 314 379 l 1
 304 380 300 386 300 395 c 1
EndSplineSet
Substitution2: "'case' Case-Sensitive Forms lookup 1-1" questiondown.alt
Substitution2: "'smcp' Lowercase to Small Capitals lookup 16-1" questiondown.smcp
EndChar

StartChar: oe
Encoding: 353 339 269
Width: 932
VWidth: 0
Flags: HW
LayerCount: 2
Fore
SplineSet
62 258 m 0
 62 475 121 536 285 536 c 0
 398 536 458 500 486 423 c 1
 512 519 572 535 681 535 c 0
 803 535 883 523 883 347 c 0
 883 269 836 242 747 242 c 2
 510 242 l 1
 509 70 558 36 643 36 c 0
 735 36 798 42 873 53 c 1
 873 23 l 1
 792 0 726 -6 643 -5 c 0
 555 -4 509 27 487 104 c 1
 459 25 398 -5 285 -5 c 0
 108 -5 62 68 62 258 c 0
103 258 m 0
 103 59 166 36 285 36 c 0
 416 36 468 73 468 261 c 0
 468 459 407 495 285 495 c 0
 168 495 103 476 103 258 c 0
510 282 m 1
 747 282 l 2
 799 282 842 290 842 347 c 0
 842 482 796 494 681 494 c 0
 551 494 508 471 510 282 c 1
EndSplineSet
Substitution2: "'smcp' Lowercase to Small Capitals lookup 16-1" oe.smcp
EndChar

StartChar: OE
Encoding: 354 338 270
Width: 1054
VWidth: 0
Flags: HW
LayerCount: 2
Fore
SplineSet
121 361 m 0
 121 77 181 37 353 37 c 0
 531 37 585 91 585 367 c 0
 585 669 509 696 353 696 c 0
 210 696 121 685 121 361 c 0
80 361 m 0
 80 704 182 737 353 737 c 0
 465 737 546 723 588 617 c 1
 594 703 648 735 711 732 c 2
 995 720 l 1
 995 691 l 1
 711 691 l 2
 652 691 626 661 626 602 c 2
 626 602 625 433 626 384 c 1
 955 377 l 1
 955 348 l 1
 626 341 l 1
 626 123 l 2
 626 44 675 38 721 38 c 2
 995 38 l 1
 995 9 l 1
 721 -3 l 2
 654 -6 594 11 587 112 c 1
 546 13 468 -4 353 -4 c 0
 173 -4 80 28 80 361 c 0
EndSplineSet
EndChar

StartChar: guillemotright
Encoding: 187 187 272
Width: 548
VWidth: 0
Flags: HW
LayerCount: 2
Fore
SplineSet
62 175 m 1
 244 354 l 1
 68 529 l 1
 96 558 l 1
 302 354 l 1
 91 145 l 1
 62 175 l 1
247 175 m 1
 429 354 l 1
 252 529 l 1
 282 558 l 1
 486 354 l 1
 276 145 l 1
 247 175 l 1
EndSplineSet
EndChar

StartChar: cent
Encoding: 162 162 273
Width: 488
VWidth: 0
Flags: HW
LayerCount: 2
Fore
SplineSet
49 266 m 0
 49 506 126 539 241 537 c 1
 241 623 l 1
 273 623 l 1
 273 534 l 1
 323 530 385 521 432 510 c 1
 432 482 l 1
 432 482 313 496 224 496 c 0
 144 496 90 469 90 262 c 0
 90 74 143 35 224 35 c 0
 316 35 439 53 439 53 c 1
 439 23 l 1
 375 4 331 -2 273 -4 c 1
 273 -87 l 1
 241 -87 l 1
 241 -6 l 1
 126 -7 49 23 49 266 c 0
EndSplineSet
EndChar

StartChar: sterling
Encoding: 163 163 274
Width: 599
VWidth: 0
Flags: HW
LayerCount: 2
Fore
SplineSet
62 0 m 1
 62 29 l 1
 134 41 l 1
 134 343 l 1
 62 343 l 1
 62 368 l 1
 134 379 l 1
 134 505 l 2
 134 719 231 732 362 732 c 3
 419 732 538 721 538 721 c 1
 538 692 l 1
 364 692 l 2
 234 692 175 678 175 505 c 2
 175 379 l 1
 458 368 l 1
 458 343 l 1
 175 343 l 1
 175 41 l 1
 536 41 l 1
 536 0 l 1
 62 0 l 1
EndSplineSet
Substitution2: "'smcp' Lowercase to Small Capitals lookup 16-1" sterling.smcp
EndChar

StartChar: yen
Encoding: 165 165 275
Width: 589
VWidth: 0
Flags: HW
LayerCount: 2
Fore
SplineSet
25 732 m 1
 71 732 l 1
 285 362 l 1
 516 732 l 1
 565 732 l 1
 306 321 l 1
 504 321 l 1
 504 292 l 1
 305 292 l 1
 305 212 l 1
 504 212 l 1
 504 183 l 1
 305 183 l 1
 305 0 l 1
 264 0 l 1
 264 183 l 1
 77 183 l 1
 77 212 l 1
 264 212 l 1
 264 292 l 1
 77 292 l 1
 77 321 l 1
 263 321 l 1
 25 732 l 1
EndSplineSet
Substitution2: "'smcp' Lowercase to Small Capitals lookup 16-1" yen.smcp
EndChar

StartChar: section
Encoding: 167 167 276
Width: 556
VWidth: 0
Flags: HW
LayerCount: 2
Fore
SplineSet
68 353 m 2
 68 415 l 2
 68 463 78 499 119 508 c 1
 80 517 68 555 68 590 c 2
 68 660 l 2
 68 758 134 784 198 784 c 3
 247 784 414 775 452 771 c 1
 452 743 l 1
 198 743 l 2
 132 743 109 711 109 660 c 2
 109 590 l 2
 109 536 143 526 198 526 c 2
 357 526 l 2
 470 526 491 490 490 416 c 2
 490 354 l 2
 490 318 486 270 441 265 c 1
 486 256 489 216 489 183 c 2
 489 110 l 2
 489 1 415 -8 351 -8 c 3
 302 -8 143 1 105 5 c 1
 105 33 l 1
 351 33 l 2
 410 33 448 48 448 110 c 2
 448 183 l 2
 448 236 435 246 357 246 c 2
 198 246 l 2
 118 246 68 251 68 353 c 2
109 353 m 2
 109 288 133 288 198 288 c 2
 357 288 l 2
 442 288 448 298 448 354 c 2
 449 355 448 416 448 416 c 2
 448 471 435 486 357 486 c 2
 198 486 l 2
 135 486 109 484 109 414 c 2
 109 353 l 2
EndSplineSet
EndChar

StartChar: g.salt
Encoding: 356 -1 277
Width: 560
VWidth: 0
Flags: HW
LayerCount: 2
Fore
SplineSet
62 268 m 3
 62 436 121 537 246 537 c 3
 352 537 439 525 486 521 c 1
 486 -104 l 2
 486 -228 397 -279 328 -272 c 2
 90 -248 l 1
 90 -222 l 1
 328 -232 l 2
 382 -235 445 -197 445 -104 c 2
 445 29 l 1
 381 3 291 -10 246 -10 c 3
 93 -10 62 110 62 268 c 3
103 268 m 3
 103 122 131 31 246 31 c 3
 320 31 362 42 445 63 c 1
 445 496 l 2
 246 496 l 2
 135 496 103 388 103 268 c 3
EndSplineSet
EndChar

StartChar: guillemotleft
Encoding: 171 171 278
Width: 548
VWidth: 0
Flags: HW
LayerCount: 2
Fore
SplineSet
62 354 m 1
 267 558 l 1
 296 529 l 1
 119 354 l 1
 302 175 l 1
 272 145 l 1
 62 354 l 1
247 354 m 1
 453 558 l 1
 481 529 l 1
 304 354 l 1
 486 175 l 1
 457 145 l 1
 247 354 l 1
EndSplineSet
EndChar

StartChar: paragraph
Encoding: 182 182 279
Width: 575
VWidth: 0
Flags: HW
LayerCount: 2
Fore
SplineSet
49 499 m 2
 49 592 l 2
 49 687 128 732 205 732 c 1
 550 732 l 1
 550 689 l 1
 481 689 l 1
 481 0 l 1
 440 0 l 1
 440 691 l 1
 300 691 l 1
 300 -270 l 1
 259 -270 l 1
 259 367 l 1
 252 363 234 354 205 355 c 0
 102 355 49 421 49 499 c 2
90 501 m 2
 90 408 177 396 205 396 c 10
 259 396 l 25
 259 691 l 25
 205 691 l 2
 127 691 90 643 90 590 c 10
 90 501 l 2
EndSplineSet
EndChar

StartChar: macron
Encoding: 175 175 280
Width: 388
VWidth: 0
Flags: HW
LayerCount: 2
Fore
SplineSet
62 531 m 1
 62 562 l 1
 327 562 l 1
 327 531 l 1
 62 531 l 1
EndSplineSet
Substitution2: "'smcp' Lowercase to Small Capitals lookup 16-1" macron.smcp
EndChar

StartChar: copyright
Encoding: 169 169 281
Width: 845
VWidth: 0
Flags: HW
LayerCount: 2
Fore
SplineSet
68 368 m 0
 68 531 112 732 304 732 c 2
 565 732 l 2
 761 732 778 492 778 368 c 0
 778 175 716 0 565 0 c 2
 304 0 l 2
 120 0 68 234 68 368 c 0
99 368 m 0
 98 216 162 31 304 31 c 2
 565 31 l 2
 666 31 747 146 747 368 c 0
 747 535 709 701 565 701 c 2
 304 701 l 2
 200 701 101 629 99 368 c 0
244 365 m 3
 244 526 307 583 388 583 c 3
 429 583 510 574 566 564 c 1
 566 540 l 1
 503 549 421 552 388 552 c 3
 318 552 275 496 275 362 c 3
 275 250 303 178 388 178 c 3
 460 178 529 185 572 194 c 1
 572 170 l 17
 508 152 455 147 388 147 c 3
 309 147 244 188 244 365 c 3
EndSplineSet
EndChar

StartChar: registered
Encoding: 174 174 282
Width: 845
VWidth: 0
Flags: HW
LayerCount: 2
Fore
SplineSet
68 368 m 0
 68 531 112 732 304 732 c 2
 565 732 l 2
 761 732 778 492 778 368 c 0
 778 175 716 0 565 0 c 2
 304 0 l 2
 120 0 68 234 68 368 c 0
99 368 m 0
 98 216 162 31 304 31 c 2
 565 31 l 2
 666 31 747 146 747 368 c 0
 747 535 709 701 565 701 c 2
 304 701 l 2
 200 701 101 629 99 368 c 0
277 153 m 1
 277 580 l 1
 454 580 l 2
 520 580 581 559 581 453 c 3
 581 338 508 342 475 338 c 1
 580 153 l 1
 544 153 l 1
 440 338 l 1
 308 345 l 1
 308 153 l 1
 277 153 l 1
308 366 m 1
 460 366 l 2
 523 366 550 379 550 452 c 3
 550 530 511 549 460 549 c 2
 308 549 l 1
 308 366 l 1
EndSplineSet
EndChar

StartChar: plusminus
Encoding: 177 177 283
Width: 532
VWidth: 0
Flags: HW
LayerCount: 2
Fore
SplineSet
69 120 m 1
 69 161 l 1
 465 161 l 1
 465 120 l 1
 69 120 l 1
69 403 m 1
 69 444 l 1
 246 444 l 1
 246 621 l 1
 287 621 l 1
 287 444 l 1
 465 444 l 1
 465 403 l 1
 287 403 l 1
 287 225 l 1
 246 225 l 1
 246 403 l 1
 69 403 l 1
EndSplineSet
EndChar

StartChar: logicalnot
Encoding: 172 172 284
Width: 530
VWidth: 0
Flags: HW
LayerCount: 2
Fore
SplineSet
62 272 m 1
 62 314 l 1
 468 314 l 1
 468 257 468 216 468 159 c 1
 427 159 l 1
 427 272 l 1
 62 272 l 1
EndSplineSet
EndChar

StartChar: guilsinglleft
Encoding: 357 8249 285
Width: 355
VWidth: 0
Flags: HW
LayerCount: 2
Fore
SplineSet
62 354 m 1
 268 557 l 1
 296 529 l 1
 118 354 l 1
 302 175 l 1
 272 146 l 1
 62 354 l 1
EndSplineSet
EndChar

StartChar: guilsinglright
Encoding: 358 8250 286
Width: 355
VWidth: 0
Flags: HW
LayerCount: 2
Fore
SplineSet
62 175 m 1
 244 354 l 1
 66 529 l 1
 96 557 l 1
 302 354 l 1
 90 146 l 1
 62 175 l 1
EndSplineSet
EndChar

StartChar: perthousand
Encoding: 359 8240 287
Width: 1379
VWidth: 0
Flags: HW
LayerCount: 2
Fore
SplineSet
52 474 m 2
 52 607 l 2
 52 692 80 732 181 732 c 2
 282 732 l 2
 380 732 409 692 409 607 c 2
 409 474 l 18
 409 389 381 349 280 349 c 2
 179 349 l 2
 81 349 52 389 52 474 c 2
84 474 m 2
 84 401 112 381 179 381 c 2
 280 381 l 2
 351 381 377 400 377 474 c 10
 377 607 l 2
 377 675 355 700 282 700 c 2
 181 700 l 2
 109 700 84 681 84 607 c 2
 84 474 l 2
237 0 m 1
 675 732 l 1
 713 732 l 1
 275 0 l 1
 237 0 l 1
546 128 m 2
 546 261 l 2
 546 346 574 386 675 386 c 2
 776 386 l 2
 874 386 903 346 903 261 c 2
 903 128 l 18
 903 43 875 3 774 3 c 2
 673 3 l 2
 575 3 546 43 546 128 c 2
578 128 m 2
 578 55 606 35 673 35 c 2
 774 35 l 2
 845 35 871 54 871 128 c 10
 871 261 l 2
 871 329 849 354 776 354 c 2
 675 354 l 2
 603 354 578 335 578 261 c 2
 578 128 l 2
971 128 m 2
 971 261 l 2
 971 346 999 386 1100 386 c 2
 1201 386 l 2
 1299 386 1328 346 1328 261 c 2
 1328 128 l 18
 1328 43 1300 3 1199 3 c 2
 1098 3 l 2
 1000 3 971 43 971 128 c 2
1003 128 m 2
 1003 55 1031 35 1098 35 c 2
 1199 35 l 2
 1270 35 1296 54 1296 128 c 10
 1296 261 l 2
 1296 329 1274 354 1201 354 c 2
 1100 354 l 2
 1028 354 1003 335 1003 261 c 2
 1003 128 l 2
EndSplineSet
Substitution2: "'smcp' Lowercase to Small Capitals lookup 16-1" perthousand.smcp
EndChar

StartChar: dagger
Encoding: 360 8224 288
Width: 393
VWidth: 0
Flags: HW
LayerCount: 2
Fore
SplineSet
25 504 m 1
 25 533 l 1
 175 540 l 1
 181 770 l 1
 212 770 l 1
 218 540 l 1
 369 533 l 1
 369 504 l 1
 218 497 l 1
 211 -72 l 1
 180 -72 l 1
 175 497 l 1
 25 504 l 1
EndSplineSet
EndChar

StartChar: daggerdbl
Encoding: 361 8225 289
Width: 417
VWidth: 0
Flags: HW
LayerCount: 2
Fore
SplineSet
25 187 m 1
 25 216 l 1
 177 223 l 1
 175 497 l 1
 25 504 l 1
 25 533 l 1
 175 540 l 1
 182 770 l 1
 212 770 l 1
 218 540 l 1
 369 533 l 1
 369 504 l 1
 218 497 l 1
 215 223 l 1
 369 216 l 1
 369 187 l 1
 214 180 l 1
 211 -72 l 1
 180 -72 l 1
 178 180 l 1
 25 187 l 1
EndSplineSet
EndChar

StartChar: trademark
Encoding: 362 8482 290
Width: 699
VWidth: 0
Flags: HW
LayerCount: 2
Fore
SplineSet
25 701 m 1
 25 732 l 1
 284 732 l 1
 284 701 l 1
 170 701 l 1
 170 383 l 1
 139 383 l 1
 139 701 l 1
 25 701 l 1
323 383 m 1
 350 732 l 1
 378 732 l 1
 506 436 l 1
 621 732 l 1
 651 732 l 1
 682 383 l 1
 652 383 l 1
 627 661 l 1
 519 383 l 1
 494 383 l 1
 374 662 l 1
 353 383 l 1
 323 383 l 1
EndSplineSet
EndChar

StartChar: notequal
Encoding: 363 8800 291
Width: 476
VWidth: 0
Flags: HW
LayerCount: 2
Fore
SplineSet
25 212 m 1
 25 255 l 1
 163 255 l 1
 283 452 l 1
 25 452 l 1
 25 495 l 1
 309 495 l 1
 355 570 l 1
 387 570 l 1
 341 495 l 1
 452 495 l 1
 452 452 l 1
 316 452 l 1
 196 255 l 1
 452 255 l 1
 452 212 l 1
 169 212 l 1
 117 126 l 1
 85 126 l 1
 137 212 l 1
 25 212 l 1
EndSplineSet
EndChar

StartChar: infinity
Encoding: 364 8734 292
Width: 809
VWidth: 0
Flags: HW
LayerCount: 2
Fore
SplineSet
62 341 m 3
 62 428 77 514 215 514 c 3
 291 514 366 437 404 379 c 1
 439 435 519 514 595 514 c 3
 733 514 748 421 748 341 c 3
 748 249 722 169 595 169 c 3
 509 169 441 240 404 307 c 1
 365 234 300 169 215 169 c 3
 88 169 62 249 62 341 c 3
103 341 m 3
 103 255 129 210 215 210 c 3
 296 210 355 294 385 342 c 1
 342 406 273 473 215 473 c 3
 122 473 103 432 103 341 c 3
423 342 m 1
 463 275 523 210 595 210 c 3
 688 210 707 266 707 341 c 3
 707 418 693 473 595 473 c 3
 537 473 461 401 423 342 c 1
EndSplineSet
EndChar

StartChar: lessequal
Encoding: 365 8804 293
Width: 498
VWidth: 0
Flags: HW
LayerCount: 2
Fore
SplineSet
62 120 m 1
 62 161 l 1
 439 161 l 1
 439 120 l 1
 62 120 l 1
62 414 m 1
 62 455 l 1
 416 637 l 1
 416 592 l 1
 115 435 l 1
 416 267 l 1
 416 221 l 1
 62 414 l 1
EndSplineSet
EndChar

StartChar: greaterequal
Encoding: 366 8805 294
Width: 498
VWidth: 0
Flags: HW
LayerCount: 2
Fore
SplineSet
62 120 m 1
 62 161 l 1
 439 161 l 1
 439 120 l 1
 62 120 l 1
83 221 m 1
 83 267 l 1
 384 435 l 1
 83 592 l 1
 83 637 l 1
 439 455 l 1
 439 414 l 1
 83 221 l 1
EndSplineSet
EndChar

StartChar: circumflex
Encoding: 367 710 295
Width: 401
VWidth: 0
Flags: HW
LayerCount: 2
Fore
SplineSet
62 531 m 1
 189 661 l 1
 226 661 l 1
 341 531 l 1
 305 531 l 1
 207 631 l 1
 98 531 l 1
 62 531 l 1
189 661 m 1
226 661 m 1
EndSplineSet
Substitution2: "'smcp' Lowercase to Small Capitals lookup 16-1" circumflex.smcp
EndChar

StartChar: tilde
Encoding: 368 732 296
Width: 461
VWidth: 0
Flags: HW
LayerCount: 2
Fore
SplineSet
62 572 m 17
 98 603 132 632 172 632 c 1
 215 631 261 572 292 572 c 1
 326 572 362 601 388 619 c 9
 400 600 l 17
 367 570 333 537 291 538 c 1
 244 539 205 598 171 598 c 1
 131 598 108 575 72 553 c 9
 62 572 l 17
EndSplineSet
Substitution2: "'smcp' Lowercase to Small Capitals lookup 16-1" tilde.smcp
EndChar

StartChar: ring
Encoding: 369 730 297
Width: 326
VWidth: 0
Flags: HW
LayerCount: 2
Fore
SplineSet
62 632 m 0
 62 689 108 735 164 735 c 0
 220 735 264 689 264 632 c 0
 264 575 220 530 164 530 c 0
 108 530 62 575 62 632 c 0
87 632 m 27
 87 590 122 556 164 556 c 27
 206 556 239 590 239 632 c 27
 239 674 206 709 164 709 c 27
 122 709 87 674 87 632 c 27
EndSplineSet
Substitution2: "'smcp' Lowercase to Small Capitals lookup 16-1" ring.smcp
EndChar

StartChar: fraction
Encoding: 371 8260 299
Width: 185
VWidth: 0
Flags: HW
LayerCount: 2
Fore
SplineSet
-111 0 m 1
 262 757 l 1
 296 757 l 1
 -77 0 l 1
 -111 0 l 1
EndSplineSet
EndChar

StartChar: dotlessi
Encoding: 372 305 300
Width: 188
VWidth: 0
Flags: HW
LayerCount: 2
Fore
SplineSet
74 0 m 1
 74 531 l 1
 115 531 l 1
 115 0 l 1
 74 0 l 1
EndSplineSet
EndChar

StartChar: fi
Encoding: 373 64257 301
Width: 598
VWidth: 0
Flags: HW
LayerCount: 2
Fore
SplineSet
25 487 m 1
 25 515 l 1
 123 528 l 1
 123 584 l 2
 123 702 186 786 306 786 c 0
 346 786 429 777 489 762 c 1
 489 736 l 1
 488 736 317 745 317 745 c 2
 234 749 164 705 164 584 c 2
 164 528 l 1
 531 520 l 1
 531 0 l 1
 490 0 l 1
 490 487 l 1
 164 487 l 1
 164 0 l 1
 123 0 l 1
 123 487 l 1
 25 487 l 1
EndSplineSet
Ligature2: "'liga' Standard Ligatures lookup 15-1" f i
EndChar

StartChar: fl
Encoding: 374 64258 302
Width: 719
VWidth: 0
Flags: HW
LayerCount: 2
Fore
SplineSet
25 490 m 1
 25 519 l 1
 123 531 l 1
 123 584 l 2
 123 692 167 786 287 786 c 1
 536 786 l 1
 536 191 l 2
 536 58 582 50 616 43 c 1
 616 43 688 29 695 29 c 1
 695 2 l 1
 621 2 l 2
 534 2 495 56 495 191 c 2
 495 746 l 1
 296 746 l 2
 217 746 164 704 164 584 c 2
 164 531 l 1
 311 531 l 1
 311 490 l 1
 163 490 l 1
 163 0 l 1
 122 0 l 1
 122 490 l 1
 25 490 l 1
EndSplineSet
Ligature2: "'liga' Standard Ligatures lookup 15-1" f l
EndChar

StartChar: exclamdown
Encoding: 161 161 303
Width: 267
VWidth: 0
Flags: HW
LayerCount: 2
Fore
SplineSet
102 386 m 2
 102 446 l 2
 102 456 109 460 118 460 c 1
 142 460 l 1
 151 460 158 454 158 445 c 2
 158 387 l 1
 158 378 153 369 142 369 c 1
 118 369 l 1
 107 369 102 376 102 386 c 2
108 -270 m 1
 114 264 l 1
 147 264 l 1
 153 -270 l 1
 108 -270 l 1
EndSplineSet
Substitution2: "'case' Case-Sensitive Forms lookup 1-1" exclamdown.alt
Substitution2: "'smcp' Lowercase to Small Capitals lookup 16-1" exclamdown.smcp
EndChar

StartChar: ampersand.salt
Encoding: 375 -1 304
Width: 940
VWidth: 0
Flags: HW
LayerCount: 2
Fore
SplineSet
54 286 m 2
 54 375 l 2
 54 512 131 532 265 532 c 1
 719 532 l 1
 732 680 l 1
 760 680 l 1
 760 531 l 1
 915 531 l 1
 915 504 l 1
 760 491 l 1
 760 187 l 2
 760 24 630 0 527 0 c 2
 383 0 l 0
 272 0 195 21 195 169 c 1
 135 169 54 191 54 286 c 2
95 286 m 1
 95 222 150 211 195 210 c 1
 195 327 239 392 350 392 c 2
 479 392 l 2
 540 392 609 391 609 281 c 0
 609 184 569 169 479 169 c 2
 236 169 l 1
 236 53 295 42 383 41 c 1
 527 41 l 2
 625 41 719 66 719 187 c 2
 719 491 l 1
 265 491 l 0
 149 491 95 482 95 375 c 1
 95 286 l 1
236 210 m 1
 479 210 l 2
 547 210 568 217 568 281 c 0
 568 342 548 351 479 351 c 2
 350 351 l 2
 282 351 236 329 236 210 c 1
EndSplineSet
EndChar

StartChar: a.superior
Encoding: 376 -1 305
Width: 368
VWidth: 0
Flags: HW
LayerCount: 2
Fore
SplineSet
38 463 m 10
 38 509 l 2
 38 563 76 599 138 599 c 2
 138 599 288 599 288 600 c 0
 288 600 289 630 288 631 c 2
 288 684 258 707 202 707 c 0
 148 707 108 706 50 700 c 9
 50 723 l 17
 100 734 130 737 205 739 c 1
 267 740 320 709 320 636 c 2
 320 378 l 9
 299 378 l 25
 288 434 l 17
 286 434 201 374 138 374 c 27
 86 374 38 405 38 463 c 10
71 467 m 2
 71 424 106 407 140 407 c 0
 200 407 288 456 288 456 c 9
 288 577 l 17
 140 568 l 1
 97 566 71 545 71 507 c 2
 71 467 l 2
EndSplineSet
EndChar

StartChar: b.superior
Encoding: 377 -1 306
Width: 388
VWidth: 0
Flags: HW
LayerCount: 2
Fore
SplineSet
47 378 m 1
 47 902 l 1
 80 902 l 1
 80 709 l 1
 128 729 185 739 219 739 c 3
 333 739 344 645 344 554 c 0
 344 472 325 374 216 374 c 3
 152 374 99 415 80 430 c 9
 68 378 l 1
 47 378 l 1
80 453 m 1
 113 436 154 407 213 407 c 3
 279 407 311 456 311 554 c 0
 311 672 284 706 215 706 c 3
 157 706 126 695 80 684 c 1
 80 453 l 1
EndSplineSet
Ligature2: "'ordn' Ordinals lookup 21-1" b
EndChar

StartChar: c.superior
Encoding: 378 -1 307
Width: 357
VWidth: 0
Flags: HW
LayerCount: 2
Fore
SplineSet
38 555 m 0
 38 710 92 737 169 737 c 3
 208 737 261 728 311 717 c 1
 311 694 l 1
 311 694 222 704 171 704 c 3
 111 704 71 689 71 553 c 3
 71 443 100 406 172 406 c 3
 247 406 316 419 316 419 c 1
 316 395 l 17
 270 380 231 374 169 373 c 0
 95 373 38 399 38 555 c 0
EndSplineSet
Ligature2: "'ordn' Ordinals lookup 21-1" c
EndChar

StartChar: d.superior
Encoding: 379 -1 308
Width: 386
VWidth: 0
Flags: HW
HStem: 374 33<116.161 237.016> 706 33<109.062 262.896>
VStem: 38 33<458.275 663.187> 303 33<444.318 688.431 709.34 902.68> 314 22<378 410.541>
LayerCount: 2
Fore
SplineSet
38 554 m 0xf0
 38 645 49 739 163 739 c 3
 197 739 255 729 303 709 c 1
 303 903 l 1
 336 903 l 1xf0
 336 378 l 1
 314 378 l 1xe8
 303 430 l 17
 284 415 230 374 166 374 c 3
 57 374 38 472 38 554 c 0xf0
71 554 m 0
 71 456 103 407 169 407 c 3
 228 407 270 436 303 453 c 1
 303 685 l 1
 257 696 226 706 168 706 c 3
 99 706 71 672 71 554 c 0
EndSplineSet
Ligature2: "'ordn' Ordinals lookup 21-1" d
EndChar

StartChar: e.superior
Encoding: 380 -1 309
Width: 388
VWidth: 0
Flags: HW
LayerCount: 2
Fore
SplineSet
38 557 m 0
 38 690 78 733 199 733 c 0
 275 733 345 727 345 608 c 0
 345 558 314 537 238 537 c 2
 71 537 l 1
 71 423 110 406 176 406 c 3
 245 406 280 409 337 419 c 1
 337 396 l 17
 276 379 232 373 170 373 c 0
 79 373 38 411 38 557 c 0
71 569 m 1
 236 569 l 2
 277 569 312 574 312 609 c 0
 312 681 287 700 199 700 c 0
 118 700 71 687 71 569 c 1
EndSplineSet
Ligature2: "'ordn' Ordinals lookup 21-1" e
EndChar

StartChar: f.superior
Encoding: 381 -1 310
Width: 326
VWidth: 0
Flags: HW
LayerCount: 2
Fore
SplineSet
32 687 m 1
 32 708 l 1
 106 718 l 1
 106 798 l 2
 106 834 113 903 203 903 c 0
 240 903 263 899 295 893 c 1
 295 871 l 1
 217 871 l 2
 154 871 139 844 139 794 c 2
 139 719 l 1
 263 719 l 1
 263 687 l 1
 139 687 l 9
 139 378 l 17
 106 378 l 1
 106 687 l 1
 32 687 l 1
EndSplineSet
Ligature2: "'ordn' Ordinals lookup 21-1" f
EndChar

StartChar: g.superior
Encoding: 382 -1 311
Width: 414
VWidth: 0
Flags: H
LayerCount: 2
Fore
SplineSet
43 291 m 2
 43 333 l 1
 57 392 l 1
 41 406 39 424 39 442 c 0
 39 467 57 494 105 497 c 1
 74 509 45 551 45 603 c 0
 45 689 93 732 166 732 c 2
 377 732 l 1
 377 714 l 1
 303 700 l 1
 319 693 347 658 347 603 c 3
 347 550 322 480 225 480 c 2
 132 480 l 2
 121 480 73 477 72 444 c 0
 71 422 82 409 110 406 c 2
 259 389 l 2
 318 382 357 357 357 303 c 2
 357 295 l 2
 357 254 345 186 256 186 c 2
 152 186 l 2
 88 186 43 220 43 291 c 2
75 300 m 2
 75 239 107 218 160 218 c 2
 249 218 l 2
 301 218 324 243 324 295 c 2
 324 300 l 2
 324 345 286 355 250 359 c 2
 109 375 l 2
 95 376 75 383 75 383 c 1
 75 300 l 2
78 603 m 0
 78 553 109 511 169 511 c 2
 221 511 l 2
 279 511 313 547 313 603 c 0
 313 656 285 700 232 700 c 1
 169 700 l 1
 93 700 78 646 78 603 c 0
EndSplineSet
Ligature2: "'ordn' Ordinals lookup 21-1" g
EndChar

StartChar: h.superior
Encoding: 383 -1 312
Width: 393
VWidth: 0
Flags: HW
LayerCount: 2
Fore
SplineSet
47 378 m 1
 47 901 l 1
 80 901 l 1
 80 685 l 1
 117 710 169 739 230 739 c 3
 311 739 346 684 346 625 c 2
 346 378 l 9
 313 378 l 17
 313 621 l 2
 313 677 273 706 226 706 c 27
 167 706 127 686 80 663 c 1
 80 378 l 1
 47 378 l 1
EndSplineSet
Ligature2: "'ordn' Ordinals lookup 21-1" h
EndChar

StartChar: i.superior
Encoding: 384 -1 313
Width: 129
VWidth: 0
Flags: HW
HStem: 714 20G<46.26 79.22> 781 64<41.9241 85.24>
VStem: 46 33<378 734 780.98 844.8>
LayerCount: 2
Fore
SplineSet
42 794 m 2
 42 830 l 2
 42 839 47 845 56 845 c 2
 72 845 l 2
 81 845 85 838 85 830 c 2
 85 794 l 2
 85 785 80 781 72 781 c 2
 56 781 l 2
 48 781 42 786 42 794 c 2
46 378 m 1
 46 734 l 1
 79 734 l 1
 79 378 l 1
 46 378 l 1
EndSplineSet
Ligature2: "'ordn' Ordinals lookup 21-1" i
EndChar

StartChar: j.superior
Encoding: 385 -1 314
Width: 131
VWidth: 0
Flags: HW
LayerCount: 2
Fore
SplineSet
43 795 m 2
 43 832 l 2
 43 841 48 846 57 846 c 2
 73 846 l 2
 82 846 86 840 86 832 c 2
 86 795 l 2
 86 786 81 782 73 782 c 2
 57 782 l 2
 49 782 43 787 43 795 c 2
47 196 m 1
 47 733 l 1
 81 733 l 1
 81 375 l 2
 82 317 78 251 68 196 c 1
 47 196 l 1
EndSplineSet
Ligature2: "'ordn' Ordinals lookup 21-1" j
EndChar

StartChar: k.superior
Encoding: 386 -1 315
Width: 358
VWidth: 0
Flags: HW
LayerCount: 2
Fore
SplineSet
47 378 m 1
 47 899 l 1
 80 899 l 1
 80 591 l 1
 129 591 l 1
 275 731 l 1
 321 731 l 1
 159 575 l 1
 325 378 l 1
 282 378 l 1
 131 558 l 1
 80 558 l 1
 80 378 l 1
 47 378 l 1
EndSplineSet
Ligature2: "'ordn' Ordinals lookup 21-1" k
EndChar

StartChar: l.superior
Encoding: 387 -1 316
Width: 245
VWidth: 0
Flags: HW
LayerCount: 2
Fore
SplineSet
46 504 m 2
 46 900 l 1
 79 900 l 1
 79 507 l 2
 79 431 103 417 146 410 c 2
 146 410 210 400 212 400 c 1
 212 378 l 1
 145 378 l 2
 72 378 46 419 46 504 c 2
EndSplineSet
Ligature2: "'ordn' Ordinals lookup 21-1" l
EndChar

StartChar: m.superior
Encoding: 388 -1 317
Width: 650
VWidth: 0
Flags: HW
LayerCount: 2
Fore
SplineSet
47 378 m 1
 47 732 l 1
 73 732 l 1
 80 684 l 1
 117 709 168 738 228 738 c 1
 278 738 315 716 331 684 c 1
 367 711 424 738 486 738 c 1
 563 738 603 686 603 624 c 2
 603 378 l 1
 570 378 l 1
 570 620 l 2
 570 675 530 705 483 705 c 1
 426 705 380 686 340 664 c 1
 345 653 347 634 347 621 c 2
 347 378 l 1
 314 378 l 1
 314 620 l 2
 314 675 274 705 227 705 c 1
 167 705 127 685 80 662 c 1
 80 378 l 1
 47 378 l 1
EndSplineSet
Ligature2: "'ordn' Ordinals lookup 21-1" m
EndChar

StartChar: n.superior
Encoding: 389 -1 318
Width: 393
VWidth: 0
Flags: HW
HStem: 706 33<150.488 279.698> 712 20G<46.58 74.9262>
VStem: 47 33<378 670.134> 47 25<688.334 732> 313 33<378 672.697>
LayerCount: 2
Fore
SplineSet
47 378 m 1xa8
 47 732 l 1
 72 732 l 1x58
 79 685 l 1
 116 710 169 739 230 739 c 3
 311 739 346 684 346 625 c 2
 346 378 l 9
 313 378 l 17
 313 622 l 2
 313 678 274 706 227 706 c 27
 167 706 127 686 80 663 c 1
 80 378 l 1
 47 378 l 1xa8
EndSplineSet
Ligature2: "'ordn' Ordinals lookup 21-1" n
EndChar

StartChar: o.superior
Encoding: 390 -1 319
Width: 393
VWidth: 0
Flags: HW
LayerCount: 2
Fore
SplineSet
38 550 m 0
 38 669 66 735 195 735 c 0
 321 735 348 670 348 550 c 0
 348 440 321 375 195 375 c 0
 67 375 38 438 38 550 c 0
71 550 m 0
 71 434 108 408 195 408 c 0
 292 408 316 451 316 550 c 0
 316 671 286 702 193 702 c 0
 95 702 71 660 71 550 c 0
EndSplineSet
EndChar

StartChar: p.superior
Encoding: 391 -1 320
Width: 387
VWidth: 0
Flags: HW
HStem: 370 33<118.297 272.649> 704 33<145.364 265.671>
VStem: 47 32<194.66 400.32 421.229 666.384> 47 22<698.244 732.68> 310 33<446.676 652.45>
LayerCount: 2
Fore
SplineSet
47 195 m 1xe8
 47 733 l 1
 69 733 l 1xd8
 79 681 l 17
 98 696 154 737 217 737 c 3
 324 737 343 638 343 556 c 0
 343 465 330 370 219 370 c 3
 186 370 126 380 79 400 c 1
 79 195 l 1
 47 195 l 1xe8
79 425 m 1xe8
 123 414 159 403 215 403 c 3
 283 403 310 437 310 556 c 0
 310 655 279 704 214 704 c 3
 157 704 111 675 79 658 c 1
 79 425 l 1xe8
EndSplineSet
Ligature2: "'ordn' Ordinals lookup 21-1" p
EndChar

StartChar: q.superior
Encoding: 392 -1 321
Width: 389
VWidth: 0
Flags: HW
HStem: 367 32<122.491 265.556> 707 32<126.01 303.263>
VStem: 38 33<458.844 645.446> 305 33<194 397 416.508 706.7>
LayerCount: 2
Fore
SplineSet
38 556 m 3
 38 670 83 739 177 739 c 3
 257 739 303 730 338 727 c 1
 338 194 l 17
 305 194 l 9
 305 397 l 1
 257 377 211 367 177 367 c 3
 62 367 38 463 38 556 c 3
71 556 m 3
 71 468 94 399 184 399 c 3
 240 399 243 406 305 420 c 1
 305 707 l 2
 184 707 l 2
 99 707 71 639 71 556 c 3
EndSplineSet
Ligature2: "'ordn' Ordinals lookup 21-1" q
EndChar

StartChar: r.superior
Encoding: 393 -1 322
Width: 330
VWidth: 0
Flags: HW
HStem: 703 33<152.396 286.78>
VStem: 47 33<378 666.214> 47 21<703.163 732>
LayerCount: 2
Fore
SplineSet
47 378 m 1xc0
 47 732 l 1
 68 732 l 1xa0
 80 681 l 1
 119 705 168 736 231 736 c 27
 253 736 278 734 287 730 c 1
 287 699 l 1
 278 701 253 703 231 703 c 27
 169 703 132 684 80 659 c 1
 80 378 l 1
 47 378 l 1xc0
EndSplineSet
Ligature2: "'ordn' Ordinals lookup 21-1" r
EndChar

StartChar: s.superior
Encoding: 394 -1 323
Width: 373
VWidth: 0
Flags: HW
HStem: 367 34<56.5514 285.31> 383 21<55.26 160.004> 537 33<77.8676 289.014> 707 22<182.828 309.46> 709 33<84.4313 307.723>
VStem: 38 33<575.685 695.396> 298 33<414.485 527.447>
LayerCount: 2
Fore
SplineSet
38 616 m 10xa6
 38 651 l 18
 38 708 63 742 133 742 c 3xae
 169 742 273 733 309 729 c 9
 309 707 l 17x36
 141 709 l 2
 80 710 71 685 71 643 c 10
 71 619 l 18
 71 570 89 570 136 570 c 2
 242 570 l 2
 301 570 331 544 331 491 c 1
 331 454 l 2
 331 382 285 367 241 367 c 3xae
 207 367 81 380 55 383 c 9
 55 404 l 17x66
 230 401 l 2
 252 400 298 395 298 463 c 2
 298 488 l 2
 298 525 281 537 237 537 c 10
 131 537 l 2
 68 537 38 545 38 616 c 10xa6
EndSplineSet
Ligature2: "'ordn' Ordinals lookup 21-1" s
EndChar

StartChar: t.superior
Encoding: 395 -1 324
Width: 311
VWidth: 0
Flags: HW
HStem: 379 21<197.231 265.94> 701 33<139.9 251.9> 701 22<32.94 88.282>
VStem: 107 33<430.828 701.04> 119 21<774.279 833>
LayerCount: 2
Fore
SplineSet
33 701 m 1xb0
 33 723 l 1
 107 732 l 1xb0
 119 833 l 1
 140 833 l 1
 140 734 l 1xc8
 252 734 l 1
 252 701 l 1
 140 701 l 1xd0
 140 505 l 2
 140 435 155 415 209 408 c 2
 266 400 l 1
 266 379 l 1
 207 379 l 2
 136 379 107 411 107 503 c 2
 107 701 l 1
 33 701 l 1xb0
EndSplineSet
Ligature2: "'ordn' Ordinals lookup 21-1" t
EndChar

StartChar: u.superior
Encoding: 396 -1 325
Width: 392
VWidth: 0
Flags: HW
LayerCount: 2
Fore
SplineSet
45 492 m 2
 45 737 l 9
 78 737 l 17
 78 493 l 2
 78 439 117 409 164 409 c 27
 223 409 261 428 308 451 c 1
 308 737 l 1
 341 737 l 1
 341 383 l 1
 316 383 l 1
 308 429 l 1
 271 404 222 376 161 376 c 3
 80 376 45 433 45 492 c 2
EndSplineSet
Ligature2: "'ordn' Ordinals lookup 21-1" u
EndChar

StartChar: v.superior
Encoding: 397 -1 326
Width: 413
VWidth: 0
Flags: HW
LayerCount: 2
Fore
SplineSet
31 732 m 25
 68 732 l 17
 208 425 l 9
 343 732 l 25
 380 732 l 25
 223 378 l 25
 192 378 l 25
 31 732 l 25
EndSplineSet
Ligature2: "'ordn' Ordinals lookup 21-1" v
EndChar

StartChar: w.superior
Encoding: 398 -1 327
Width: 620
VWidth: 0
Flags: HW
LayerCount: 2
Fore
SplineSet
31 732 m 1
 68 732 l 1
 208 425 l 1
 343 732 l 1
 380 732 l 1
 328 614 l 1
 415 425 l 1
 551 732 l 1
 587 732 l 1
 430 378 l 1
 399 378 l 1
 309 573 l 1
 223 378 l 1
 192 378 l 1
 31 732 l 1
EndSplineSet
Ligature2: "'ordn' Ordinals lookup 21-1" w
EndChar

StartChar: x.superior
Encoding: 399 -1 328
Width: 380
VWidth: 0
Flags: HW
LayerCount: 2
Fore
SplineSet
32 378 m 1
 170 556 l 1
 33 732 l 1
 73 732 l 1
 190 583 l 1
 305 732 l 1
 346 732 l 1
 210 556 l 1
 348 378 l 1
 307 378 l 1
 191 530 l 1
 73 378 l 1
 32 378 l 1
EndSplineSet
Ligature2: "'ordn' Ordinals lookup 21-1" x
EndChar

StartChar: y.superior
Encoding: 400 -1 329
Width: 419
VWidth: 0
Flags: HW
HStem: 376 34<196.882 215.94> 713 20G<30.94 75.9728 342.387 386.92>
DStem2: 67.92 733 30.94 733 0.371226 -0.928543<0 350.893> 146.9 196 212.28 264 0.353665 0.935372<29.8095 192.784 227.883 574.103>
LayerCount: 2
Fore
SplineSet
31 733 m 1
 68 733 l 1
 180 456 l 2
 192 427 208 410 228 410 c 9
 350 733 l 1
 387 733 l 9
 212 264 l 17
 167 196 l 1
 147 196 l 1
 216 376 l 1
 183 382 159 413 147 442 c 2
 31 733 l 1
EndSplineSet
Ligature2: "'ordn' Ordinals lookup 21-1" y
EndChar

StartChar: z.superior
Encoding: 401 -1 330
Width: 373
VWidth: 0
Flags: HW
LayerCount: 2
Fore
SplineSet
38 702 m 17
 38 732 l 25
 328 732 l 25
 328 708 l 25
 89 409 l 17
 327 409 l 17
 328 408 327 379 327 379 c 25
 49 379 l 25
 49 409 l 25
 284 702 l 17
 38 702 l 17
EndSplineSet
Ligature2: "'ordn' Ordinals lookup 21-1" z
EndChar

StartChar: zero.tnum
Encoding: 402 -1 331
Width: 625
VWidth: 0
Flags: HW
HStem: 0 41<162.373 465.48> 691 41<163.894 467.694>
VStem: 70 41<90.0155 640.875> 513 41<86.4844 645.925>
LayerCount: 2
Fore
SplineSet
70 162 m 10
 70 570 l 2
 70 678 147 732 242 732 c 2
 386 732 l 2
 508 732 554 659 554 570 c 26
 554 162 l 18
 554 43 485 0 386 0 c 2
 242 0 l 2
 151 0 70 42 70 162 c 10
111 162 m 2
 111 78 166 41 242 41 c 10
 386 41 l 18
 476 41 513 88 513 162 c 2
 513 570 l 2
 513 645 475 691 386 691 c 2
 242 691 l 2
 159 691 111 644 111 570 c 2
 111 162 l 2
EndSplineSet
Substitution2: "'onum' Oldstyle Figures in Latin lookup 5-1" zero.tosf
Substitution2: "'lnum' Lining Figures lookup 19-1" zero
EndChar

StartChar: one.tnum
Encoding: 403 -1 332
Width: 624
VWidth: 0
Flags: HW
HStem: -1 44<147.5 328.74 370.08 544.3> 712 20G<288.573 370.08>
VStem: 329 41<42.9805 685.62>
LayerCount: 2
Fore
SplineSet
156 619 m 5
 156 646 l 5
 329 732 l 5
 370 732 l 5
 370 43 l 5
 544 43 l 5
 544 -1 l 5
 148 -1 l 5
 148 43 l 5
 329 43 l 5
 329 686 l 5
 156 619 l 5
EndSplineSet
Substitution2: "'onum' Oldstyle Figures in Latin lookup 5-1" one.tosf
Substitution2: "'lnum' Lining Figures lookup 19-1" one
EndChar

StartChar: two.tnum
Encoding: 404 -1 333
Width: 624
VWidth: 0
Flags: HW
HStem: 0 41<150.56 556.4> 700 42<146.875 441.933> 700 29<69.2 263.557>
VStem: 514 42<459.078 629.244>
LayerCount: 2
Fore
SplineSet
69 700 m 2xb0
 69 729 l 1xb0
 172 742 282 742 353 742 c 3
 499 742 556 649 556 532 c 3
 556 346 209 83 151 41 c 9
 556 41 l 25
 556 0 l 25
 76 0 l 25
 76 38 l 17
 178 115 514 367 514 533 c 3
 514 650 455 700 352 700 c 2xd0
 69 700 l 2xb0
EndSplineSet
Substitution2: "'onum' Oldstyle Figures in Latin lookup 5-1" two.tosf
Substitution2: "'lnum' Lining Figures lookup 19-1" two
EndChar

StartChar: three.tnum
Encoding: 405 -1 334
Width: 624
VWidth: 0
Flags: HW
HStem: -7 42<167.438 459.538> 10 25<87.84 176.041> 343 43<160.081 447.528> 350 29<149.18 361.139> 693 41<175.234 454.458> 693 25<81.18 161.93>
VStem: 509 41<84.9036 283.914 437.027 640.574>
LayerCount: 2
Fore
SplineSet
81 693 m 1x06
 81 718 l 1x06
 151 736 262 736 379 734 c 0
 495 732 550 661 550 569 c 2
 550 500 l 2
 550 406 481 372 448 365 c 1
 483 353 550 314 550 220 c 1
 550 161 l 2
 550 52 494 -7 372 -7 c 0x8a
 258 -7 143 -6 87 10 c 1
 88 35 l 1x42
 369 35 l 2
 439 35 507 55 507 161 c 2
 507 220 l 2
 507 313 428 341 372 343 c 2xa2
 149 350 l 2
 149 379 l 1x12
 372 386 l 1
 447 388 509 423 509 500 c 2
 509 569 l 2
 509 656 447 693 375 693 c 2x2a
 81 693 l 1x06
EndSplineSet
Substitution2: "'onum' Oldstyle Figures in Latin lookup 5-1" three.tosf
Substitution2: "'lnum' Lining Figures lookup 19-1" three
EndChar

StartChar: four.tnum
Encoding: 406 -1 335
Width: 624
VWidth: 0
Flags: HW
HStem: 204 42<111.18 457.22 498.22 546.46> 217 29<539.979 588.22> 712 20G<352.202 412.44>
VStem: 457 41<2 203.5 245.86 499.866> 476 22<519.134 547>
DStem2: 52.5996 232.58 111.18 245.86 0.529954 0.848026<42.3068 588.92>
LayerCount: 2
Fore
SplineSet
53 233 m 1xb0
 365 732 l 1
 412 732 l 1
 111 246 l 1
 457 246 l 1
 457 472 l 1xb0
 476 547 l 1
 498 547 l 1xa8
 498 246 l 1xb0
 588 246 l 1
 588 217 l 1x70
 498 204 l 1
 498 2 l 1
 457 2 l 1
 457 204 l 1
 72 204 l 1
 53 233 l 1xb0
EndSplineSet
Substitution2: "'onum' Oldstyle Figures in Latin lookup 5-1" four.tosf
Substitution2: "'lnum' Lining Figures lookup 19-1" four
EndChar

StartChar: five.tnum
Encoding: 407 -1 336
Width: 624
VWidth: 0
Flags: HW
HStem: -4 43<184.382 461.588> 11 28<88.8203 266.683> 395 41<178.448 468.123> 691 41<150.46 534.82>
VStem: 90 38<287.1 344.111 382.34 401.564> 112 38<590.441 691> 515 41<94.7936 348.014>
LayerCount: 2
Fore
SplineSet
89 11 m 1x76
 89 39 l 1x76
 393 39 l 2
 463 39 515 87 515 168 c 2
 515 268 l 2
 515 312 505 395 392 395 c 2
 239 395 l 2
 186 395 128 349 128 287 c 1
 90 287 l 1xba
 112 732 l 17
 535 732 l 1
 535 691 l 1
 150 691 l 25
 135 382 l 1
 145 398 183 435 241 436 c 0
 308 438 362 436 393 436 c 0
 511 436 556 367 556 270 c 2
 556 166 l 2
 556 29 455 -4 393 -4 c 3xb6
 269 -4 182 -3 89 11 c 1x76
EndSplineSet
Substitution2: "'onum' Oldstyle Figures in Latin lookup 5-1" five.tosf
Substitution2: "'lnum' Lining Figures lookup 19-1" five
EndChar

StartChar: six.tnum
Encoding: 408 -1 337
Width: 624
VWidth: 0
Flags: HW
HStem: -1 41<214.563 488.407> 371 42<198.47 491.984> 371 27<129.86 321.926> 697 41<212.023 465.196> 697 29<351.437 543.06>
VStem: 89 41<185.02 371.16 398.42 562.422> 527 40<77.8062 335.632>
LayerCount: 2
Fore
SplineSet
89 384 m 4xc6
 89 644 172 738 261 738 c 4xd6
 362 738 469 735 543 726 c 5
 543 697 l 5x8e
 267 697 l 6
 152 697 131 500 130 398 c 5xb6
 215 408 332 413 406 413 c 4
 541 413 567 347 567 266 c 6
 567 148 l 6
 567 36 500 -1 406 -1 c 6
 277 -1 l 6
 168 -1 89 77 89 384 c 4xc6
130 371 m 5xa6
 130 236 145 40 277 40 c 6
 406 40 l 6
 464 40 527 56 527 149 c 6
 527 266 l 6
 527 356 472 371 406 371 c 6xc6
 130 371 l 5xa6
EndSplineSet
Substitution2: "'onum' Oldstyle Figures in Latin lookup 5-1" six.tosf
Substitution2: "'lnum' Lining Figures lookup 19-1" six
EndChar

StartChar: seven.tnum
Encoding: 409 -1 338
Width: 625
VWidth: 0
Flags: HW
HStem: 0 21G<254.48 309.937> 0 21G<254.48 309.937> 691 41<85.1797 499.28>
DStem2: 254.48 0 302.88 0 0.332754 0.943014<16.1051 733.081>
LayerCount: 2
Fore
SplineSet
85 691 m 5xa0
 85 732 l 5
 530 732 l 5
 550 700 l 5
 303 0 l 5
 254 0 l 5
 499 691 l 5
 85 691 l 5xa0
EndSplineSet
Substitution2: "'onum' Oldstyle Figures in Latin lookup 5-1" seven.tosf
Substitution2: "'lnum' Lining Figures lookup 19-1" seven
EndChar

StartChar: eight.tnum
Encoding: 410 -1 339
Width: 624
VWidth: 0
Flags: HW
HStem: 0 41<170.448 454.004> 354 40<163.24 460.733> 696 41<166.843 459.915>
VStem: 80 41<84.0615 310.881 428.896 650.552> 503 41<87.2146 320.162 435.606 650.97>
LayerCount: 2
Fore
SplineSet
80 154 m 2
 80 253 l 2
 80 328 136 360 175 364 c 1
 96 381 80 446 80 499 c 2
 80 564 l 2
 80 698 153 737 256 737 c 2
 382 737 l 2
 489 737 544 687 544 564 c 2
 544 499 l 2
 544 456 519 389 458 381 c 1
 523 364 544 308 544 252 c 2
 544 154 l 2
 544 24 445 0 381 0 c 2
 256 0 l 2
 84 0 80 113 80 154 c 2
121 151 m 2
 121 73 175 41 256 41 c 2
 381 41 l 2
 436 41 503 70 503 151 c 2
 503 256 l 2
 503 345 432 354 384 354 c 2
 245 354 l 2
 199 354 121 331 121 256 c 2
 121 151 l 2
121 494 m 2
 121 405 190 394 245 394 c 2
 384 394 l 2
 473 394 503 451 503 494 c 2
 503 562 l 2
 503 660 463 696 382 696 c 2
 256 696 l 2
 162 696 121 661 121 562 c 2
 121 494 l 2
EndSplineSet
Substitution2: "'onum' Oldstyle Figures in Latin lookup 5-1" eight.tosf
Substitution2: "'lnum' Lining Figures lookup 19-1" eight
EndChar

StartChar: nine.tnum
Encoding: 411 -1 340
Width: 624
VWidth: 0
Flags: HW
HStem: -4 41<167.025 419.896> 8 29<88.8604 280.61> 321 42<139.936 433.45> 335 27<309.994 502.06> 694 41<143.513 417.357>
VStem: 65 40<398.068 655.894> 502 41<171.278 335.28 362.54 548.68>
LayerCount: 2
Fore
SplineSet
65 468 m 6x2e
 65 586 l 6
 65 698 132 735 226 735 c 6
 355 735 l 6
 464 735 543 657 543 350 c 4
 543 90 460 -4 371 -4 c 4xae
 270 -4 164 -3 89 8 c 5
 89 37 l 5x4e
 365 37 l 6
 480 37 501 233 502 335 c 5x9e
 417 325 300 321 226 321 c 4
 91 321 65 387 65 468 c 6x2e
105 468 m 6
 105 378 160 363 226 363 c 6x2e
 502 363 l 5x1e
 502 498 487 694 355 694 c 6
 226 694 l 6
 168 694 105 678 105 585 c 6
 105 468 l 6
EndSplineSet
Substitution2: "'onum' Oldstyle Figures in Latin lookup 5-1" nine.tosf
Substitution2: "'lnum' Lining Figures lookup 19-1" nine
EndChar

StartChar: zero.tosf
Encoding: 412 -1 341
Width: 624
VWidth: 0
Flags: HW
HStem: 0 41<163.372 466.479> 590 41<164.894 468.693>
VStem: 71 41<90.0155 539.875> 514 41<86.4844 543.424>
LayerCount: 2
Fore
SplineSet
71 162 m 10
 71 469 l 2
 71 577 148 631 243 631 c 2
 387 631 l 2
 509 631 555 560 555 469 c 26
 555 162 l 18
 555 43 486 0 387 0 c 2
 243 0 l 2
 152 0 71 42 71 162 c 10
112 162 m 2
 112 78 167 41 243 41 c 10
 387 41 l 18
 477 41 514 88 514 162 c 2
 514 469 l 2
 514 544 476 590 387 590 c 2
 243 590 l 2
 160 590 112 543 112 469 c 2
 112 162 l 2
EndSplineSet
Substitution2: "'lnum' Lining Figures lookup 19-1" zero
EndChar

StartChar: one.tosf
Encoding: 413 -1 342
Width: 624
VWidth: 0
Flags: HW
HStem: -1 44<149.78 326.3 367.3 539.78>
VStem: 326 41<42.9805 585.62>
LayerCount: 2
Fore
SplineSet
158 520 m 5
 158 547 l 5
 326 632 l 5
 367 632 l 5
 367 43 l 5
 540 43 l 5
 540 -1 l 5
 150 -1 l 5
 150 43 l 5
 326 43 l 5
 326 586 l 5
 158 520 l 5
EndSplineSet
Substitution2: "'lnum' Lining Figures lookup 19-1" one
EndChar

StartChar: two.tosf
Encoding: 414 -1 343
Width: 624
VWidth: 0
Flags: HW
HStem: 0 41<160.22 549.74> 598 40<145.304 446.074> 598 27<69.2 210.697>
VStem: 513 36<390.202 531.193>
LayerCount: 2
Fore
SplineSet
69 598 m 2xb0
 69 625 l 1xb0
 136 635 237 643 352 638 c 1
 492 638 555 564 555 451 c 3
 555 284 219 71 160 41 c 9
 549 41 l 25
 549 0 l 25
 75 0 l 25
 75 38 l 17
 179 94 513 301 513 453 c 3
 513 558 447 599 344 598 c 1xd0
 69 598 l 2xb0
EndSplineSet
Substitution2: "'lnum' Lining Figures lookup 19-1" two
EndChar

StartChar: three.tosf
Encoding: 415 -1 344
Width: 624
VWidth: 0
Flags: HW
HStem: -106 42<167.438 459.538> -90 25<87.84 176.041> 244 43<160.08 447.528> 251 29<149.18 361.14> 594 41<175.234 454.458> 594 25<81.18 161.93>
VStem: 509 41<-14.3964 184.614 337.727 541.274>
LayerCount: 2
Fore
SplineSet
81 594 m 1x06
 81 619 l 1x06
 151 637 262 637 379 635 c 0
 495 633 550 562 550 470 c 2
 550 401 l 2
 550 307 481 272 448 265 c 1
 483 253 550 215 550 121 c 1
 550 62 l 2
 550 -47 494 -106 372 -106 c 0x8a
 258 -106 143 -106 87 -90 c 1
 88 -64 l 1x42
 369 -64 l 2
 439 -64 507 -44 507 62 c 2
 507 121 l 2
 507 214 428 242 372 244 c 2xa2
 149 251 l 2
 149 280 l 1x12
 372 287 l 1
 447 289 509 324 509 401 c 2
 509 470 l 2
 509 557 447 594 375 594 c 2x2a
 81 594 l 1x06
EndSplineSet
Substitution2: "'lnum' Lining Figures lookup 19-1" three
EndChar

StartChar: four.tosf
Encoding: 416 -1 345
Width: 624
VWidth: 0
Flags: HW
HStem: 103 42<113.18 459.22 500.22 548.457> 116 29<541.983 590.22>
VStem: 459 41<-98.6602 102.84 145.2 399.206> 478 22<418.473 446.34>
DStem2: 54.5996 131.92 113.18 145.2 0.529954 0.848026<42.3068 588.92>
LayerCount: 2
Fore
SplineSet
55 132 m 5xa0
 367 631 l 5
 414 631 l 5
 113 145 l 5
 459 145 l 5
 459 371 l 5xa0
 478 446 l 5
 500 446 l 5x90
 500 145 l 5xa0
 590 145 l 5
 590 116 l 5x60
 500 103 l 5
 500 -99 l 5
 459 -99 l 5
 459 103 l 5
 74 103 l 5
 55 132 l 5xa0
EndSplineSet
Substitution2: "'lnum' Lining Figures lookup 19-1" four
EndChar

StartChar: five.tosf
Encoding: 417 -1 346
Width: 624
VWidth: 0
Flags: HW
HStem: -105 43<189.381 466.588> -90 28<93.82 271.683> 294 41<183.448 473.123> 590 41<155.46 539.82>
VStem: 95 38<186.44 243.452 281.68 300.901> 117 38<489.781 590.34> 520 41<-5.86638 247.355>
LayerCount: 2
Fore
SplineSet
94 -62 m 1x76
 398 -62 l 2
 468 -62 520 -14 520 67 c 2
 520 167 l 2
 520 211 510 294 397 294 c 2
 244 294 l 2
 191 294 133 248 133 186 c 1
 95 186 l 1xba
 117 631 l 17
 540 631 l 1
 540 590 l 1
 155 590 l 25
 140 282 l 1
 150 298 189 334 247 335 c 0
 314 337 367 335 398 335 c 0
 516 335 561 266 561 169 c 2
 561 65 l 2
 561 -72 460 -105 398 -105 c 3xb6
 274 -105 187 -104 94 -90 c 1
 94 -62 l 1x76
EndSplineSet
Substitution2: "'lnum' Lining Figures lookup 19-1" five
EndChar

StartChar: six.tosf
Encoding: 418 -1 347
Width: 624
VWidth: 0
Flags: HW
HStem: -1 41<210.563 484.407> 371 42<194.47 487.984> 371 27<125.86 317.926> 697 41<208.023 461.196> 697 29<347.437 539.06>
VStem: 85 41<185.02 371.16 398.42 562.422> 523 40<77.8062 335.632>
LayerCount: 2
Fore
SplineSet
85 384 m 4xc6
 85 644 168 738 257 738 c 4xd6
 358 738 465 735 539 726 c 5
 539 697 l 5x8e
 263 697 l 6
 148 697 127 500 126 398 c 5xb6
 211 408 328 413 402 413 c 4
 537 413 563 347 563 266 c 6
 563 148 l 6
 563 36 496 -1 402 -1 c 6
 273 -1 l 6
 164 -1 85 77 85 384 c 4xc6
126 371 m 5xa6
 126 236 141 40 273 40 c 6
 402 40 l 6
 460 40 523 56 523 149 c 6
 523 266 l 6
 523 356 468 371 402 371 c 6xc6
 126 371 l 5xa6
EndSplineSet
Substitution2: "'lnum' Lining Figures lookup 19-1" six
EndChar

StartChar: seven.tosf
Encoding: 419 -1 348
Width: 624
VWidth: 0
Flags: HW
HStem: 590 41<82.18 496.28>
DStem2: 251.48 -100.66 299.88 -100.66 0.332754 0.943014<16.1053 733.081>
LayerCount: 2
Fore
SplineSet
82 590 m 1
 82 631 l 1
 527 631 l 1
 547 600 l 1
 300 -101 l 1
 251 -101 l 1
 496 590 l 1
 82 590 l 1
EndSplineSet
Substitution2: "'lnum' Lining Figures lookup 19-1" seven
EndChar

StartChar: eight.tosf
Encoding: 420 -1 349
Width: 624
VWidth: 0
Flags: HW
HStem: 0 41<174.448 458.004> 354 40<167.24 464.733> 696 41<170.843 463.915>
VStem: 84 41<84.0615 310.881 428.896 650.552> 507 41<87.2146 320.162 435.606 650.97>
LayerCount: 2
Fore
SplineSet
84 154 m 2
 84 253 l 2
 84 328 140 360 179 364 c 1
 100 381 84 446 84 499 c 2
 84 564 l 2
 84 698 157 737 260 737 c 2
 386 737 l 2
 493 737 548 687 548 564 c 2
 548 499 l 2
 548 456 523 389 462 381 c 1
 527 364 548 308 548 252 c 2
 548 154 l 2
 548 24 449 0 385 0 c 2
 260 0 l 2
 88 0 84 113 84 154 c 2
125 151 m 2
 125 73 179 41 260 41 c 2
 385 41 l 2
 440 41 507 70 507 151 c 2
 507 256 l 2
 507 345 436 354 388 354 c 2
 249 354 l 2
 203 354 125 331 125 256 c 2
 125 151 l 2
125 494 m 2
 125 405 194 394 249 394 c 2
 388 394 l 2
 477 394 507 451 507 494 c 2
 507 562 l 2
 507 660 467 696 386 696 c 2
 260 696 l 2
 166 696 125 661 125 562 c 2
 125 494 l 2
EndSplineSet
Substitution2: "'lnum' Lining Figures lookup 19-1" eight
EndChar

StartChar: nine.tosf
Encoding: 421 -1 350
Width: 624
VWidth: 0
Flags: HW
HStem: -107 41<172.422 425.896> -95 29<94.8604 286.357> 218 42<145.936 439.45> 233 27<315.994 508.06> 591 41<149.513 423.357>
VStem: 71 40<295.368 553.194> 508 41<68.5777 232.58 259.84 445.98>
LayerCount: 2
Fore
SplineSet
71 365 m 6x2e
 71 483 l 6
 71 595 138 632 232 632 c 6
 361 632 l 6
 470 632 549 554 549 247 c 4
 549 -13 466 -107 377 -107 c 4xae
 276 -107 168 -106 95 -95 c 5
 95 -66 l 5x4e
 371 -66 l 6
 486 -66 507 131 508 233 c 5x9e
 423 223 306 218 232 218 c 4
 97 218 71 284 71 365 c 6x2e
111 365 m 6
 111 275 166 260 232 260 c 6x2e
 508 260 l 5x1e
 508 395 493 591 361 591 c 6
 232 591 l 6
 174 591 111 575 111 482 c 6
 111 365 l 6
EndSplineSet
Substitution2: "'lnum' Lining Figures lookup 19-1" nine
EndChar

StartChar: partialdiff
Encoding: 422 8706 351
Width: 664
VWidth: 0
Flags: HW
LayerCount: 2
Fore
SplineSet
70 227 m 1
 70 378 156 448 323 448 c 3
 374 448 457 440 523 393 c 1
 519 594 464 699 299 699 c 3
 222 699 153 668 116 645 c 1
 104 669 l 1
 171 713 217 740 302 740 c 3
 495 740 564 603 564 387 c 0
 564 190 494 -5 312 -5 c 27
 181 -5 70 69 70 227 c 1
111 229 m 3
 111 96 206 36 310 36 c 3
 489 36 523 270 523 364 c 1
 489 383 399 408 323 408 c 3
 183 408 111 354 111 229 c 3
EndSplineSet
EndChar

StartChar: summation
Encoding: 423 8721 352
Width: 573
VWidth: 0
Flags: HW
LayerCount: 2
Fore
SplineSet
49 -156 m 1
 263 270 l 1
 49 691 l 1
 49 732 l 1
 549 732 l 1
 549 691 l 9
 99 691 l 17
 312 270 l 9
 99 -156 l 25
 549 -156 l 17
 549 -200 l 1
 49 -200 l 1
 49 -156 l 1
EndSplineSet
EndChar

StartChar: product
Encoding: 424 8719 353
Width: 607
VWidth: 0
Flags: HW
LayerCount: 2
Fore
SplineSet
25 691 m 1
 25 732 l 1
 582 732 l 1
 582 691 l 1
 495 691 l 1
 495 0 l 1
 454 0 l 1
 454 691 l 1
 152 691 l 1
 152 0 l 1
 111 0 l 1
 111 691 l 1
 25 691 l 1
EndSplineSet
EndChar

StartChar: pi
Encoding: 425 960 354
Width: 615
VWidth: 0
Flags: HW
LayerCount: 2
Fore
SplineSet
25 490 m 1
 25 531 l 1
 542 531 l 1
 542 490 l 1
 413 490 l 1
 413 166 l 2
 413 72 439 37 498 37 c 2
 590 37 l 1
 590 13 l 1
 544 -1 533 -5 498 -5 c 3
 415 -5 372 34 372 166 c 2
 372 490 l 1
 152 490 l 1
 152 0 l 1
 111 0 l 1
 111 490 l 1
 25 490 l 1
EndSplineSet
EndChar

StartChar: integral
Encoding: 426 8747 355
Width: 450
VWidth: 0
Flags: HW
LayerCount: 2
Fore
SplineSet
25 -163 m 1
 119 -163 l 1
 206 -163 204 -59 204 88 c 9
 204 506 l 18
 204 665 210 800 327 800 c 3
 388 800 399 793 426 785 c 1
 426 759 l 1
 331 759 l 1
 242 759 245 634 245 506 c 1
 245 88 l 2
 245 -71 246 -204 126 -204 c 3
 85 -204 41 -200 25 -189 c 1
 25 -163 l 1
EndSplineSet
EndChar

StartChar: Omega
Encoding: 427 937 356
Width: 788
VWidth: 0
Flags: HW
LayerCount: 2
Fore
SplineSet
79 388 m 0
 79 542 132 739 394 739 c 3
 642 739 703 565 703 383 c 3
 703 266 667 130 540 41 c 1
 708 31 l 1
 708 0 l 1
 480 0 l 1
 480 42 l 1
 622 136 662 253 662 385 c 3
 662 548 612 698 394 698 c 3
 176 698 120 550 120 380 c 3
 120 237 157 158 305 42 c 1
 305 0 l 1
 85 0 l 1
 85 31 l 1
 251 42 l 1
 90 158 79 275 79 388 c 0
EndSplineSet
EndChar

StartChar: radical
Encoding: 428 8730 357
Width: 604
VWidth: 0
Flags: HW
LayerCount: 2
Fore
SplineSet
25 317 m 1
 25 358 l 1
 138 358 l 1
 274 62 l 1
 539 800 l 1
 580 800 l 1
 295 0 l 1
 260 0 l 1
 113 317 l 1
 25 317 l 1
EndSplineSet
EndChar

StartChar: florin
Encoding: 429 402 358
Width: 597
VWidth: 0
Flags: HW
LayerCount: 2
Fore
SplineSet
25 -188 m 1
 29 -163 l 2
 109 -163 l 2
 205 -163 230 -11 245 88 c 2
 296 413 l 1
 194 413 l 1
 201 455 l 1
 303 455 l 1
 311 506 l 2
 335 656 364 800 481 800 c 3
 530 800 567 786 573 784 c 1
 569 759 l 2
 481 759 l 0
 393 759 373 623 353 506 c 2
 345 454 l 1
 488 454 l 1
 481 413 l 1
 338 413 l 1
 287 88 l 2
 267 -43 241 -204 109 -204 c 3
 70 -204 31 -192 25 -188 c 1
EndSplineSet
EndChar

StartChar: approxequal
Encoding: 430 8776 359
Width: 492
VWidth: 0
Flags: HW
LayerCount: 2
Fore
SplineSet
62 251 m 17
 98 282 134 313 182 313 c 3
 228 313 274 252 316 252 c 3
 358 252 389 282 420 301 c 9
 432 282 l 17
 397 251 363 216 315 216 c 3
 267 216 223 277 181 277 c 3
 139 277 112 253 72 231 c 9
 62 251 l 17
62 427 m 17
 98 458 134 489 182 489 c 3
 228 489 274 429 316 429 c 3
 358 429 389 458 420 477 c 9
 432 458 l 17
 397 427 363 393 315 393 c 3
 267 393 223 454 181 454 c 3
 139 454 112 430 72 408 c 9
 62 427 l 17
EndSplineSet
EndChar

StartChar: uni2206
Encoding: 431 8710 360
Width: 733
VWidth: 0
Flags: HW
LayerCount: 2
Fore
SplineSet
25 0 m 1
 353 732 l 1
 392 732 l 1
 709 0 l 1
 25 0 l 1
89 41 m 1
 646 41 l 1
 374 674 l 1
 89 41 l 1
EndSplineSet
EndChar

StartChar: lozenge
Encoding: 432 9674 361
Width: 531
VWidth: 0
Flags: HW
LayerCount: 2
Fore
SplineSet
25 373 m 1
 248 732 l 1
 289 732 l 1
 507 373 l 1
 289 0 l 1
 248 0 l 1
 25 373 l 1
73 373 m 1
 269 50 l 1
 460 373 l 1
 269 687 l 1
 73 373 l 1
EndSplineSet
EndChar

StartChar: onequarter
Encoding: 188 188 362
Width: 885
VWidth: 0
Flags: HW
LayerCount: 2
Fore
SplineSet
20 654 m 1
 20 677 l 1
 148 732 l 1
 181 732 l 1
 181 256 l 1
 148 256 l 1
 148 697 l 1
 20 654 l 1
215 0 m 1
 588 757 l 1
 622 757 l 1
 249 0 l 1
 215 0 l 1
486 165 m 1
 683 475 l 1
 720 475 l 1
 537 185 l 1
 768 185 l 1
 768 306 l 1
 784 354 l 1
 801 354 l 1
 801 185 l 1
 860 185 l 1
 860 162 l 1
 801 151 l 1
 801 0 l 1
 768 0 l 1
 768 151 l 1
 496 151 l 1
 486 165 l 1
EndSplineSet
Ligature2: "'frac' Diagonal Fractions lookup 11 subtable" one slash four
Ligature2: "'frac' Diagonal Fractions lookup 11 subtable" one fraction four
EndChar

StartChar: brokenbar
Encoding: 166 166 363
Width: 252
VWidth: 0
Flags: HW
LayerCount: 2
Fore
SplineSet
106 -72 m 1
 106 256 l 1
 147 256 l 1
 147 -72 l 1
 106 -72 l 1
106 429 m 1
 106 770 l 1
 147 770 l 1
 147 429 l 1
 106 429 l 1
EndSplineSet
EndChar

StartChar: currency
Encoding: 164 164 364
Width: 463
VWidth: 0
Flags: HW
LayerCount: 2
Fore
SplineSet
63 464 m 1
 82 482 l 1
 127 437 l 1
 155 461 192 476 231 476 c 0
 272 476 308 462 336 438 c 1
 382 483 l 1
 399 463 l 1
 354 419 l 1
 378 392 393 355 393 315 c 0
 393 275 379 237 356 207 c 1
 399 164 l 1
 379 146 l 1
 338 188 l 1
 310 161 273 144 231 144 c 0
 189 144 151 162 123 189 c 1
 82 147 l 1
 64 166 l 1
 105 208 l 1
 82 237 69 275 69 315 c 0
 69 355 84 391 109 419 c 1
 63 464 l 1
98 314 m 0
 98 239 156 174 231 174 c 0
 306 174 364 239 364 314 c 0
 364 388 305 446 231 446 c 0
 159 446 98 386 98 314 c 0
EndSplineSet
EndChar

StartChar: onehalf
Encoding: 189 189 365
Width: 954
VWidth: 0
Flags: HW
LayerCount: 2
Fore
SplineSet
20 654 m 1
 20 677 l 1
 148 732 l 1
 181 732 l 1
 181 256 l 1
 148 256 l 1
 148 697 l 1
 20 654 l 1
204 0 m 1
 578 757 l 1
 612 757 l 1
 238 0 l 1
 204 0 l 1
592 450 m 2
 590 450 591 474 592 473 c 1
 658 481 703 483 775 483 c 3
 873 483 905 425 905 347 c 3
 905 224 694 66 655 34 c 9
 904 34 l 25
 904 1 l 25
 595 1 l 25
 595 30 l 17
 662 84 870 236 870 344 c 3
 870 408 850 450 767 450 c 2
 592 450 l 2
EndSplineSet
Ligature2: "'frac' Diagonal Fractions lookup 11 subtable" one slash two
Ligature2: "'frac' Diagonal Fractions lookup 11 subtable" one fraction two
EndChar

StartChar: threequarters
Encoding: 190 190 366
Width: 1007
VWidth: 0
Flags: HW
LayerCount: 2
Fore
SplineSet
37 700 m 1
 37 722 l 1
 87 735 156 733 232 733 c 0
 319 733 353 681 353 621 c 2
 353 586 l 2
 353 532 306 501 282 496 c 1
 305 488 353 457 353 399 c 2
 353 371 l 2
 353 300 326 252 227 252 c 0
 153 252 88 252 41 265 c 1
 41 285 l 1
 219 285 l 2
 291 285 320 306 320 375 c 2
 320 398 l 2
 320 455 269 480 223 481 c 2
 81 485 l 2
 81 508 l 1
 223 513 l 2
 279 515 321 542 321 589 c 2
 321 620 l 2
 321 684 276 700 228 700 c 2
 37 700 l 1
326 0 m 1
 699 757 l 1
 733 757 l 1
 360 0 l 1
 326 0 l 1
570 166 m 1
 766 475 l 1
 802 475 l 1
 619 184 l 1
 853 184 l 1
 853 307 l 1
 867 355 l 1
 884 355 l 1
 884 184 l 1
 944 184 l 1
 944 163 l 1
 884 151 l 1
 884 1 l 1
 853 1 l 1
 853 151 l 1
 580 151 l 1
 570 166 l 1
EndSplineSet
Ligature2: "'frac' Diagonal Fractions lookup 11 subtable" three slash four
Ligature2: "'frac' Diagonal Fractions lookup 11 subtable" three fraction four
EndChar

StartChar: Hbar
Encoding: 435 294 369
Width: 661
VWidth: 0
Flags: HW
LayerCount: 2
Fore
SplineSet
35 530 m 1
 35 558 l 1
 98 558 l 1
 98 732 l 1
 139 732 l 1
 139 558 l 1
 549 558 l 1
 549 732 l 1
 590 732 l 1
 590 558 l 1
 653 558 l 1
 653 530 l 1
 590 530 l 1
 590 0 l 1
 549 0 l 1
 549 334 l 1
 139 334 l 1
 139 0 l 1
 98 0 l 1
 98 530 l 1
 35 530 l 1
139 374 m 1
 549 374 l 1
 549 530 l 1
 139 530 l 1
 139 374 l 1
EndSplineSet
Substitution2: "'c2sc' Capitals to Small Capitals in Latin lookup 17 subtable" hbar.smcp
EndChar

StartChar: hbar
Encoding: 440 295 374
Width: 549
VWidth: 0
Flags: HW
LayerCount: 2
Fore
SplineSet
1 624 m 1
 1 651 l 1
 74 651 l 1
 74 784 l 1
 116 784 l 1
 116 651 l 1
 256 651 l 1
 256 624 l 1
 116 624 l 1
 116 469 l 1
 175 506 251 540 327 540 c 1
 432 541 488 459 488 371 c 2
 488 0 l 1
 446 0 l 1
 446 370 l 1
 445 446 404 500 321 500 c 1
 245 499 191 478 116 439 c 1
 116 0 l 1
 74 0 l 1
 74 624 l 1
 1 624 l 1
EndSplineSet
Substitution2: "'smcp' Lowercase to Small Capitals lookup 16-1" hbar.smcp
EndChar

StartChar: jcircumflex
Encoding: 442 309 376
Width: 185
VWidth: 0
Flags: HW
LayerCount: 2
Fore
SplineSet
-53 597 m 1
 74 737 l 1
 112 737 l 1
 226 597 l 1
 194 597 l 1
 92 705 l 1
 -20 597 l 1
 -53 597 l 1
70 -270 m 1
 70 531 l 1
 112 531 l 1
 112 -4 l 1
 113 -90 111 -181 96 -270 c 1
 70 -270 l 1
74 737 m 1
112 737 m 1
EndSplineSet
Substitution2: "'smcp' Lowercase to Small Capitals lookup 16-1" jcircumflex.smcp
EndChar

StartChar: f_f
Encoding: 457 64256 391
Width: 762
VWidth: 0
Flags: HW
LayerCount: 2
Fore
SplineSet
25 490 m 1
 25 517 l 1
 122 531 l 1
 122 620 l 2
 122 675 127 776 247 776 c 0
 285 776 324 767 367 757 c 1
 367 731 l 1
 366 731 254 736 254 736 c 2
 189 739 163 700 163 620 c 2
 163 531 l 1
 489 531 l 1
 489 630 l 2
 489 684 492 786 592 786 c 0
 628 786 699 778 739 766 c 1
 739 740 l 1
 738 740 603 746 603 746 c 2
 536 749 530 691 530 630 c 2
 530 531 l 1
 697 531 l 1
 697 490 l 1
 529 490 l 1
 529 -1 l 1
 488 -1 l 1
 488 490 l 1
 163 490 l 1
 163 0 l 1
 122 0 l 1
 122 490 l 1
 25 490 l 1
EndSplineSet
Ligature2: "'dlig' Discretionary Ligatures lookup 14-1" f f
EndChar

StartChar: f_f_i
Encoding: 458 64259 392
Width: 964
VWidth: 0
Flags: HW
LayerCount: 2
Fore
SplineSet
25 490 m 1
 25 517 l 1
 122 531 l 1
 122 620 l 2
 122 675 127 776 247 776 c 0
 285 776 324 767 367 757 c 1
 367 731 l 1
 366 731 254 736 254 736 c 2
 189 739 163 700 163 620 c 2
 163 531 l 1
 483 531 l 1
 483 584 l 2
 483 702 546 786 666 786 c 0
 706 786 788 777 848 762 c 1
 848 736 l 1
 847 736 677 745 677 745 c 2
 594 749 524 705 524 584 c 2
 524 531 l 1
 891 523 l 1
 891 0 l 1
 850 0 l 1
 850 490 l 1
 523 490 l 1
 523 0 l 1
 482 0 l 1
 482 490 l 1
 163 490 l 1
 163 0 l 1
 122 0 l 1
 122 490 l 1
 25 490 l 1
EndSplineSet
Ligature2: "'dlig' Discretionary Ligatures lookup 14-1" f f i
EndChar

StartChar: ffl
Encoding: 459 64260 393
Width: 1076
VWidth: 0
Flags: HW
LayerCount: 2
Fore
SplineSet
25 490 m 1
 25 517 l 1
 122 531 l 1
 122 620 l 2
 122 675 127 776 247 776 c 0
 285 776 324 767 367 757 c 1
 367 731 l 1
 366 731 254 736 254 736 c 2
 189 739 163 700 163 620 c 2
 163 531 l 1
 480 531 l 1
 480 584 l 2
 480 692 524 785 644 785 c 1
 893 785 l 1
 893 191 l 2
 893 58 939 50 973 43 c 1
 973 43 1045 29 1052 29 c 1
 1052 2 l 1
 978 2 l 2
 891 2 852 56 852 191 c 2
 852 747 l 1
 654 747 l 2
 575 747 521 704 521 584 c 2
 521 531 l 1
 668 531 l 1
 668 490 l 1
 521 490 l 1
 521 0 l 1
 480 0 l 1
 480 490 l 1
 163 490 l 1
 163 0 l 1
 122 0 l 1
 122 490 l 1
 25 490 l 1
EndSplineSet
Ligature2: "'dlig' Discretionary Ligatures lookup 14-1" f f l
EndChar

StartChar: c_t
Encoding: 460 -1 394
Width: 816
VWidth: 0
Flags: HW
LayerCount: 2
Fore
SplineSet
49 263 m 0
 49 493 125 531 224 531 c 0
 583 531 l 1
 595 679 l 1
 624 679 l 1
 624 531 l 1
 792 531 l 1
 792 490 l 1
 624 490 l 1
 625 187 l 2
 625 50 671 45 706 39 c 2
 706 39 776 25 781 25 c 1
 781 -2 l 1
 710 -2 l 2
 622 -2 584 52 584 187 c 2
 583 489 l 1
 224 489 l 3
 147 489 90 461 90 259 c 3
 90 71 143 34 224 34 c 3
 316 34 439 52 439 52 c 1
 439 22 l 17
 358 -1 307 -6 224 -7 c 0
 125 -7 49 30 49 263 c 0
EndSplineSet
Ligature2: "'dlig' Discretionary Ligatures lookup 14-1" c t
EndChar

StartChar: s_t
Encoding: 461 64262 395
Width: 861
VWidth: 0
Flags: HW
LayerCount: 2
Fore
SplineSet
49 354 m 10
 49 401 l 18
 49 483 84 532 187 532 c 0
 620 532 l 1
 632 680 l 1
 661 680 l 1
 661 532 l 1
 829 532 l 1
 829 492 l 1
 661 492 l 1
 661 188 l 2
 661 51 707 46 742 40 c 2
 742 40 812 27 817 27 c 1
 817 -1 l 1
 746 -1 l 2
 658 -1 620 53 620 188 c 2
 620 492 l 1
 187 491 l 2
 110 491 90 460 90 401 c 10
 90 354 l 18
 90 279 125 280 187 280 c 2
 325 280 l 2
 405 280 455 240 455 168 c 1
 455 121 l 2
 455 12 389 -7 325 -7 c 3
 276 -7 109 2 71 6 c 9
 71 34 l 17
 325 34 l 18
 356 34 414 39 414 121 c 2
 414 168 l 2
 414 212 387 239 325 239 c 10
 187 239 l 2
 93 239 49 251 49 354 c 10
EndSplineSet
Ligature2: "'dlig' Discretionary Ligatures lookup 14-1" s t
EndChar

StartChar: t_t
Encoding: 462 -1 396
Width: 717
VWidth: 0
Flags: HW
LayerCount: 2
Fore
SplineSet
25 491 m 1
 25 521 l 1
 114 532 l 1
 125 680 l 1
 155 680 l 1
 155 532 l 1
 484 532 l 1
 496 679 l 1
 525 679 l 1
 525 531 l 1
 694 531 l 1
 694 490 l 1
 525 490 l 1
 525 189 l 1
 525 52 571 47 606 41 c 2
 606 41 677 28 682 28 c 1
 682 0 l 1
 611 0 l 2
 523 0 484 54 484 189 c 2
 484 490 l 1
 155 491 l 1
 155 189 l 1
 155 52 201 47 236 41 c 2
 236 41 306 27 311 27 c 1
 311 0 l 1
 240 0 l 2
 152 0 114 54 114 189 c 2
 114 491 l 1
 25 491 l 1
EndSplineSet
Ligature2: "'dlig' Discretionary Ligatures lookup 14-1" t t
EndChar

StartChar: f_t
Encoding: 463 -1 397
Width: 746
VWidth: 0
Flags: HW
LayerCount: 2
Fore
SplineSet
25 490 m 1
 25 519 l 1
 116 531 l 1
 116 630 l 2
 116 684 119 786 219 786 c 0
 255 786 326 783 366 771 c 1
 366 745 l 1
 230 746 l 2
 163 746 157 698 157 630 c 2
 157 531 l 1
 514 531 l 1
 525 680 l 1
 555 680 l 1
 555 531 l 1
 723 531 l 1
 723 490 l 1
 555 490 l 1
 555 189 l 1
 555 52 601 47 636 41 c 2
 636 41 707 27 712 27 c 1
 712 0 l 1
 641 0 l 2
 553 0 514 54 514 189 c 2
 514 490 l 1
 156 490 l 1
 156 0 l 1
 115 0 l 1
 115 490 l 1
 25 490 l 1
EndSplineSet
Ligature2: "'dlig' Discretionary Ligatures lookup 14-1" f t
EndChar

StartChar: t_y
Encoding: 464 -1 398
Width: 914
VWidth: 0
Flags: HW
LayerCount: 2
Fore
SplineSet
25 491 m 1
 25 521 l 1
 114 532 l 1
 125 680 l 1
 155 680 l 1
 155 532 l 1
 316 532 l 1
 432 531 455 500 484 420 c 2
 592 119 l 2
 622 35 681 45 681 45 c 1
 846 534 l 1
 891 534 l 1
 658 -165 l 1
 602 -267 l 1
 577 -267 l 1
 669 3 l 1
 647 4 584 13 549 113 c 2
 444 405 l 2
 418 477 393 490 316 490 c 2
 155 490 l 1
 155 189 l 2
 155 52 201 47 236 41 c 2
 236 41 306 27 311 27 c 1
 311 0 l 1
 240 0 l 2
 152 0 114 54 114 189 c 2
 114 491 l 1
 25 491 l 1
EndSplineSet
Ligature2: "'dlig' Discretionary Ligatures lookup 14-1" t y
EndChar

StartChar: f_y
Encoding: 465 -1 399
Width: 936
VWidth: 0
Flags: HW
LayerCount: 2
Fore
SplineSet
25 490 m 1
 25 519 l 1
 116 531 l 1
 116 630 l 2
 116 684 119 786 219 786 c 0
 255 786 326 779 366 767 c 1
 366 742 l 1
 230 746 l 2
 163 748 157 698 157 630 c 2
 157 531 l 1
 334 532 l 1
 450 531 474 500 503 420 c 2
 613 119 l 2
 643 35 702 46 702 46 c 1
 867 534 l 1
 912 534 l 1
 679 -165 l 1
 622 -267 l 1
 597 -267 l 1
 689 3 l 1
 667 4 605 13 570 113 c 2
 463 405 l 2
 437 477 411 490 334 490 c 2
 156 490 l 1
 156 0 l 1
 115 0 l 1
 115 490 l 1
 25 490 l 1
EndSplineSet
Ligature2: "'dlig' Discretionary Ligatures lookup 14-1" f y
EndChar

StartChar: kgreenlandic
Encoding: 466 312 400
Width: 488
VWidth: 0
Flags: HW
LayerCount: 2
Fore
SplineSet
74 0 m 1
 74 531 l 1
 115 531 l 1
 115 286 l 1
 219 286 l 1
 413 531 l 1
 464 531 l 1
 256 266 l 1
 450 0 l 1
 398 0 l 1
 218 245 l 1
 115 245 l 9
 115 0 l 17
 74 0 l 1
EndSplineSet
EndChar

StartChar: Tbar
Encoding: 472 358 406
Width: 595
VWidth: 0
Flags: HW
LayerCount: 2
Fore
SplineSet
43 691 m 1
 43 732 l 1
 558 732 l 1
 558 691 l 1
 318 691 l 1
 318 431 l 1
 458 431 l 1
 458 403 l 1
 318 403 l 1
 318 0 l 1
 277 0 l 1
 277 403 l 1
 150 403 l 1
 150 431 l 1
 277 431 l 1
 277 691 l 1
 43 691 l 1
EndSplineSet
Substitution2: "'c2sc' Capitals to Small Capitals in Latin lookup 17 subtable" tbar.smcp
EndChar

StartChar: gcommaaccent
Encoding: 477 291 411
Width: 565
VWidth: 0
Flags: HW
LayerCount: 2
Fore
SplineSet
257 608 m 2
 257 702 l 2
 257 755 305 744 305 744 c 1
 305 731 l 0
 287 731 286 719 286 712 c 2
 286 677 l 1
 293 677 l 2
 301 677 308 671 308 661 c 2
 308 608 l 2
 308 597 303 592 293 592 c 2
 272 592 l 2
 261 592 257 599 257 608 c 2
57 117 m 1
 57 152 82 188 135 191 c 1
 71 220 58 287 58 344 c 0
 58 474 114 533 230 533 c 2
 542 533 l 1
 542 505 l 1
 441 492 l 1
 457 476 492 445 492 344 c 0
 492 284 469 165 327 165 c 2
 171 165 l 2
 155 165 99 161 99 118 c 0
 99 83 149 71 171 68 c 2
 368 43 l 2
 445 33 513 -4 513 -83 c 2
 513 -116 l 2
 513 -176 494 -270 363 -270 c 2
 213 -270 l 2
 119 -270 56 -217 56 -116 c 2
 56 -25 l 1
 77 65 l 1
 60 80 57 103 57 117 c 1
97 -116 m 2
 97 -215 175 -229 213 -229 c 2
 363 -229 l 2
 429 -229 472 -194 472 -116 c 2
 472 -88 l 2
 472 -33 432 -7 364 2 c 2
 171 28 l 2
 129 34 97 51 97 51 c 1
 97 -116 l 2
99 344 m 0
 99 257 141 206 223 206 c 2
 324 206 l 2
 422 206 452 279 451 344 c 0
 450 443 412 492 352 492 c 2
 223 492 l 2
 123 492 99 427 99 344 c 0
EndSplineSet
AlternateSubs2: "'salt' Access All Alternates in Latin lookup 4-1" gcommaaccent.salt
Substitution2: "'smcp' Lowercase to Small Capitals lookup 16-1" gcommaaccent.smcp
EndChar

StartChar: gcommaaccent.salt
Encoding: 478 -1 412
Width: 560
VWidth: 0
Flags: HW
LayerCount: 2
Fore
SplineSet
270 608 m 2
 270 702 l 2
 270 755 318 744 318 744 c 1
 318 731 l 0
 300 731 299 719 299 712 c 2
 299 677 l 1
 306 677 l 2
 314 677 321 671 321 661 c 2
 321 608 l 2
 321 597 316 592 306 592 c 2
 284 592 l 2
 273 592 270 599 270 608 c 2
62 268 m 3
 62 436 121 537 246 537 c 3
 352 537 439 525 486 521 c 1
 486 -104 l 2
 486 -228 397 -279 328 -272 c 2
 90 -248 l 1
 90 -222 l 1
 328 -232 l 2
 382 -235 445 -197 445 -104 c 2
 445 29 l 1
 381 3 291 -10 246 -10 c 3
 93 -10 62 110 62 268 c 3
103 268 m 3
 103 122 131 31 246 31 c 3
 320 31 362 42 445 63 c 1
 445 496 l 2
 246 496 l 2
 135 496 103 388 103 268 c 3
EndSplineSet
EndChar

StartChar: tbar
Encoding: 479 359 413
Width: 347
VWidth: 0
Flags: HW
LayerCount: 2
Fore
SplineSet
25 491 m 1
 25 521 l 1
 114 532 l 1
 125 680 l 1
 155 680 l 1
 155 532 l 1
 323 532 l 1
 323 491 l 1
 155 491 l 1
 155 329 l 1
 273 329 l 1
 273 301 l 1
 155 301 l 1
 155 190 l 1
 155 53 195 50 236 42 c 2
 236 42 306 29 311 29 c 1
 311 1 l 1
 236 1 l 2
 154 1 114 49 114 190 c 2
 114 301 l 1
 33 301 l 1
 33 329 l 1
 114 329 l 1
 114 491 l 1
 25 491 l 1
EndSplineSet
AlternateSubs2: "'salt' Access All Alternates in Latin lookup 4-1" tbar.salt
Substitution2: "'smcp' Lowercase to Small Capitals lookup 16-1" tbar.smcp
EndChar

StartChar: Eng
Encoding: 480 330 414
Width: 669
VWidth: 0
Flags: HW
LayerCount: 2
Fore
SplineSet
98 0 m 1
 98 732 l 1
 141 732 l 1
 563 82 l 1
 563 732 l 1
 604 732 l 1
 604 0 l 1
 604 -84 l 1
 604 -236 541 -257 423 -257 c 1
 423 -226 l 1
 499 -214 563 -220 563 -80 c 1
 563 0 l 1
 141 653 l 1
 140 0 l 1
 98 0 l 1
EndSplineSet
Substitution2: "'c2sc' Capitals to Small Capitals in Latin lookup 17 subtable" eng.smcp
EndChar

StartChar: eng
Encoding: 481 331 415
Width: 561
VWidth: 0
Flags: HW
LayerCount: 2
Fore
SplineSet
74 0 m 1
 74 531 l 1
 99 531 l 1
 115 469 l 1
 176 504 236 540 317 540 c 3
 423 540 488 458 488 370 c 2
 488 0 l 1
 488 -90 l 1
 485 -220 390 -242 332 -253 c 1
 314 -230 l 1
 378 -214 445 -181 447 -91 c 1
 447 0 l 1
 447 370 l 2
 447 439 394 499 317 499 c 3
 234 499 181 471 115 437 c 1
 115 0 l 1
 74 0 l 1
EndSplineSet
Substitution2: "'smcp' Lowercase to Small Capitals lookup 16-1" eng.smcp
EndChar

StartChar: exclam.smcp
Encoding: 502 -1 436
Width: 263
VWidth: 0
Flags: HW
LayerCount: 2
Fore
SplineSet
101 16 m 2
 101 76 l 2
 101 86 106 92 117 92 c 2
 143 92 l 2
 153 92 159 85 159 76 c 2
 159 16 l 2
 159 6 152 0 143 0 c 2
 117 0 l 2
 108 0 101 7 101 16 c 2
107 570 m 1
 152 570 l 1
 146 166 l 1
 113 166 l 1
 107 570 l 1
EndSplineSet
EndChar

StartChar: quotedbl.smcp
Encoding: 503 -1 437
Width: 301
VWidth: 0
Flags: HW
LayerCount: 2
Fore
SplineSet
74 541 m 1
 74 608 l 1
 116 608 l 1
 116 541 l 1
 109 407 l 1
 83 407 l 1
 74 541 l 1
186 541 m 1
 186 608 l 1
 228 608 l 1
 228 541 l 1
 221 407 l 1
 195 407 l 1
 186 541 l 1
EndSplineSet
EndChar

StartChar: numbersign.smcp
Encoding: 504 -1 438
Width: 568
VWidth: 0
Flags: HW
LayerCount: 2
Fore
SplineSet
25 187 m 1
 29 211 l 1
 163 211 l 1
 188 356 l 1
 50 356 l 1
 54 381 l 1
 192 381 l 1
 224 570 l 1
 249 570 l 1
 217 381 l 1
 367 381 l 1
 399 570 l 1
 424 570 l 1
 393 381 l 1
 546 381 l 1
 542 356 l 1
 389 356 l 1
 365 211 l 1
 521 211 l 1
 517 187 l 1
 361 187 l 1
 329 -1 l 1
 304 -1 l 1
 335 187 l 1
 185 187 l 1
 153 -1 l 1
 128 -1 l 1
 160 187 l 1
 25 187 l 1
189 211 m 1
 339 211 l 1
 364 356 l 1
 213 356 l 1
 189 211 l 1
EndSplineSet
EndChar

StartChar: dollar.smcp
Encoding: 505 -1 439
Width: 525
VWidth: 0
Flags: HW
LayerCount: 2
Fore
SplineSet
62 397 m 2
 62 428 l 1
 62 562 156 575 248 575 c 1
 248 640 l 1
 282 640 l 1
 282 574 l 1
 319 573 403 567 440 562 c 1
 440 533 l 1
 234 533 l 2
 136 533 103 500 103 428 c 2
 103 397 l 1
 103 330 159 305 224 305 c 2
 306 305 l 2
 412 305 461 238 461 173 c 2
 461 135 l 2
 461 28 362 -8 282 -4 c 1
 282 -69 l 1
 248 -69 l 1
 248 -3 l 1
 206 1 109 6 80 11 c 1
 80 39 l 1
 110 39 228 39 298 39 c 0
 346 39 419 60 419 135 c 1
 419 173 l 2
 419 227 372 266 306 266 c 2
 224 266 l 2
 105 266 62 321 62 397 c 2
EndSplineSet
EndChar

StartChar: percent.smcp
Encoding: 506 -1 440
Width: 785
VWidth: 0
Flags: HW
LayerCount: 2
Fore
SplineSet
36 384 m 2
 36 446 l 2
 36 531 64 571 165 571 c 2
 210 571 l 2
 308 571 337 531 337 446 c 2
 337 384 l 18
 337 299 309 259 208 259 c 2
 163 259 l 2
 65 259 36 299 36 384 c 2
68 384 m 2
 68 311 96 291 163 291 c 2
 208 291 l 2
 279 291 305 310 305 384 c 10
 305 446 l 2
 305 514 283 539 210 539 c 2
 165 539 l 2
 93 539 68 520 68 446 c 2
 68 384 l 2
202 0 m 1
 543 570 l 1
 581 570 l 1
 240 0 l 1
 202 0 l 1
449 125 m 2
 449 188 l 2
 449 273 477 313 578 313 c 2
 623 313 l 2
 721 313 750 273 750 188 c 2
 750 125 l 18
 750 40 722 0 621 0 c 2
 576 0 l 2
 478 0 449 40 449 125 c 2
481 125 m 2
 481 52 509 32 576 32 c 2
 621 32 l 2
 692 32 718 51 718 125 c 10
 718 188 l 2
 718 256 696 281 623 281 c 2
 578 281 l 2
 506 281 481 262 481 188 c 2
 481 125 l 2
EndSplineSet
EndChar

StartChar: ampersand.smcp
Encoding: 507 -1 441
Width: 535
VWidth: 0
Flags: HW
LayerCount: 2
Fore
SplineSet
76 62 m 1
 18 140 31 222 107 285 c 2
 176 342 l 1
 132 399 l 2
 66 487 119 558 181 569 c 0
 225 576 286 575 399 560 c 1
 399 534 l 1
 231 534 l 2
 135 534 125 475 170 416 c 2
 373 152 l 1
 475 250 l 1
 487 236 l 1
 429 151 l 1
 398 119 l 1
 489 0 l 1
 441 0 l 1
 369 92 l 1
 307 34 l 1
 244 -24 138 -25 76 62 c 1
109 86 m 0
 149 33 227 13 280 65 c 1
 344 124 l 1
 201 309 l 1
 136 256 l 18
 66 198 70 138 109 86 c 0
EndSplineSet
EndChar

StartChar: quotesingle.smcp
Encoding: 508 -1 442
Width: 189
VWidth: 0
Flags: HW
LayerCount: 2
Fore
SplineSet
74 540 m 1
 74 607 l 1
 116 607 l 1
 116 540 l 1
 109 406 l 1
 83 406 l 1
 74 540 l 1
EndSplineSet
EndChar

StartChar: asterisk.smcp
Encoding: 509 -1 443
Width: 458
VWidth: 0
Flags: HW
LayerCount: 2
Fore
SplineSet
62 437 m 1
 62 460 l 1
 203 472 l 1
 204 431 l 1
 62 437 l 1
137 265 m 1
 168 399 l 1
 209 390 l 1
 159 258 l 1
 137 265 l 1
196 575 m 1
 218 583 l 1
 287 462 l 1
 248 444 l 1
 196 575 l 1
228 342 m 1
 250 379 l 1
 366 293 l 1
 353 275 l 1
 228 342 l 1
272 413 m 1
 386 493 l 1
 399 473 l 1
 300 381 l 1
 272 413 l 1
EndSplineSet
EndChar

StartChar: zero.smcp
Encoding: 510 -1 444
Width: 595
VWidth: 0
Flags: HW
LayerCount: 2
Fore
SplineSet
86 162 m 10
 86 408 l 2
 86 520 163 570 258 570 c 2
 342 570 l 2
 496 570 510 456 510 408 c 1
 510 162 l 18
 510 43 441 0 342 0 c 2
 258 0 l 2
 167 0 86 42 86 162 c 10
127 162 m 2
 127 72 193 41 258 41 c 10
 342 41 l 18
 443 41 469 100 469 162 c 2
 469 408 l 2
 469 481 431 529 342 529 c 2
 258 529 l 2
 175 529 127 486 127 408 c 2
 127 162 l 2
EndSplineSet
EndChar

StartChar: one.smcp
Encoding: 511 -1 445
Width: 347
VWidth: 0
Flags: HW
LayerCount: 2
Fore
SplineSet
49 474 m 1
 49 500 l 1
 208 585 l 1
 249 585 l 1
 249 0 l 1
 208 0 l 1
 208 539 l 1
 49 474 l 1
EndSplineSet
EndChar

StartChar: two.smcp
Encoding: 512 -1 446
Width: 524
VWidth: 0
Flags: HW
LayerCount: 2
Fore
SplineSet
49 529 m 2
 49 554 l 1
 151 567 159 571 271 571 c 3
 411 571 464 497 464 384 c 3
 464 230 239 99 139 41 c 9
 459 41 l 25
 459 0 l 25
 55 0 l 25
 55 39 l 17
 165 107 421 245 421 385 c 3
 421 472 384 532 264 530 c 1
 214 530 49 529 49 529 c 2
EndSplineSet
EndChar

StartChar: three.smcp
Encoding: 513 -1 447
Width: 528
VWidth: 0
Flags: HW
LayerCount: 2
Fore
SplineSet
37 532 m 1
 37 558 l 1
 88 575 213 574 304 573 c 0
 390 572 436 511 436 430 c 2
 436 395 l 2
 436 321 389 289 363 283 c 1
 392 273 436 235 436 167 c 2
 436 137 l 2
 436 42 393 -5 298 -5 c 0
 209 -5 84 -5 42 10 c 1
 42 36 l 1
 287 36 l 2
 350 36 393 55 393 137 c 2
 393 167 l 2
 393 241 336 261 295 262 c 2
 90 268 l 2
 90 300 l 1
 295 304 l 2
 341 305 395 324 395 395 c 2
 395 430 l 2
 395 491 361 532 293 532 c 2
 37 532 l 1
EndSplineSet
EndChar

StartChar: four.smcp
Encoding: 514 -1 448
Width: 534
VWidth: 0
Flags: HW
LayerCount: 2
Fore
SplineSet
25 185 m 1
 241 570 l 1
 288 570 l 1
 82 200 l 1
 379 200 l 1
 379 381 l 1
 398 456 l 1
 420 456 l 1
 420 200 l 1
 510 200 l 1
 510 170 l 1
 420 157 l 1
 420 2 l 1
 379 2 l 1
 379 157 l 1
 47 157 l 1
 25 185 l 1
EndSplineSet
EndChar

StartChar: five.smcp
Encoding: 515 -1 449
Width: 569
VWidth: 0
Flags: HW
LayerCount: 2
Fore
SplineSet
94 16 m 1
 94 42 l 1
 340 42 l 2
 422 42 457 83 457 152 c 2
 457 201 l 2
 457 255 447 304 346 304 c 0
 246 304 l 2
 188 304 132 266 132 212 c 1
 95 212 l 1
 112 570 l 25
 472 570 l 1
 472 529 l 1
 152 529 l 25
 140 295 l 1
 156 318 196 344 246 344 c 2
 246 344 312 344 346 344 c 0
 464 344 498 288 498 203 c 2
 498 150 l 2
 498 37 425 0 340 -1 c 0
 241 -2 141 3 94 16 c 1
EndSplineSet
EndChar

StartChar: six.smcp
Encoding: 516 -1 450
Width: 570
VWidth: 0
Flags: HW
LayerCount: 2
Fore
SplineSet
80 301 m 0
 80 521 166 576 234 577 c 0
 313 578 403 575 480 566 c 1
 480 536 l 1
 235 536 l 1
 135 536 121 374 121 316 c 1
 187 324 305 326 363 326 c 0
 469 326 498 283 498 216 c 2
 498 127 l 2
 498 35 436 0 363 0 c 2
 240 0 l 2
 155 0 80 49 80 301 c 0
121 285 m 1
 121 178 135 41 240 41 c 2
 363 41 l 2
 407 41 457 57 457 131 c 2
 457 216 l 2
 457 271 425 285 363 285 c 2
 121 285 l 1
EndSplineSet
EndChar

StartChar: seven.smcp
Encoding: 517 -1 451
Width: 483
VWidth: 0
Flags: HW
LayerCount: 2
Fore
SplineSet
37 529 m 1
 37 570 l 1
 426 570 l 1
 447 538 l 1
 251 0 l 1
 205 0 l 1
 399 529 l 1
 37 529 l 1
EndSplineSet
EndChar

StartChar: eight.smcp
Encoding: 518 -1 452
Width: 604
VWidth: 0
Flags: HW
LayerCount: 2
Fore
SplineSet
92 133 m 2
 92 180 l 2
 92 260 144 279 174 283 c 1
 121 298 92 348 92 403 c 2
 92 436 l 2
 92 542 138 575 228 575 c 2
 388 575 l 2
 471 575 514 531 514 436 c 2
 514 403 l 2
 514 344 480 302 436 294 c 1
 481 288 514 233 514 178 c 2
 514 133 l 2
 514 32 451 0 387 0 c 2
 226 0 l 2
 95 0 92 92 92 133 c 2
133 131 m 2
 133 71 160 41 230 41 c 2
 383 41 l 2
 437 41 473 72 473 131 c 2
 473 175 l 2
 473 253 421 268 379 268 c 2
 229 268 l 2
 188 268 133 254 133 178 c 2
 133 131 l 2
133 402 m 2
 133 326 188 310 229 310 c 2
 379 310 l 2
 443 310 474 353 474 402 c 2
 474 434 l 2
 474 507 447 534 384 534 c 2
 232 534 l 2
 164 534 133 521 133 434 c 2
 133 402 l 2
EndSplineSet
EndChar

StartChar: nine.smcp
Encoding: 519 -1 453
Width: 570
VWidth: 0
Flags: HW
LayerCount: 2
Fore
SplineSet
74 356 m 2
 74 445 l 2
 74 537 136 572 209 572 c 2
 331 572 l 2
 416 572 491 523 491 271 c 0
 491 51 405 -4 337 -5 c 0
 258 -6 170 -5 92 6 c 1
 92 36 l 1
 337 36 l 1
 437 36 450 198 450 256 c 1
 384 248 267 246 209 246 c 0
 103 246 74 289 74 356 c 2
115 356 m 2
 115 301 147 287 209 287 c 2
 450 287 l 1
 450 394 436 531 331 531 c 2
 209 531 l 2
 165 531 115 515 115 441 c 2
 115 356 l 2
EndSplineSet
EndChar

StartChar: question.smcp
Encoding: 520 -1 454
Width: 468
VWidth: 0
Flags: HW
LayerCount: 2
Fore
SplineSet
25 529 m 2
 25 559 l 1
 102 568 145 572 229 571 c 1
 368 571 420 516 420 421 c 2
 420 372 l 2
 420 259 320 227 211 241 c 1
 211 240 210 167 211 166 c 1
 168 166 l 1
 168 277 l 1
 183 277 233 276 248 277 c 0
 309 278 379 294 379 372 c 2
 379 421 l 2
 379 508 325 529 222 529 c 2
 25 529 l 2
160 16 m 2
 160 76 l 2
 160 86 165 92 176 92 c 2
 201 92 l 2
 212 92 218 86 218 76 c 2
 218 16 l 2
 218 5 210 0 201 0 c 2
 176 0 l 2
 167 0 160 7 160 16 c 2
EndSplineSet
EndChar

StartChar: at.smcp
Encoding: 521 -1 455
Width: 858
VWidth: 0
Flags: HW
LayerCount: 2
Fore
SplineSet
80 42 m 2
 80 390 l 2
 80 426 82 554 248 554 c 10
 453 554 l 18
 524 554 606 524 606 414 c 2
 606 42 l 9
 577 42 l 25
 567 106 l 17
 565 106 449 33 358 33 c 1
 284 31 229 82 230 150 c 10
 230 203 l 2
 230 283 276 336 359 336 c 8
 440 336 566 335 566 336 c 0
 566 336 567 411 566 412 c 2
 566 485 521 513 450 513 c 2
 248 513 l 2
 175 513 121 485 121 390 c 2
 121 42 l 2
 121 -66 190 -94 248 -94 c 10
 577 -94 l 2
 673 -94 713 -48 713 42 c 2
 713 554 l 2
 713 642 666 701 577 701 c 2
 183 701 l 9
 183 726 l 17
 231 736 345 743 471 742 c 0
 577 742 l 2
 683 740 754 679 754 554 c 10
 754 42 l 2
 754 -56 715 -136 577 -136 c 2
 248 -136 l 2
 146 -136 80 -74 80 42 c 2
271 156 m 2
 271 109 309 74 365 74 c 1
 424 73 516 110 566 134 c 9
 566 309 l 17
 364 297 l 2
 324 294 271 278 271 201 c 2
 270 200 270 157 271 156 c 2
EndSplineSet
EndChar

StartChar: a.smcp
Encoding: 522 -1 456
Width: 581
VWidth: 0
Flags: HW
LayerCount: 2
Fore
SplineSet
43 0 m 1
 283 570 l 1
 324 570 l 1
 544 0 l 1
 499 0 l 1
 432 172 l 1
 160 172 l 1
 88 0 l 1
 43 0 l 1
178 213 m 1
 418 213 l 1
 303 515 l 1
 178 213 l 1
EndSplineSet
EndChar

StartChar: b.smcp
Encoding: 523 -1 457
Width: 548
VWidth: 0
Flags: HW
HStem: 0 42<139.48 420.367> 273 41<139.48 412.486> 530 41<139.48 415.201>
VStem: 98 41<42 273.18 314.18 530> 459 41<79.6151 224.832 356.111 488.892>
LayerCount: 2
Fore
SplineSet
98 0 m 1
 98 571 l 1
 343 571 l 2
 467 571 497 488 497 421 c 3
 497 331 441 305 408 292 c 1
 429 288 500 247 500 157 c 3
 500 72 469 0 343 0 c 2
 98 0 l 1
139 42 m 1
 343 42 l 2
 393 42 459 52 459 157 c 3
 459 227 408 273 343 273 c 2
 343 273 151 272 139 273 c 1
 139 42 l 1
139 314 m 1
 343 314 l 2
 407 314 456 344 456 421 c 3
 456 511 394 530 343 530 c 2
 139 530 l 1
 139 314 l 1
EndSplineSet
EndChar

StartChar: c.smcp
Encoding: 524 -1 458
Width: 528
VWidth: 0
Flags: HW
HStem: -4 41<190.783 477.981> 537 41<189.598 477.742>
VStem: 68 41<140.943 437.132>
LayerCount: 2
Fore
SplineSet
68 295 m 4
 68 440 102 578 272 578 c 4
 315 578 440 568 491 556 c 5
 491 527 l 5
 476 530 337 537 272 537 c 7
 156 537 109 456 109 295 c 7
 109 133 148 38 272 37 c 5
 345 39 491 47 491 47 c 6
 491 18 l 5
 433 7 349 -4 272 -4 c 7
 91 -4 68 157 68 295 c 4
EndSplineSet
EndChar

StartChar: d.smcp
Encoding: 525 -1 459
Width: 610
VWidth: 0
Flags: HW
LayerCount: 2
Fore
SplineSet
98 0 m 1
 98 572 l 1
 332 572 l 0
 508 570 551 406 551 283 c 0
 551 1 392 0 332 0 c 0
 311 0 155 0 98 0 c 1
139 41 m 1
 332 41 l 2
 473 41 510 148 510 283 c 0
 510 466 422 531 332 531 c 2
 139 531 l 1
 139 41 l 1
EndSplineSet
EndChar

StartChar: e.smcp
Encoding: 526 -1 460
Width: 525
VWidth: 0
Flags: HW
LayerCount: 2
Fore
SplineSet
98 83 m 2
 98 481 l 2
 98 542 138 571 202 571 c 1
 476 561 l 1
 476 531 l 1
 204 531 l 2
 148 531 139 507 139 476 c 1
 139 306 l 1
 445 300 l 1
 445 270 l 1
 139 264 l 1
 139 91 l 2
 139 42 176 39 191 39 c 2
 476 39 l 1
 476 10 l 1
 182 -2 l 1
 132 -2 98 31 98 83 c 2
EndSplineSet
EndChar

StartChar: f.smcp
Encoding: 527 -1 461
Width: 525
VWidth: 0
Flags: HW
LayerCount: 2
Fore
SplineSet
98 0 m 1
 98 481 l 2
 98 542 138 571 202 571 c 1
 476 561 l 1
 476 531 l 1
 204 531 l 2
 148 531 140 506 139 476 c 1
 139 305 l 1
 445 299 l 1
 445 269 l 1
 139 262 l 1
 139 0 l 1
 98 0 l 1
EndSplineSet
EndChar

StartChar: g.smcp
Encoding: 528 -1 462
Width: 575
VWidth: 0
Flags: HW
LayerCount: 2
Fore
SplineSet
68 286 m 0
 68 470 109 579 281 579 c 0
 324 579 438 568 502 554 c 1
 502 524 l 1
 440 530 370 538 281 538 c 3
 158 538 109 479 109 288 c 3
 109 145 164 34 281 34 c 0
 362 34 453 75 475 92 c 9
 475 270 l 25
 284 270 l 25
 284 296 l 17
 346 304 368 311 449 311 c 0
 470 311 492 310 516 308 c 9
 516 0 l 17
 487 0 l 0
 476 51 l 1
 423 17 341 -7 281 -7 c 0
 74 -8 68 236 68 286 c 0
EndSplineSet
EndChar

StartChar: h.smcp
Encoding: 529 -1 463
Width: 602
VWidth: 0
Flags: HW
LayerCount: 2
Fore
SplineSet
98 -1 m 1
 98 570 l 1
 139 570 l 1
 139 296 l 1
 497 296 l 1
 497 570 l 1
 538 570 l 1
 538 -1 l 1
 497 -1 l 1
 497 254 l 1
 139 254 l 1
 139 -1 l 1
 98 -1 l 1
EndSplineSet
EndChar

StartChar: i.smcp
Encoding: 530 -1 464
Width: 204
VWidth: 0
Flags: HW
LayerCount: 2
Fore
SplineSet
98 0 m 1
 98 570 l 1
 139 570 l 1
 139 0 l 1
 98 0 l 1
EndSplineSet
EndChar

StartChar: j.smcp
Encoding: 531 -1 465
Width: 332
VWidth: 0
Flags: HW
LayerCount: 2
Fore
SplineSet
43 20 m 1
 47 48 l 1
 137 28 226 17 226 168 c 1
 226 570 l 1
 267 570 l 1
 267 168 l 2
 267 121 260 50 213 17 c 0
 164 -17 90 -5 43 20 c 1
EndSplineSet
EndChar

StartChar: k.smcp
Encoding: 532 -1 466
Width: 542
VWidth: 0
Flags: HW
LayerCount: 2
Fore
SplineSet
98 -1 m 1
 98 570 l 1
 139 570 l 1
 139 300 l 1
 252 300 l 1
 455 570 l 1
 505 570 l 1
 289 280 l 1
 505 -1 l 1
 455 -1 l 1
 251 258 l 1
 139 258 l 1
 139 -1 l 1
 98 -1 l 1
EndSplineSet
EndChar

StartChar: l.smcp
Encoding: 533 -1 467
Width: 511
VWidth: 0
Flags: HW
LayerCount: 2
Fore
SplineSet
98 86 m 2
 98 570 l 1
 139 570 l 1
 139 94 l 2
 139 52 163 41 197 41 c 2
 474 41 l 1
 474 0 l 1
 184 0 l 2
 131 0 98 31 98 86 c 2
EndSplineSet
EndChar

StartChar: m.smcp
Encoding: 534 -1 468
Width: 737
VWidth: 0
Flags: HW
LayerCount: 2
Fore
SplineSet
68 0 m 1
 134 571 l 1
 178 571 l 1
 376 72 l 1
 574 571 l 1
 615 571 l 1
 678 0 l 1
 637 0 l 1
 584 486 l 1
 391 0 l 1
 360 0 l 1
 165 493 l 1
 107 0 l 1
 68 0 l 1
EndSplineSet
EndChar

StartChar: n.smcp
Encoding: 535 -1 469
Width: 613
VWidth: 0
Flags: HW
LayerCount: 2
Fore
SplineSet
98 0 m 1
 98 571 l 1
 136 571 l 1
 508 76 l 1
 508 571 l 1
 548 571 l 1
 548 0 l 1
 511 0 l 1
 139 497 l 1
 139 0 l 1
 98 0 l 1
EndSplineSet
EndChar

StartChar: o.smcp
Encoding: 536 -1 470
Width: 606
VWidth: 0
Flags: HW
LayerCount: 2
Fore
SplineSet
68 280 m 0
 68 524 141 575 307 575 c 3
 471 575 547 543 547 287 c 0
 547 42 475 -5 307 -5 c 3
 146 -5 68 31 68 280 c 0
109 285 m 0
 108 71 161 36 307 36 c 3
 450 36 509 81 506 287 c 0
 502 505 460 534 307 534 c 3
 173 534 110 506 109 285 c 0
EndSplineSet
EndChar

StartChar: p.smcp
Encoding: 537 -1 471
Width: 532
VWidth: 0
Flags: HW
LayerCount: 2
Fore
SplineSet
74 0 m 1
 74 569 l 1
 332 569 l 2
 403 569 484 531 484 414 c 0
 484 239 390 241 327 240 c 0
 115 250 l 1
 115 0 l 1
 74 0 l 1
115 280 m 1
 332 280 l 2
 397 280 443 296 443 410 c 1
 444 493 395 528 332 528 c 2
 115 528 l 1
 115 280 l 1
EndSplineSet
EndChar

StartChar: q.smcp
Encoding: 538 -1 472
Width: 606
VWidth: 0
Flags: HW
LayerCount: 2
Fore
SplineSet
68 280 m 0
 68 524 141 575 307 575 c 3
 471 575 547 543 547 287 c 0
 547 42 475 -5 307 -5 c 3
 146 -5 68 31 68 280 c 0
109 285 m 0
 109 71 161 36 307 36 c 3
 450 36 506 81 506 287 c 0
 506 507 455 534 307 534 c 3
 174 534 109 507 109 285 c 0
295 -33 m 9
 322 -33 l 17
 363 -102 436 -101 495 -81 c 1
 495 -124 l 1
 423 -151 314 -129 295 -33 c 9
EndSplineSet
EndChar

StartChar: r.smcp
Encoding: 539 -1 473
Width: 532
VWidth: 0
Flags: HW
LayerCount: 2
Fore
SplineSet
74 0 m 1
 74 571 l 1
 332 571 l 2
 392 571 485 543 485 409 c 0
 485 313 430 250 356 248 c 1
 494 0 l 1
 447 0 l 1
 312 244 l 1
 282 246 116 254 115 256 c 1
 115 0 l 1
 74 0 l 1
115 285 m 1
 339 285 l 2
 374 285 444 306 444 408 c 0
 444 510 371 530 332 530 c 2
 115 530 l 1
 115 285 l 1
EndSplineSet
EndChar

StartChar: s.smcp
Encoding: 540 -1 474
Width: 538
VWidth: 0
Flags: HW
LayerCount: 2
Fore
SplineSet
68 374 m 10
 68 438 l 18
 68 520 103 573 206 573 c 3
 258 573 385 565 452 556 c 9
 452 528 l 17
 452 528 304 533 206 533 c 3
 137 533 109 500 109 438 c 10
 109 374 l 18
 109 299 147 300 206 300 c 2
 349 300 l 2
 436 300 479 263 479 188 c 2
 479 118 l 2
 479 9 404 -10 349 -10 c 3
 300 -10 127 -4 90 8 c 9
 90 36 l 17
 90 36 253 31 349 31 c 3
 417 31 438 85 438 118 c 10
 438 188 l 2
 438 240 411 260 349 260 c 10
 206 260 l 2
 112 260 68 278 68 374 c 10
EndSplineSet
EndChar

StartChar: t.smcp
Encoding: 541 -1 475
Width: 533
VWidth: 0
Flags: HW
LayerCount: 2
Fore
SplineSet
43 529 m 1
 43 570 l 1
 496 570 l 1
 496 529 l 1
 290 529 l 1
 290 0 l 1
 249 0 l 1
 249 529 l 1
 43 529 l 1
EndSplineSet
EndChar

StartChar: u.smcp
Encoding: 542 -1 476
Width: 622
VWidth: 0
Flags: HW
LayerCount: 2
Fore
SplineSet
98 260 m 2
 98 570 l 1
 140 570 l 1
 140 260 l 2
 140 80 196 36 330 36 c 3
 452 36 516 84 516 260 c 2
 516 570 l 1
 558 570 l 1
 558 260 l 2
 558 27 450 -5 330 -5 c 3
 199 -5 97 21 98 260 c 2
EndSplineSet
EndChar

StartChar: v.smcp
Encoding: 543 -1 477
Width: 593
VWidth: 0
Flags: HW
LayerCount: 2
Fore
SplineSet
43 570 m 25
 88 570 l 17
 302 62 l 9
 511 570 l 25
 556 570 l 25
 321 0 l 25
 282 0 l 25
 43 570 l 25
EndSplineSet
EndChar

StartChar: w.smcp
Encoding: 544 -1 478
Width: 833
VWidth: 0
Flags: HW
LayerCount: 2
Fore
SplineSet
43 570 m 1
 88 570 l 1
 277 61 l 1
 462 570 l 1
 506 570 l 1
 442 392 l 1
 568 61 l 1
 754 570 l 1
 796 570 l 1
 588 0 l 1
 549 0 l 1
 420 333 l 1
 299 0 l 1
 258 0 l 1
 43 570 l 1
EndSplineSet
EndChar

StartChar: x.smcp
Encoding: 545 -1 479
Width: 552
VWidth: 0
Flags: HW
LayerCount: 2
Fore
SplineSet
43 0 m 1
 253 285 l 1
 45 570 l 1
 98 570 l 1
 279 323 l 1
 461 570 l 1
 514 570 l 1
 305 285 l 1
 514 0 l 1
 462 0 l 1
 278 247 l 1
 95 0 l 1
 43 0 l 1
EndSplineSet
EndChar

StartChar: y.smcp
Encoding: 546 -1 480
Width: 563
VWidth: 0
Flags: HW
LayerCount: 2
Fore
SplineSet
43 570 m 1
 90 570 l 1
 286 234 l 1
 479 570 l 1
 526 570 l 1
 306 190 l 1
 306 -1 l 1
 265 -1 l 1
 265 190 l 1
 43 570 l 1
EndSplineSet
EndChar

StartChar: z.smcp
Encoding: 547 -1 481
Width: 499
VWidth: 0
Flags: HW
LayerCount: 2
Fore
SplineSet
43 0 m 1
 43 41 l 1
 410 529 l 1
 43 529 l 1
 43 570 l 1
 462 570 l 1
 462 529 l 1
 99 41 l 1
 462 41 l 1
 462 0 l 1
 43 0 l 1
EndSplineSet
EndChar

StartChar: grave.smcp
Encoding: 548 -1 482
Width: 214
VWidth: 0
Flags: HW
LayerCount: 2
Fore
SplineSet
25 664 m 25
 74 664 l 25
 190 531 l 25
 158 531 l 25
 25 664 l 25
EndSplineSet
EndChar

StartChar: dieresis.smcp
Encoding: 553 -1 487
Width: 434
VWidth: 0
Flags: HW
LayerCount: 2
Fore
SplineSet
62 582 m 0
 62 598 74 610 90 610 c 0
 106 610 119 598 119 582 c 0
 119 566 106 552 90 552 c 0
 74 552 62 566 62 582 c 0
316 582 m 0
 316 598 329 610 345 610 c 0
 361 610 374 598 374 582 c 0
 374 566 361 552 345 552 c 0
 329 552 316 566 316 582 c 0
EndSplineSet
EndChar

StartChar: gcommaaccent.smcp
Encoding: 556 -1 490
Width: 576
VWidth: 0
Flags: HW
LayerCount: 2
Fore
SplineSet
67 286 m 0
 67 470 111 579 285 579 c 0
 328 579 430 568 494 554 c 1
 494 524 l 1
 453 528 343 538 286 538 c 1
 160 538 108 481 108 288 c 3
 108 127 166 36 284 34 c 0
 368 33 442 67 467 86 c 9
 467 270 l 25
 278 270 l 25
 278 296 l 17
 340 304 360 311 441 311 c 0
 462 311 484 310 508 308 c 9
 508 0 l 17
 505 -1 485 1 480 0 c 0
 468 47 l 1
 415 13 342 -7 282 -7 c 0
 68 -8 67 236 67 286 c 0
EndSplineSet
Refer: 126 44 S 0.9 0 0 0.9 207 -148 2
EndChar

StartChar: tbar.smcp
Encoding: 557 -1 491
Width: 501
VWidth: 0
Flags: HW
LayerCount: 2
Fore
SplineSet
25 529 m 1
 25 570 l 1
 477 570 l 1
 477 529 l 1
 271 529 l 1
 271 339 l 1
 385 339 l 1
 385 311 l 1
 271 311 l 1
 271 0 l 1
 230 0 l 1
 230 311 l 1
 114 311 l 1
 114 339 l 1
 230 339 l 1
 230 529 l 1
 25 529 l 1
EndSplineSet
EndChar

StartChar: macron.smcp
Encoding: 559 -1 493
Width: 415
VWidth: 0
Flags: H
LayerCount: 2
Fore
SplineSet
62 531 m 1
 62 562 l 1
 354 562 l 1
 354 531 l 1
 62 531 l 1
EndSplineSet
EndChar

StartChar: degree.smcp
Encoding: 560 -1 494
Width: 325
VWidth: 0
Flags: HW
LayerCount: 2
Fore
SplineSet
62 470 m 0
 62 527 108 573 164 573 c 0
 220 573 264 527 264 470 c 0
 264 413 220 368 164 368 c 0
 108 368 62 413 62 470 c 0
87 470 m 27
 87 428 122 395 164 395 c 27
 206 395 239 428 239 470 c 27
 239 512 206 547 164 547 c 27
 122 547 87 512 87 470 c 27
EndSplineSet
EndChar

StartChar: acute.smcp
Encoding: 561 -1 495
Width: 214
VWidth: 0
Flags: HW
LayerCount: 2
Fore
SplineSet
25 531 m 25
 141 664 l 25
 190 664 l 25
 57 531 l 25
 25 531 l 25
EndSplineSet
EndChar

StartChar: caron.smcp
Encoding: 562 -1 496
Width: 401
VWidth: 0
Flags: HW
LayerCount: 2
Fore
SplineSet
62 671 m 1
 93 671 l 1
 195 564 l 1
 308 671 l 1
 341 671 l 1
 214 531 l 1
 175 531 l 1
 62 671 l 1
175 531 m 1
214 531 m 1
EndSplineSet
EndChar

StartChar: eng.smcp
Encoding: 563 -1 497
Width: 614
VWidth: 0
Flags: HW
LayerCount: 2
Fore
SplineSet
98 0 m 1
 98 571 l 1
 137 571 l 1
 508 73 l 1
 508 571 l 1
 549 571 l 1
 549 506 549 65 549 0 c 1
 549 -50 l 1
 548 -182 492 -215 378 -215 c 1
 378 -182 l 1
 451 -175 509 -170 509 -50 c 1
 509 1 l 1
 139 497 l 1
 139 0 l 1
 98 0 l 1
EndSplineSet
EndChar

StartChar: ae.smcp
Encoding: 570 -1 504
Width: 810
VWidth: 0
Flags: HW
LayerCount: 2
Fore
SplineSet
28 0 m 1
 326 482 l 2
 371 554 401 563 496 567 c 1
 760 557 l 1
 760 527 l 1
 498 527 l 2
 442 527 434 516 433 473 c 1
 433 302 l 1
 729 295 l 1
 729 265 l 1
 433 258 l 1
 433 88 l 2
 433 39 470 36 485 36 c 2
 760 35 l 1
 760 6 l 1
 478 -5 l 1
 425 -6 391 25 391 79 c 2
 391 192 l 1
 196 192 l 1
 76 0 l 1
 28 0 l 1
219 233 m 1
 391 233 l 1
 391 506 l 1
 219 233 l 1
EndSplineSet
EndChar

StartChar: dcroat.smcp
Encoding: 580 -1 514
Width: 603
VWidth: 0
Flags: HW
LayerCount: 2
Fore
SplineSet
25 276 m 1
 25 304 l 1
 90 304 l 1
 90 572 l 1
 94 572 306 572 314 572 c 1
 487 571 530 406 530 283 c 0
 530 1 368 0 313 0 c 0
 292 0 147 0 90 0 c 1
 90 276 l 1
 25 276 l 1
133 41 m 1
 308 41 l 2
 449 41 486 146 486 283 c 0
 486 467 400 530 310 530 c 2
 133 530 l 1
 133 304 l 1
 249 304 l 1
 249 276 l 1
 133 276 l 1
 133 41 l 1
EndSplineSet
EndChar

StartChar: oslash.smcp
Encoding: 587 -1 521
Width: 601
VWidth: 0
Flags: HW
LayerCount: 2
Fore
SplineSet
64 0 m 1
 70 8 105 55 111 63 c 1
 82 105 68 173 68 280 c 0
 68 524 139 575 305 575 c 0
 376 575 429 570 468 542 c 1
 470 545 488 567 490 570 c 1
 525 570 l 1
 520 563 494 530 489 523 c 1
 526 483 543 411 543 287 c 0
 543 42 473 -5 305 -5 c 0
 226 -5 168 3 129 42 c 1
 126 38 100 4 97 0 c 1
 64 0 l 1
109 285 m 0
 109 197 117 138 139 101 c 1
 169 140 413 468 443 507 c 1
 412 529 366 534 305 534 c 0
 172 534 109 504 109 285 c 0
155 78 m 1
 186 45 234 36 305 36 c 0
 446 36 502 78 502 287 c 0
 502 391 491 453 462 488 c 1
 431 449 185 117 155 78 c 1
EndSplineSet
EndChar

StartChar: germandbls.smcp
Encoding: 594 -1 528
Width: 996
VWidth: 0
Flags: HW
LayerCount: 2
Fore
SplineSet
46 374 m 2
 46 278 90 260 184 260 c 2
 324 260 l 2
 386 260 413 240 413 188 c 2
 413 118 l 2
 413 75 392 31 324 31 c 1
 228 31 68 36 68 36 c 1
 68 8 l 1
 105 -4 275 -10 324 -10 c 1
 379 -10 454 9 454 118 c 2
 454 188 l 2
 454 263 411 300 324 300 c 2
 184 300 l 2
 125 300 87 299 87 374 c 2
 87 441 l 2
 87 503 115 533 184 533 c 1
 282 533 427 528 427 528 c 1
 427 556 l 1
 360 565 236 573 184 573 c 1
 81 573 46 523 46 441 c 2
 46 374 l 2
535 441 m 2
 535 523 570 573 673 573 c 1
 725 573 849 565 916 556 c 1
 916 528 l 1
 916 528 771 533 673 533 c 1
 604 533 576 503 576 441 c 2
 576 374 l 2
 576 299 614 300 673 300 c 2
 813 300 l 2
 900 300 943 263 943 188 c 2
 943 118 l 2
 943 9 868 -10 813 -10 c 1
 764 -10 594 -4 557 8 c 1
 557 36 l 1
 557 36 717 31 813 31 c 1
 881 31 902 75 902 118 c 2
 902 188 l 2
 902 240 875 260 813 260 c 2
 673 260 l 2
 579 260 535 278 535 374 c 2
 535 441 l 2
EndSplineSet
EndChar

StartChar: eth.smcp
Encoding: 597 -1 531
Width: 608
VWidth: 0
Flags: HW
LayerCount: 2
Fore
SplineSet
35 276 m 1
 35 304 l 1
 101 304 l 1
 101 572 l 1
 105 572 317 572 325 572 c 1
 498 571 540 406 540 283 c 0
 540 1 378 0 323 0 c 0
 302 0 158 0 101 0 c 1
 101 276 l 1
 35 276 l 1
143 41 m 1
 318 41 l 2
 459 41 497 146 497 283 c 0
 497 467 410 530 320 530 c 2
 143 530 l 1
 143 304 l 1
 259 304 l 1
 259 276 l 1
 143 276 l 1
 143 41 l 1
EndSplineSet
EndChar

StartChar: thorn.smcp
Encoding: 607 -1 541
Width: 556
VWidth: 0
Flags: HW
LayerCount: 2
Fore
SplineSet
92 0 m 1
 92 132 92 443 92 569 c 1
 133 569 l 1
 133 466 l 1
 329 466 l 2
 379 466 475 443 475 293 c 0
 475 122 391 109 329 109 c 0
 296 109 184 107 133 121 c 1
 133 0 l 1
 92 0 l 1
133 151 m 1
 329 151 l 2
 394 151 434 179 434 294 c 0
 434 376 395 423 329 425 c 1
 133 425 l 1
 133 151 l 1
EndSplineSet
EndChar

StartChar: quotesinglbase.smcp
Encoding: 608 -1 542
Width: 196
VWidth: 0
Flags: HW
LayerCount: 2
Fore
SplineSet
69 20 m 2
 69 84 l 2
 69 99 76 106 89 106 c 2
 118 106 l 2
 133 106 138 96 138 84 c 2
 138 -22 l 2
 138 -93 73 -79 73 -79 c 1
 73 -61 l 0
 97 -62 98 -45 98 -36 c 2
 98 0 l 1
 89 0 l 2
 78 0 69 6 69 20 c 2
EndSplineSet
EndChar

StartChar: quotedblleft.smcp
Encoding: 609 -1 543
Width: 315
VWidth: 0
Flags: HW
LayerCount: 2
Fore
SplineSet
185 410 m 2
 185 516 l 2
 185 588 250 572 250 572 c 1
 250 555 l 0
 226 556 224 538 224 529 c 2
 224 495 l 1
 233 495 l 2
 244 495 253 488 253 474 c 2
 253 410 l 2
 253 395 246 388 233 388 c 2
 204 388 l 2
 189 388 185 398 185 410 c 2
63 410 m 2
 63 516 l 2
 63 588 127 572 127 572 c 1
 127 555 l 0
 103 556 102 538 102 529 c 2
 102 495 l 1
 111 495 l 2
 122 495 131 488 131 474 c 2
 131 410 l 2
 131 395 124 388 111 388 c 2
 83 388 l 2
 68 388 63 398 63 410 c 2
EndSplineSet
EndChar

StartChar: quotedblright.smcp
Encoding: 610 -1 544
Width: 315
VWidth: 0
Flags: HW
LayerCount: 2
Fore
SplineSet
63 487 m 2
 63 552 l 2
 63 567 70 574 83 574 c 2
 112 574 l 2
 127 574 131 564 131 552 c 2
 131 446 l 2
 131 374 67 389 67 389 c 1
 67 407 l 0
 91 406 92 423 92 432 c 2
 92 467 l 1
 83 467 l 2
 72 467 63 473 63 487 c 2
185 487 m 2
 185 552 l 2
 185 567 192 574 205 574 c 2
 233 574 l 2
 248 574 253 564 253 552 c 2
 253 446 l 2
 253 374 189 389 189 389 c 1
 189 407 l 0
 213 406 214 423 214 432 c 2
 214 467 l 1
 205 467 l 2
 194 467 185 473 185 487 c 2
EndSplineSet
EndChar

StartChar: quotedblbase.smcp
Encoding: 611 -1 545
Width: 315
VWidth: 0
Flags: HW
LayerCount: 2
Fore
SplineSet
63 20 m 2
 63 84 l 2
 63 99 70 106 83 106 c 2
 112 106 l 2
 127 106 131 96 131 84 c 2
 131 -22 l 2
 131 -93 67 -78 67 -78 c 1
 67 -61 l 0
 91 -62 92 -45 92 -36 c 2
 92 0 l 1
 83 0 l 2
 72 0 63 6 63 20 c 2
185 20 m 2
 185 84 l 2
 185 99 192 106 205 106 c 2
 233 106 l 2
 248 106 253 96 253 84 c 2
 253 -22 l 2
 253 -93 189 -78 189 -78 c 1
 189 -61 l 0
 213 -62 214 -45 214 -36 c 2
 214 0 l 1
 205 0 l 2
 194 0 185 6 185 20 c 2
EndSplineSet
EndChar

StartChar: exclamdown.smcp
Encoding: 612 -1 546
Width: 263
VWidth: 0
Flags: HW
LayerCount: 2
Fore
SplineSet
101 494 m 2
 101 554 l 2
 101 564 107 570 116 570 c 2
 143 570 l 2
 152 570 159 563 159 554 c 2
 159 494 l 2
 159 484 154 478 143 478 c 2
 116 478 l 2
 106 478 101 485 101 494 c 2
108 0 m 1
 114 404 l 1
 147 404 l 1
 153 0 l 1
 108 0 l 1
EndSplineSet
EndChar

StartChar: ordmasculine.smcp
Encoding: 613 -1 547
Width: 428
VWidth: 0
Flags: HW
LayerCount: 2
Fore
SplineSet
56 394 m 0
 56 536 88 581 215 581 c 3
 342 581 372 536 372 394 c 0
 372 266 342 217 215 217 c 3
 88 217 56 266 56 394 c 0
67 157 m 1
 67 189 l 1
 360 189 l 1
 360 157 l 1
 67 157 l 1
89 394 m 0
 89 270 127 250 215 250 c 3
 306 250 338 271 339 394 c 0
 340 530 306 548 215 548 c 3
 117 548 89 524 89 394 c 0
EndSplineSet
Ligature2: "'ordn' Ordinals lookup 21-1" o.smcp
EndChar

StartChar: ordfeminine.smcp
Encoding: 614 -1 548
Width: 420
VWidth: 0
Flags: HW
LayerCount: 2
Fore
SplineSet
74 159 m 1
 74 191 l 1
 385 191 l 1
 385 159 l 1
 74 159 l 1
77 223 m 1
 219 572 l 1
 256 572 l 1
 382 223 l 1
 349 223 l 1
 311 330 l 1
 154 330 l 1
 112 223 l 1
 77 223 l 1
166 360 m 1
 301 360 l 1
 238 537 l 1
 166 360 l 1
EndSplineSet
Ligature2: "'ordn' Ordinals lookup 21-1" a.smcp
EndChar

StartChar: Euro.smcp
Encoding: 615 -1 549
Width: 513
VWidth: 0
Flags: HW
LayerCount: 2
Fore
SplineSet
20 210 m 1
 20 233 l 1
 88 239 l 1
 88 321 l 1
 20 327 l 1
 20 348 l 1
 88 355 l 1
 88 411 91 577 281 577 c 3
 322 577 414 564 469 554 c 1
 469 525 l 2
 469 525 345 536 281 536 c 3
 147 536 129 440 129 355 c 1
 315 349 l 1
 315 326 l 1
 129 321 l 1
 129 239 l 1
 315 234 l 1
 315 210 l 1
 315 210 127 206 129 204 c 1
 129 95 190 37 281 37 c 3
 361 37 472 52 472 52 c 1
 472 23 l 1
 409 5 346 -5 281 -5 c 3
 195 -5 88 45 88 204 c 1
 20 210 l 1
EndSplineSet
EndChar

StartChar: lcaron.smcp
Encoding: 616 -1 550
Width: 511
VWidth: 0
Flags: HW
LayerCount: 2
Fore
SplineSet
98 86 m 2
 98 570 l 1
 139 570 l 1
 139 94 l 2
 139 52 163 41 197 41 c 2
 474 41 l 1
 474 0 l 1
 184 0 l 2
 131 0 98 31 98 86 c 2
220 543 m 1
 220 610 l 1
 262 610 l 1
 262 543 l 1
 254 409 l 1
 228 409 l 1
 220 543 l 1
EndSplineSet
EndChar

StartChar: lslash.smcp
Encoding: 635 -1 569
Width: 508
VWidth: 0
Flags: HW
LayerCount: 2
Fore
SplineSet
39 257 m 1
 39 291 l 1
 101 317 l 1
 101 570 l 1
 142 570 l 1
 142 333 l 1
 258 381 l 1
 258 347 l 1
 142 299 l 1
 142 94 l 1
 142 52 165 41 199 41 c 2
 476 41 l 1
 476 0 l 1
 187 0 l 2
 134 0 101 31 101 86 c 2
 101 282 l 1
 39 257 l 1
EndSplineSet
EndChar

StartChar: questiondown.smcp
Encoding: 636 -1 570
Width: 506
VWidth: 0
Flags: HW
LayerCount: 2
Fore
SplineSet
69 149 m 2
 69 199 l 2
 69 312 169 344 278 330 c 1
 278 331 279 404 278 405 c 1
 321 405 l 1
 321 293 l 1
 306 293 256 294 241 293 c 0
 180 292 110 277 110 199 c 2
 110 149 l 2
 110 62 164 40 267 40 c 2
 464 40 l 2
 464 11 l 1
 387 2 344 -2 260 -1 c 1
 121 -1 69 54 69 149 c 2
271 494 m 2
 271 554 l 2
 271 565 278 570 287 570 c 2
 313 570 l 2
 322 570 329 563 329 554 c 2
 329 494 l 2
 329 484 324 478 313 478 c 2
 287 478 l 2
 276 478 271 484 271 494 c 2
EndSplineSet
EndChar

StartChar: oe.smcp
Encoding: 637 -1 571
Width: 903
VWidth: 0
Flags: HW
LayerCount: 2
Fore
SplineSet
49 280 m 0
 49 524 122 575 288 575 c 0
 389 575 455 562 490 491 c 1
 495 545 530 571 591 571 c 1
 859 561 l 1
 859 531 l 1
 593 531 l 2
 537 531 528 507 528 476 c 2
 528 306 l 1
 828 300 l 1
 828 270 l 1
 528 264 l 1
 528 91 l 2
 528 42 565 39 580 39 c 2
 859 39 l 1
 859 10 l 1
 571 -2 l 1
 518 -2 490 33 489 83 c 1
 458 17 389 -5 288 -5 c 0
 127 -5 49 31 49 280 c 0
90 285 m 0
 90 71 142 36 288 36 c 0
 431 36 487 81 487 287 c 0
 487 507 436 534 288 534 c 0
 155 534 90 507 90 285 c 0
EndSplineSet
EndChar

StartChar: sterling.smcp
Encoding: 639 -1 573
Width: 538
VWidth: 0
Flags: HW
LayerCount: 2
Fore
SplineSet
62 0 m 1
 62 26 l 1
 118 36 l 1
 118 264 l 1
 62 264 l 1
 62 287 l 1
 118 297 l 1
 118 391 l 2
 118 482 155 571 314 571 c 1
 478 560 l 1
 478 532 l 1
 316 532 l 2
 196 532 159 476 159 389 c 2
 159 299 l 1
 416 288 l 1
 416 262 l 1
 159 262 l 1
 159 40 l 1
 478 40 l 1
 478 0 l 1
 62 0 l 1
EndSplineSet
EndChar

StartChar: yen.smcp
Encoding: 640 -1 574
Width: 500
VWidth: 0
Flags: HW
LayerCount: 2
Fore
SplineSet
25 571 m 1
 71 571 l 1
 251 286 l 1
 428 571 l 1
 476 571 l 1
 281 258 l 1
 443 258 l 1
 443 226 l 1
 271 226 l 1
 271 169 l 1
 443 169 l 1
 443 137 l 1
 271 137 l 1
 271 0 l 1
 230 0 l 1
 230 137 l 1
 65 137 l 1
 65 169 l 1
 230 169 l 1
 230 226 l 1
 65 226 l 1
 65 258 l 1
 220 258 l 1
 25 571 l 1
EndSplineSet
EndChar

StartChar: perthousand.smcp
Encoding: 641 -1 575
Width: 1150
VWidth: 0
Flags: HW
LayerCount: 2
Fore
SplineSet
36 384 m 2
 36 446 l 2
 36 531 64 571 165 571 c 2
 210 571 l 2
 308 571 337 531 337 446 c 2
 337 384 l 18
 337 299 309 259 208 259 c 2
 163 259 l 2
 65 259 36 299 36 384 c 2
68 384 m 2
 68 311 96 291 163 291 c 2
 208 291 l 2
 279 291 305 310 305 384 c 10
 305 446 l 2
 305 514 283 539 210 539 c 2
 165 539 l 2
 93 539 68 520 68 446 c 2
 68 384 l 2
202 0 m 1
 543 570 l 1
 581 570 l 1
 240 0 l 1
 202 0 l 1
449 125 m 2
 449 188 l 2
 449 273 477 313 578 313 c 2
 624 313 l 2
 722 313 751 273 751 188 c 2
 751 125 l 18
 751 40 723 0 622 0 c 2
 576 0 l 2
 478 0 449 40 449 125 c 2
481 125 m 2
 481 52 509 32 576 32 c 2
 622 32 l 2
 693 32 719 51 719 125 c 10
 719 188 l 2
 719 256 697 281 624 281 c 2
 578 281 l 2
 506 281 481 262 481 188 c 2
 481 125 l 2
801 125 m 2
 801 188 l 2
 801 273 829 313 930 313 c 2
 976 313 l 2
 1074 313 1103 273 1103 188 c 2
 1103 125 l 18
 1103 40 1075 0 974 0 c 2
 928 0 l 2
 830 0 801 40 801 125 c 2
833 125 m 2
 833 52 861 32 928 32 c 2
 974 32 l 2
 1045 32 1071 51 1071 125 c 10
 1071 188 l 2
 1071 256 1049 281 976 281 c 2
 930 281 l 2
 858 281 833 262 833 188 c 2
 833 125 l 2
EndSplineSet
EndChar

StartChar: circumflex.smcp
Encoding: 642 -1 576
Width: 401
VWidth: 0
Flags: HW
LayerCount: 2
Fore
SplineSet
62 531 m 1
 189 661 l 1
 226 661 l 1
 340 531 l 1
 305 531 l 1
 207 631 l 1
 98 531 l 1
 62 531 l 1
189 661 m 1
226 661 m 1
EndSplineSet
EndChar

StartChar: tilde.smcp
Encoding: 643 -1 577
Width: 461
VWidth: 0
Flags: HW
LayerCount: 2
Fore
SplineSet
62 572 m 17
 98 603 132 632 172 632 c 1
 215 631 261 572 292 572 c 1
 326 572 362 601 388 619 c 9
 400 600 l 17
 367 570 333 537 291 538 c 1
 244 539 205 598 171 598 c 1
 131 598 108 575 72 553 c 9
 62 572 l 17
EndSplineSet
EndChar

StartChar: ring.smcp
Encoding: 644 -1 578
Width: 325
VWidth: 0
Flags: HW
LayerCount: 2
Fore
SplineSet
62 632 m 0
 62 689 108 735 164 735 c 0
 220 735 264 689 264 632 c 0
 264 575 220 530 164 530 c 0
 108 530 62 575 62 632 c 0
87 632 m 27
 87 590 122 556 164 556 c 27
 206 556 239 590 239 632 c 27
 239 674 206 708 164 708 c 27
 122 708 87 674 87 632 c 27
EndSplineSet
EndChar

StartChar: hbar.smcp
Encoding: 645 -1 579
Width: 602
VWidth: 0
Flags: HW
LayerCount: 2
Fore
SplineSet
49 412 m 1
 49 437 l 1
 98 437 l 1
 98 570 l 1
 139 570 l 1
 139 437 l 1
 496 437 l 1
 496 570 l 1
 537 570 l 1
 537 437 l 1
 588 437 l 1
 588 412 l 1
 537 412 l 1
 537 -1 l 1
 496 -1 l 1
 496 255 l 1
 139 255 l 1
 139 -1 l 1
 98 -1 l 1
 98 412 l 1
 49 412 l 1
139 296 m 1
 496 296 l 1
 496 412 l 1
 139 412 l 1
 139 296 l 1
EndSplineSet
EndChar

StartChar: Idotaccent.smcp
Encoding: 655 -1 589
Width: 196
VWidth: 0
Flags: HW
LayerCount: 2
Fore
SplineSet
95 0 m 1
 95 570 l 1
 136 570 l 1
 136 0 l 1
 95 0 l 1
EndSplineSet
Refer: 212 729 S 1 0 0 1 30 106 2
EndChar

StartChar: periodcentered.smcp
Encoding: 656 -1 590
Width: 266
VWidth: 0
Flags: HW
LayerCount: 2
Fore
SplineSet
109 301 m 2
 109 329 l 2
 109 339 115 345 126 345 c 2
 151 345 l 2
 162 345 167 339 167 329 c 2
 167 301 l 2
 167 290 160 286 151 286 c 2
 126 286 l 2
 117 286 109 292 109 301 c 2
EndSplineSet
EndChar

StartChar: bullet.smcp
Encoding: 657 -1 591
Width: 317
VWidth: 0
Flags: HW
LayerCount: 2
Fore
SplineSet
105 299 m 2
 105 346 l 2
 105 367 116 381 138 381 c 2
 179 381 l 2
 204 381 214 368 214 346 c 2
 214 299 l 2
 214 275 199 267 179 267 c 2
 138 267 l 2
 118 267 105 279 105 299 c 2
EndSplineSet
EndChar

StartChar: quoteleft.smcp
Encoding: 658 -1 592
Width: 206
VWidth: 0
Flags: HW
LayerCount: 2
Fore
SplineSet
69 410 m 2
 69 516 l 2
 69 588 133 572 133 572 c 1
 133 555 l 0
 109 556 108 538 108 529 c 2
 108 494 l 1
 117 494 l 2
 128 494 138 488 138 474 c 2
 138 410 l 2
 138 395 130 388 117 388 c 2
 89 388 l 2
 74 388 69 398 69 410 c 2
EndSplineSet
EndChar

StartChar: quoteright.smcp
Encoding: 659 -1 593
Width: 206
VWidth: 0
Flags: HW
LayerCount: 2
Fore
SplineSet
69 487 m 2
 69 552 l 2
 69 567 76 574 89 574 c 2
 118 574 l 2
 133 574 138 564 138 552 c 2
 138 446 l 2
 138 374 73 389 73 389 c 1
 73 407 l 0
 97 406 98 423 98 432 c 2
 98 467 l 1
 89 467 l 2
 78 467 69 473 69 487 c 2
EndSplineSet
EndChar

StartChar: uni0338
Encoding: 699 824 633
Width: 654
VWidth: 0
Flags: HW
LayerCount: 2
Fore
SplineSet
86 162 m 2
 86 570 l 2
 86 678 163 732 258 732 c 2
 402 732 l 2
 524 732 569 659 569 570 c 2
 569 162 l 2
 569 43 501 0 402 0 c 2
 258 0 l 2
 167 0 86 42 86 162 c 2
127 162 m 2
 127 134 133 111 145 93 c 1
 482 665 l 1
 464 683 438 691 402 691 c 2
 258 691 l 2
 175 691 127 644 127 570 c 2
 127 162 l 2
170 70 m 1
 191 50 222 41 258 41 c 2
 402 41 l 2
 492 41 528 88 528 162 c 2
 528 570 l 2
 528 601 522 628 508 648 c 1
 170 70 l 1
EndSplineSet
EndChar

StartChar: afii61352
Encoding: 700 8470 634
Width: 1087
VWidth: 0
Flags: HW
HStem: 0 21G<88.5 130.16> 0 21G<88.5 130.16> 381 33<782.727 963.124> 699 36<660.768 966.554>
VStem: 88 42<0 684.806> 582 41<45.1096 660.77> 708 33<471.097 615> 1005 33<461.796 652.005>
DStem2: 253.2 680 214.56 662.56 0.370394 -0.928875<-39.3452 700.47>
LayerCount: 2
Fore
SplineSet
88 0 m 1xbf
 88 651 l 2
 88 753 219 767 253 680 c 2
 498 66 l 2
 516 19 579 30 582 86 c 1
 582 86 582 391 582 568 c 3
 582 690 633 735 717 735 c 25
 906 735 l 18
 1008 732 1038 674 1038 553 c 0
 1038 446 1009 381 906 381 c 9
 840 381 l 17
 737 381 708 439 708 615 c 0
 741 615 l 0
 741 449 770 414 842 414 c 9
 903 414 l 17
 970 414 1005 451 1005 553 c 0
 1005 687 957 698 900 699 c 10
 900 699 787 699 715 699 c 3
 645 699 623 640 623 570 c 1
 623 79 l 2
 623 -9 497 -46 460 49 c 2
 215 663 l 2
 195 716 130 700 130 645 c 2
 130 0 l 1
 88 0 l 1xbf
EndSplineSet
Ligature2: "'ordn' Ordinals lookup 21-1" N o
EndChar

StartChar: afii61289
Encoding: 701 8467 635
Width: 406
VWidth: 0
Flags: HW
LayerCount: 2
Fore
SplineSet
37 248 m 1
 56 265 75 284 94 304 c 1
 94 632 l 1
 95 699 146 739 207 739 c 0
 287 739 332 673 330 598 c 0
 328 497 235 384 135 294 c 1
 135 188 l 2
 135 65 164 49 215 40 c 2
 215 40 289 26 294 26 c 1
 294 -1 l 1
 217 -1 l 1
 133 -1 94 49 94 188 c 2
 94 260 l 1
 83 248 61 234 51 229 c 1
 37 248 l 1
135 350 m 1
 198 421 310 532 282 640 c 0
 262 719 135 719 135 626 c 2
 135 350 l 1
EndSplineSet
EndChar

StartChar: estimated
Encoding: 702 8494 636
Width: 749
VWidth: 0
Flags: HW
LayerCount: 2
Fore
SplineSet
74 266 m 0
 74 344 103 406 158 458 c 1
 214 508 278 533 375 533 c 0
 464 533 525 512 583 467 c 0
 641 422 672 347 676 258 c 1
 197 258 l 2
 190 258 185 260 185 247 c 2
 185 114 l 2
 185 87 261 21 375 21 c 0
 451 21 523 57 566 105 c 1
 622 105 l 1
 584 65 549 38 509 22 c 0
 467 6 437 0 375 0 c 0
 279 0 212 23 157 74 c 0
 102 125 74 188 74 266 c 0
185 284 m 1
 185 275 189 275 194 275 c 1
 551 275 l 2
 563 275 564 272 564 282 c 2
 564 415 l 2
 564 457 460 514 374 514 c 0
 266 514 185 444 185 421 c 2
 185 284 l 1
EndSplineSet
EndChar

StartChar: c_k
Encoding: 703 -1 637
Width: 982
VWidth: 0
Flags: HW
LayerCount: 2
Fore
SplineSet
49 266 m 0
 49 498 122 537 224 537 c 1
 276 537 367 524 432 510 c 1
 432 482 l 1
 432 482 313 496 224 496 c 1
 144 496 90 469 90 262 c 1
 90 74 157 35 245 35 c 0
 343 35 482 157 560 229 c 1
 560 782 l 1
 601 782 l 1
 601 264 l 1
 894 531 l 1
 953 531 l 1
 707 306 l 1
 958 1 l 1
 906 1 l 1
 678 278 l 1
 601 208 l 1
 601 0 l 1
 560 0 l 1
 560 172 l 1
 429 58 331 -7 245 -6 c 0
 146 -5 49 33 49 266 c 0
EndSplineSet
Ligature2: "'dlig' Discretionary Ligatures lookup 14-1" c k
EndChar

StartChar: N.salt
Encoding: 704 -1 638
Width: 687
VWidth: 0
Flags: HW
LayerCount: 2
Fore
SplineSet
98 0 m 1
 98 652 l 2
 98 754 227 768 261 680 c 2
 497 67 l 2
 516 15 580 32 581 80 c 1
 581 732 l 1
 622 732 l 1
 622 79 l 2
 622 -14 494 -43 459 50 c 2
 222 665 l 2
 205 712 140 703 140 648 c 2
 140 0 l 1
 98 0 l 1
EndSplineSet
EndChar

